M48
; DRILL file {KiCad (6.0.0)} date Sun Jan  2 23:15:29 2022
; FORMAT={-:-/ absolute / metric / decimal}
; #@! TF.CreationDate,2022-01-02T23:15:29+00:00
; #@! TF.GenerationSoftware,Kicad,Pcbnew,(6.0.0)
; #@! TF.FileFunction,Plated,1,2,PTH
FMAT,2
METRIC
; #@! TA.AperFunction,Plated,PTH,ViaDrill
T1C0.300
; #@! TA.AperFunction,Plated,PTH,ViaDrill
T2C0.400
; #@! TA.AperFunction,Plated,PTH,ComponentDrill
T3C0.950
; #@! TA.AperFunction,Plated,PTH,ComponentDrill
T4C1.000
; #@! TA.AperFunction,Plated,PTH,ComponentDrill
T5C1.020
; #@! TA.AperFunction,Plated,PTH,ComponentDrill
T6C2.700
%
G90
G05
T1
X74.0Y-152.8
X75.099Y-136.6
X75.2Y-145.2
X89.5Y-84.0
X97.0Y-86.08
T2
X78.8Y-147.4
X78.8Y-155.0
X79.0Y-139.4
X83.5Y-142.8
X83.5Y-143.8
X84.6Y-142.8
X84.6Y-143.8
X85.6Y-142.8
X85.6Y-143.8
X86.6Y-142.8
X86.6Y-143.8
X90.4Y-122.4
X90.4Y-124.4
X90.4Y-126.2
X90.4Y-128.0
X90.4Y-129.8
X90.4Y-131.6
X90.4Y-139.8
X90.4Y-141.8
X90.4Y-143.6
X90.4Y-145.4
X90.4Y-147.2
X90.4Y-149.0
X92.2Y-122.4
X92.2Y-124.4
X92.2Y-126.2
X92.2Y-128.0
X92.2Y-129.8
X92.2Y-131.6
X92.2Y-139.8
X92.2Y-141.8
X92.2Y-143.6
X92.2Y-145.4
X92.2Y-147.2
X92.2Y-149.0
X93.8Y-122.4
X93.8Y-124.4
X93.8Y-126.2
X93.8Y-128.0
X93.8Y-129.8
X93.8Y-131.6
X93.8Y-139.8
X93.8Y-141.8
X93.8Y-143.6
X93.8Y-145.4
X93.8Y-147.2
X93.8Y-149.0
X95.6Y-122.4
X95.6Y-124.4
X95.6Y-126.2
X95.6Y-128.0
X95.6Y-129.8
X95.6Y-131.6
X95.6Y-139.8
X95.6Y-141.8
X95.6Y-143.6
X95.6Y-145.4
X95.6Y-147.2
X95.6Y-149.0
X97.0Y-122.4
X97.0Y-124.4
X97.0Y-126.2
X97.0Y-128.0
X97.0Y-129.8
X97.0Y-131.6
X97.0Y-139.8
X97.0Y-141.8
X97.0Y-143.6
X97.0Y-145.4
X97.0Y-147.2
X97.0Y-149.0
X98.4Y-122.4
X98.4Y-124.4
X98.4Y-126.2
X98.4Y-128.0
X98.4Y-129.8
X98.4Y-131.6
X98.4Y-139.8
X98.4Y-141.8
X98.4Y-143.6
X98.4Y-145.4
X98.4Y-147.2
X98.4Y-149.0
T3
X76.0Y-75.0
X76.0Y-77.5
X76.0Y-80.0
X76.0Y-82.5
X83.5Y-63.0
X83.5Y-65.5
X83.5Y-68.0
X83.5Y-70.5
X83.5Y-87.5
X83.5Y-90.0
X83.5Y-92.5
X83.5Y-95.0
T4
X74.5Y-127.0
X76.0Y-63.0
X76.0Y-65.5
X76.0Y-92.5
X76.0Y-95.0
X77.0Y-127.0
X79.5Y-102.0
X79.5Y-107.0
X79.5Y-112.0
X79.5Y-117.0
X82.04Y-102.0
X82.04Y-107.0
X82.04Y-112.0
X82.04Y-117.0
X83.75Y-77.5
X83.75Y-80.0
X84.58Y-102.0
X84.58Y-107.0
X84.58Y-112.0
X84.58Y-117.0
T5
X93.11Y-61.87
X93.11Y-64.41
X93.11Y-66.95
X93.11Y-69.49
X93.11Y-72.03
X93.11Y-74.57
X93.11Y-77.11
X93.11Y-79.65
X93.11Y-82.19
X93.11Y-84.73
X93.11Y-87.27
X93.11Y-89.81
X93.11Y-92.35
X93.11Y-94.89
X93.11Y-97.43
X93.11Y-99.97
X93.11Y-102.51
X93.11Y-105.05
X93.11Y-107.59
X93.11Y-110.13
X99.46Y-109.9
X102.0Y-109.9
X104.54Y-109.9
X110.89Y-61.87
X110.89Y-64.41
X110.89Y-66.95
X110.89Y-69.49
X110.89Y-72.03
X110.89Y-74.57
X110.89Y-77.11
X110.89Y-79.65
X110.89Y-82.19
X110.89Y-84.73
X110.89Y-87.27
X110.89Y-89.81
X110.89Y-92.35
X110.89Y-94.89
X110.89Y-97.43
X110.89Y-99.97
X110.89Y-102.51
X110.89Y-105.05
X110.89Y-107.59
X110.89Y-110.13
T6
X106.0Y-119.0
X106.0Y-127.0
X106.0Y-135.0
X106.0Y-142.75
X106.0Y-152.5
X111.0Y-119.0
X111.0Y-127.0
X111.0Y-135.0
X111.0Y-142.75
X111.0Y-152.5
T0
M30
