%TF.GenerationSoftware,KiCad,Pcbnew,(6.0.0)*%
%TF.CreationDate,2022-01-02T23:15:28+00:00*%
%TF.ProjectId,main_distro,6d61696e-5f64-4697-9374-726f2e6b6963,rev?*%
%TF.SameCoordinates,Original*%
%TF.FileFunction,Legend,Top*%
%TF.FilePolarity,Positive*%
%FSLAX46Y46*%
G04 Gerber Fmt 4.6, Leading zero omitted, Abs format (unit mm)*
G04 Created by KiCad (PCBNEW (6.0.0)) date 2022-01-02 23:15:28*
%MOMM*%
%LPD*%
G01*
G04 APERTURE LIST*
G04 Aperture macros list*
%AMRoundRect*
0 Rectangle with rounded corners*
0 $1 Rounding radius*
0 $2 $3 $4 $5 $6 $7 $8 $9 X,Y pos of 4 corners*
0 Add a 4 corners polygon primitive as box body*
4,1,4,$2,$3,$4,$5,$6,$7,$8,$9,$2,$3,0*
0 Add four circle primitives for the rounded corners*
1,1,$1+$1,$2,$3*
1,1,$1+$1,$4,$5*
1,1,$1+$1,$6,$7*
1,1,$1+$1,$8,$9*
0 Add four rect primitives between the rounded corners*
20,1,$1+$1,$2,$3,$4,$5,0*
20,1,$1+$1,$4,$5,$6,$7,0*
20,1,$1+$1,$6,$7,$8,$9,0*
20,1,$1+$1,$8,$9,$2,$3,0*%
G04 Aperture macros list end*
%ADD10C,0.200000*%
%ADD11C,0.150000*%
%ADD12C,0.250000*%
%ADD13C,0.120000*%
%ADD14R,4.600000X1.100000*%
%ADD15R,9.400000X10.800000*%
%ADD16O,1.500000X1.500000*%
%ADD17O,1.800000X1.800000*%
%ADD18O,1.700000X1.700000*%
%ADD19R,3.500000X1.700000*%
%ADD20R,1.700000X1.700000*%
%ADD21R,1.700000X3.500000*%
%ADD22RoundRect,0.250000X0.325000X0.450000X-0.325000X0.450000X-0.325000X-0.450000X0.325000X-0.450000X0*%
%ADD23RoundRect,0.250000X-0.750000X0.600000X-0.750000X-0.600000X0.750000X-0.600000X0.750000X0.600000X0*%
%ADD24O,2.000000X1.700000*%
%ADD25RoundRect,0.250000X-0.725000X0.600000X-0.725000X-0.600000X0.725000X-0.600000X0.725000X0.600000X0*%
%ADD26O,1.950000X1.700000*%
%ADD27R,3.800000X3.800000*%
%ADD28C,4.000000*%
%ADD29RoundRect,0.250000X-0.600000X-0.750000X0.600000X-0.750000X0.600000X0.750000X-0.600000X0.750000X0*%
%ADD30O,1.700000X2.000000*%
%ADD31R,3.500000X2.300000*%
%ADD32C,3.800000*%
G04 APERTURE END LIST*
D10*
X82200000Y-143500000D02*
X71050000Y-143500000D01*
X71050000Y-143500000D02*
X71050000Y-138000000D01*
X71050000Y-138000000D02*
X82200000Y-138000000D01*
X82200000Y-138000000D02*
X82200000Y-143500000D01*
X71000000Y-153600000D02*
X82150000Y-153600000D01*
X82150000Y-153600000D02*
X82150000Y-159100000D01*
X82150000Y-159100000D02*
X71000000Y-159100000D01*
X71000000Y-159100000D02*
X71000000Y-153600000D01*
X82200000Y-151500000D02*
X71050000Y-151500000D01*
X71050000Y-151500000D02*
X71050000Y-146000000D01*
X71050000Y-146000000D02*
X82200000Y-146000000D01*
X82200000Y-146000000D02*
X82200000Y-151500000D01*
D11*
X74523809Y-131452380D02*
X74047619Y-131452380D01*
X74000000Y-131928571D01*
X74047619Y-131880952D01*
X74142857Y-131833333D01*
X74380952Y-131833333D01*
X74476190Y-131880952D01*
X74523809Y-131928571D01*
X74571428Y-132023809D01*
X74571428Y-132261904D01*
X74523809Y-132357142D01*
X74476190Y-132404761D01*
X74380952Y-132452380D01*
X74142857Y-132452380D01*
X74047619Y-132404761D01*
X74000000Y-132357142D01*
X74857142Y-131452380D02*
X75190476Y-132452380D01*
X75523809Y-131452380D01*
X76523809Y-131452380D02*
X77142857Y-131452380D01*
X76809523Y-131833333D01*
X76952380Y-131833333D01*
X77047619Y-131880952D01*
X77095238Y-131928571D01*
X77142857Y-132023809D01*
X77142857Y-132261904D01*
X77095238Y-132357142D01*
X77047619Y-132404761D01*
X76952380Y-132452380D01*
X76666666Y-132452380D01*
X76571428Y-132404761D01*
X76523809Y-132357142D01*
X77523809Y-132166666D02*
X78000000Y-132166666D01*
X77428571Y-132452380D02*
X77761904Y-131452380D01*
X78095238Y-132452380D01*
D12*
X70193535Y-102485714D02*
X70357821Y-102542857D01*
X70643535Y-102542857D01*
X70764964Y-102485714D01*
X70829250Y-102428571D01*
X70900678Y-102314285D01*
X70914964Y-102200000D01*
X70872107Y-102085714D01*
X70822107Y-102028571D01*
X70714964Y-101971428D01*
X70493535Y-101914285D01*
X70386392Y-101857142D01*
X70336392Y-101800000D01*
X70293535Y-101685714D01*
X70307821Y-101571428D01*
X70379250Y-101457142D01*
X70443535Y-101400000D01*
X70564964Y-101342857D01*
X70850678Y-101342857D01*
X71014964Y-101400000D01*
X71464964Y-101914285D02*
X71864964Y-101914285D01*
X71957821Y-102542857D02*
X71386392Y-102542857D01*
X71536392Y-101342857D01*
X72107821Y-101342857D01*
X73157821Y-102542857D02*
X72829250Y-101971428D01*
X72472107Y-102542857D02*
X72622107Y-101342857D01*
X73079250Y-101342857D01*
X73186392Y-101400000D01*
X73236392Y-101457142D01*
X73279250Y-101571428D01*
X73257821Y-101742857D01*
X73186392Y-101857142D01*
X73122107Y-101914285D01*
X73000678Y-101971428D01*
X72543535Y-101971428D01*
X73650678Y-101342857D02*
X73900678Y-102542857D01*
X74450678Y-101342857D01*
X75079250Y-101342857D02*
X75307821Y-101342857D01*
X75414964Y-101400000D01*
X75514964Y-101514285D01*
X75543535Y-101742857D01*
X75493535Y-102142857D01*
X75407821Y-102371428D01*
X75279250Y-102485714D01*
X75157821Y-102542857D01*
X74929250Y-102542857D01*
X74822107Y-102485714D01*
X74722107Y-102371428D01*
X74693535Y-102142857D01*
X74743535Y-101742857D01*
X74829250Y-101514285D01*
X74957821Y-101400000D01*
X75079250Y-101342857D01*
X76586392Y-102542857D02*
X75900678Y-102542857D01*
X76243535Y-102542857D02*
X76393535Y-101342857D01*
X76257821Y-101514285D01*
X76129250Y-101628571D01*
X76007821Y-101685714D01*
D11*
X106238095Y-148678571D02*
X106380952Y-148726190D01*
X106428571Y-148773809D01*
X106476190Y-148869047D01*
X106476190Y-149011904D01*
X106428571Y-149107142D01*
X106380952Y-149154761D01*
X106285714Y-149202380D01*
X105904761Y-149202380D01*
X105904761Y-148202380D01*
X106238095Y-148202380D01*
X106333333Y-148250000D01*
X106380952Y-148297619D01*
X106428571Y-148392857D01*
X106428571Y-148488095D01*
X106380952Y-148583333D01*
X106333333Y-148630952D01*
X106238095Y-148678571D01*
X105904761Y-148678571D01*
X106857142Y-148916666D02*
X107333333Y-148916666D01*
X106761904Y-149202380D02*
X107095238Y-148202380D01*
X107428571Y-149202380D01*
X107619047Y-148202380D02*
X108190476Y-148202380D01*
X107904761Y-149202380D02*
X107904761Y-148202380D01*
X108380952Y-148202380D02*
X108952380Y-148202380D01*
X108666666Y-149202380D02*
X108666666Y-148202380D01*
X110047619Y-149202380D02*
X110047619Y-148202380D01*
X110523809Y-149202380D02*
X110523809Y-148202380D01*
X111095238Y-149202380D01*
X111095238Y-148202380D01*
D12*
X72671428Y-141028571D02*
X73957142Y-142571428D01*
X74600000Y-142800000D02*
X74528571Y-142742857D01*
X74385714Y-142571428D01*
X74314285Y-142457142D01*
X74242857Y-142285714D01*
X74171428Y-142000000D01*
X74171428Y-141771428D01*
X74242857Y-141485714D01*
X74314285Y-141314285D01*
X74385714Y-141200000D01*
X74528571Y-141028571D01*
X74600000Y-140971428D01*
X75028571Y-141314285D02*
X75028571Y-141200000D01*
X75100000Y-141085714D01*
X75242857Y-141028571D01*
X75385714Y-141028571D01*
X75528571Y-141085714D01*
X75600000Y-141200000D01*
X75600000Y-141314285D01*
X76028571Y-141314285D02*
X76028571Y-141428571D01*
X76100000Y-141542857D01*
X76242857Y-141600000D01*
X76385714Y-141600000D01*
X76528571Y-141542857D01*
X76600000Y-141428571D01*
X76600000Y-141314285D01*
X77028571Y-141314285D02*
X77028571Y-141200000D01*
X77100000Y-141085714D01*
X77242857Y-141028571D01*
X77385714Y-141028571D01*
X77528571Y-141085714D01*
X77600000Y-141200000D01*
X77600000Y-141314285D01*
X78028571Y-142800000D02*
X78100000Y-142742857D01*
X78242857Y-142571428D01*
X78314285Y-142457142D01*
X78385714Y-142285714D01*
X78457142Y-142000000D01*
X78457142Y-141771428D01*
X78385714Y-141485714D01*
X78314285Y-141314285D01*
X78242857Y-141200000D01*
X78100000Y-141028571D01*
X78028571Y-140971428D01*
X80242857Y-141085714D02*
X78957142Y-142628571D01*
X70193535Y-107735714D02*
X70357821Y-107792857D01*
X70643535Y-107792857D01*
X70764964Y-107735714D01*
X70829250Y-107678571D01*
X70900678Y-107564285D01*
X70914964Y-107450000D01*
X70872107Y-107335714D01*
X70822107Y-107278571D01*
X70714964Y-107221428D01*
X70493535Y-107164285D01*
X70386392Y-107107142D01*
X70336392Y-107050000D01*
X70293535Y-106935714D01*
X70307821Y-106821428D01*
X70379250Y-106707142D01*
X70443535Y-106650000D01*
X70564964Y-106592857D01*
X70850678Y-106592857D01*
X71014964Y-106650000D01*
X71464964Y-107164285D02*
X71864964Y-107164285D01*
X71957821Y-107792857D02*
X71386392Y-107792857D01*
X71536392Y-106592857D01*
X72107821Y-106592857D01*
X73157821Y-107792857D02*
X72829250Y-107221428D01*
X72472107Y-107792857D02*
X72622107Y-106592857D01*
X73079250Y-106592857D01*
X73186392Y-106650000D01*
X73236392Y-106707142D01*
X73279250Y-106821428D01*
X73257821Y-106992857D01*
X73186392Y-107107142D01*
X73122107Y-107164285D01*
X73000678Y-107221428D01*
X72543535Y-107221428D01*
X73650678Y-106592857D02*
X73900678Y-107792857D01*
X74450678Y-106592857D01*
X75079250Y-106592857D02*
X75307821Y-106592857D01*
X75414964Y-106650000D01*
X75514964Y-106764285D01*
X75543535Y-106992857D01*
X75493535Y-107392857D01*
X75407821Y-107621428D01*
X75279250Y-107735714D01*
X75157821Y-107792857D01*
X74929250Y-107792857D01*
X74822107Y-107735714D01*
X74722107Y-107621428D01*
X74693535Y-107392857D01*
X74743535Y-106992857D01*
X74829250Y-106764285D01*
X74957821Y-106650000D01*
X75079250Y-106592857D01*
X76036392Y-106707142D02*
X76100678Y-106650000D01*
X76222107Y-106592857D01*
X76507821Y-106592857D01*
X76614964Y-106650000D01*
X76664964Y-106707142D01*
X76707821Y-106821428D01*
X76693535Y-106935714D01*
X76614964Y-107107142D01*
X75843535Y-107792857D01*
X76586392Y-107792857D01*
X71542857Y-97149321D02*
X70342857Y-96999321D01*
X71200000Y-96706464D01*
X70342857Y-96199321D01*
X71542857Y-96349321D01*
X70342857Y-95399321D02*
X70342857Y-95170750D01*
X70400000Y-95063607D01*
X70514285Y-94963607D01*
X70742857Y-94935035D01*
X71142857Y-94985035D01*
X71371428Y-95070750D01*
X71485714Y-95199321D01*
X71542857Y-95320750D01*
X71542857Y-95549321D01*
X71485714Y-95656464D01*
X71371428Y-95756464D01*
X71142857Y-95785035D01*
X70742857Y-95735035D01*
X70514285Y-95649321D01*
X70400000Y-95520750D01*
X70342857Y-95399321D01*
X70342857Y-94542178D02*
X70342857Y-93856464D01*
X71542857Y-94349321D02*
X70342857Y-94199321D01*
X70342857Y-93227892D02*
X70342857Y-92999321D01*
X70400000Y-92892178D01*
X70514285Y-92792178D01*
X70742857Y-92763607D01*
X71142857Y-92813607D01*
X71371428Y-92899321D01*
X71485714Y-93027892D01*
X71542857Y-93149321D01*
X71542857Y-93377892D01*
X71485714Y-93485035D01*
X71371428Y-93585035D01*
X71142857Y-93613607D01*
X70742857Y-93563607D01*
X70514285Y-93477892D01*
X70400000Y-93349321D01*
X70342857Y-93227892D01*
X71542857Y-91663607D02*
X70971428Y-91992178D01*
X71542857Y-92349321D02*
X70342857Y-92199321D01*
X70342857Y-91742178D01*
X70400000Y-91635035D01*
X70457142Y-91585035D01*
X70571428Y-91542178D01*
X70742857Y-91563607D01*
X70857142Y-91635035D01*
X70914285Y-91699321D01*
X70971428Y-91820750D01*
X70971428Y-92277892D01*
X70342857Y-91113607D02*
X70342857Y-90370750D01*
X70800000Y-90827892D01*
X70800000Y-90656464D01*
X70857142Y-90549321D01*
X70914285Y-90499321D01*
X71028571Y-90456464D01*
X71314285Y-90492178D01*
X71428571Y-90563607D01*
X71485714Y-90627892D01*
X71542857Y-90749321D01*
X71542857Y-91092178D01*
X71485714Y-91199321D01*
X71428571Y-91249321D01*
X83907821Y-159042857D02*
X83336392Y-159042857D01*
X83486392Y-157842857D01*
X84386392Y-158414285D02*
X84786392Y-158414285D01*
X84879250Y-159042857D02*
X84307821Y-159042857D01*
X84457821Y-157842857D01*
X85029250Y-157842857D01*
X85772107Y-157842857D02*
X86000678Y-157842857D01*
X86107821Y-157900000D01*
X86207821Y-158014285D01*
X86236392Y-158242857D01*
X86186392Y-158642857D01*
X86100678Y-158871428D01*
X85972107Y-158985714D01*
X85850678Y-159042857D01*
X85622107Y-159042857D01*
X85514964Y-158985714D01*
X85414964Y-158871428D01*
X85386392Y-158642857D01*
X85436392Y-158242857D01*
X85522107Y-158014285D01*
X85650678Y-157900000D01*
X85772107Y-157842857D01*
X87564964Y-159042857D02*
X87714964Y-157842857D01*
X87643535Y-158414285D02*
X88329250Y-158414285D01*
X88250678Y-159042857D02*
X88400678Y-157842857D01*
X89336392Y-159042857D02*
X89414964Y-158414285D01*
X89372107Y-158300000D01*
X89264964Y-158242857D01*
X89036392Y-158242857D01*
X88914964Y-158300000D01*
X89343535Y-158985714D02*
X89222107Y-159042857D01*
X88936392Y-159042857D01*
X88829250Y-158985714D01*
X88786392Y-158871428D01*
X88800678Y-158757142D01*
X88872107Y-158642857D01*
X88993535Y-158585714D01*
X89279250Y-158585714D01*
X89400678Y-158528571D01*
X90429250Y-158985714D02*
X90307821Y-159042857D01*
X90079250Y-159042857D01*
X89972107Y-158985714D01*
X89922107Y-158928571D01*
X89879250Y-158814285D01*
X89922107Y-158471428D01*
X89993535Y-158357142D01*
X90057821Y-158300000D01*
X90179250Y-158242857D01*
X90407821Y-158242857D01*
X90514964Y-158300000D01*
X90936392Y-159042857D02*
X91086392Y-157842857D01*
X91107821Y-158585714D02*
X91393535Y-159042857D01*
X91493535Y-158242857D02*
X90979250Y-158700000D01*
X92822107Y-159042857D02*
X92972107Y-157842857D01*
X93429250Y-157842857D01*
X93536392Y-157900000D01*
X93586392Y-157957142D01*
X93629250Y-158071428D01*
X93607821Y-158242857D01*
X93536392Y-158357142D01*
X93472107Y-158414285D01*
X93350678Y-158471428D01*
X92893535Y-158471428D01*
X94022107Y-159042857D02*
X94122107Y-158242857D01*
X94172107Y-157842857D02*
X94107821Y-157900000D01*
X94157821Y-157957142D01*
X94222107Y-157900000D01*
X94172107Y-157842857D01*
X94157821Y-157957142D01*
X95114964Y-158985714D02*
X94993535Y-159042857D01*
X94764964Y-159042857D01*
X94657821Y-158985714D01*
X94607821Y-158928571D01*
X94564964Y-158814285D01*
X94607821Y-158471428D01*
X94679250Y-158357142D01*
X94743535Y-158300000D01*
X94864964Y-158242857D01*
X95093535Y-158242857D01*
X95200678Y-158300000D01*
X95793535Y-159042857D02*
X95686392Y-158985714D01*
X95636392Y-158928571D01*
X95593535Y-158814285D01*
X95636392Y-158471428D01*
X95707821Y-158357142D01*
X95772107Y-158300000D01*
X95893535Y-158242857D01*
X96064964Y-158242857D01*
X96172107Y-158300000D01*
X96222107Y-158357142D01*
X96264964Y-158471428D01*
X96222107Y-158814285D01*
X96150678Y-158928571D01*
X96086392Y-158985714D01*
X95964964Y-159042857D01*
X95793535Y-159042857D01*
X98100678Y-158414285D02*
X98264964Y-158471428D01*
X98314964Y-158528571D01*
X98357821Y-158642857D01*
X98336392Y-158814285D01*
X98264964Y-158928571D01*
X98200678Y-158985714D01*
X98079250Y-159042857D01*
X97622107Y-159042857D01*
X97772107Y-157842857D01*
X98172107Y-157842857D01*
X98279250Y-157900000D01*
X98329250Y-157957142D01*
X98372107Y-158071428D01*
X98357821Y-158185714D01*
X98286392Y-158300000D01*
X98222107Y-158357142D01*
X98100678Y-158414285D01*
X97700678Y-158414285D01*
X98822107Y-159042857D02*
X98922107Y-158242857D01*
X98893535Y-158471428D02*
X98964964Y-158357142D01*
X99029250Y-158300000D01*
X99150678Y-158242857D01*
X99264964Y-158242857D01*
X100029250Y-158985714D02*
X99907821Y-159042857D01*
X99679250Y-159042857D01*
X99572107Y-158985714D01*
X99529250Y-158871428D01*
X99586392Y-158414285D01*
X99657821Y-158300000D01*
X99779250Y-158242857D01*
X100007821Y-158242857D01*
X100114964Y-158300000D01*
X100157821Y-158414285D01*
X100143535Y-158528571D01*
X99557821Y-158642857D01*
X101107821Y-159042857D02*
X101186392Y-158414285D01*
X101143535Y-158300000D01*
X101036392Y-158242857D01*
X100807821Y-158242857D01*
X100686392Y-158300000D01*
X101114964Y-158985714D02*
X100993535Y-159042857D01*
X100707821Y-159042857D01*
X100600678Y-158985714D01*
X100557821Y-158871428D01*
X100572107Y-158757142D01*
X100643535Y-158642857D01*
X100764964Y-158585714D01*
X101050678Y-158585714D01*
X101172107Y-158528571D01*
X101679250Y-159042857D02*
X101829250Y-157842857D01*
X101850678Y-158585714D02*
X102136392Y-159042857D01*
X102236392Y-158242857D02*
X101722107Y-158700000D01*
X102822107Y-159042857D02*
X102714964Y-158985714D01*
X102664964Y-158928571D01*
X102622107Y-158814285D01*
X102664964Y-158471428D01*
X102736392Y-158357142D01*
X102800678Y-158300000D01*
X102922107Y-158242857D01*
X103093535Y-158242857D01*
X103200678Y-158300000D01*
X103250678Y-158357142D01*
X103293535Y-158471428D01*
X103250678Y-158814285D01*
X103179250Y-158928571D01*
X103114964Y-158985714D01*
X102993535Y-159042857D01*
X102822107Y-159042857D01*
X104350678Y-158242857D02*
X104250678Y-159042857D01*
X103836392Y-158242857D02*
X103757821Y-158871428D01*
X103800678Y-158985714D01*
X103907821Y-159042857D01*
X104079250Y-159042857D01*
X104200678Y-158985714D01*
X104264964Y-158928571D01*
X104750678Y-158242857D02*
X105207821Y-158242857D01*
X104972107Y-157842857D02*
X104843535Y-158871428D01*
X104886392Y-158985714D01*
X104993535Y-159042857D01*
X105107821Y-159042857D01*
X70193535Y-112485714D02*
X70357821Y-112542857D01*
X70643535Y-112542857D01*
X70764964Y-112485714D01*
X70829250Y-112428571D01*
X70900678Y-112314285D01*
X70914964Y-112200000D01*
X70872107Y-112085714D01*
X70822107Y-112028571D01*
X70714964Y-111971428D01*
X70493535Y-111914285D01*
X70386392Y-111857142D01*
X70336392Y-111800000D01*
X70293535Y-111685714D01*
X70307821Y-111571428D01*
X70379250Y-111457142D01*
X70443535Y-111400000D01*
X70564964Y-111342857D01*
X70850678Y-111342857D01*
X71014964Y-111400000D01*
X71464964Y-111914285D02*
X71864964Y-111914285D01*
X71957821Y-112542857D02*
X71386392Y-112542857D01*
X71536392Y-111342857D01*
X72107821Y-111342857D01*
X73157821Y-112542857D02*
X72829250Y-111971428D01*
X72472107Y-112542857D02*
X72622107Y-111342857D01*
X73079250Y-111342857D01*
X73186392Y-111400000D01*
X73236392Y-111457142D01*
X73279250Y-111571428D01*
X73257821Y-111742857D01*
X73186392Y-111857142D01*
X73122107Y-111914285D01*
X73000678Y-111971428D01*
X72543535Y-111971428D01*
X73650678Y-111342857D02*
X73900678Y-112542857D01*
X74450678Y-111342857D01*
X75079250Y-111342857D02*
X75307821Y-111342857D01*
X75414964Y-111400000D01*
X75514964Y-111514285D01*
X75543535Y-111742857D01*
X75493535Y-112142857D01*
X75407821Y-112371428D01*
X75279250Y-112485714D01*
X75157821Y-112542857D01*
X74929250Y-112542857D01*
X74822107Y-112485714D01*
X74722107Y-112371428D01*
X74693535Y-112142857D01*
X74743535Y-111742857D01*
X74829250Y-111514285D01*
X74957821Y-111400000D01*
X75079250Y-111342857D01*
X75993535Y-111342857D02*
X76736392Y-111342857D01*
X76279250Y-111800000D01*
X76450678Y-111800000D01*
X76557821Y-111857142D01*
X76607821Y-111914285D01*
X76650678Y-112028571D01*
X76614964Y-112314285D01*
X76543535Y-112428571D01*
X76479250Y-112485714D01*
X76357821Y-112542857D01*
X76014964Y-112542857D01*
X75907821Y-112485714D01*
X75857821Y-112428571D01*
X73757142Y-158483333D02*
X73685714Y-158421428D01*
X73542857Y-158235714D01*
X73471428Y-158111904D01*
X73400000Y-157926190D01*
X73328571Y-157616666D01*
X73328571Y-157369047D01*
X73400000Y-157059523D01*
X73471428Y-156873809D01*
X73542857Y-156750000D01*
X73685714Y-156564285D01*
X73757142Y-156502380D01*
X74328571Y-157121428D02*
X75471428Y-157492857D01*
X74328571Y-157864285D01*
X75828571Y-158111904D02*
X76971428Y-158111904D01*
X78471428Y-157121428D02*
X77328571Y-157492857D01*
X78471428Y-157864285D01*
X79042857Y-158483333D02*
X79114285Y-158421428D01*
X79257142Y-158235714D01*
X79328571Y-158111904D01*
X79400000Y-157926190D01*
X79471428Y-157616666D01*
X79471428Y-157369047D01*
X79400000Y-157059523D01*
X79328571Y-156873809D01*
X79257142Y-156750000D01*
X79114285Y-156564285D01*
X79042857Y-156502380D01*
X71542857Y-67649321D02*
X70342857Y-67499321D01*
X71200000Y-67206464D01*
X70342857Y-66699321D01*
X71542857Y-66849321D01*
X70342857Y-65899321D02*
X70342857Y-65670750D01*
X70400000Y-65563607D01*
X70514285Y-65463607D01*
X70742857Y-65435035D01*
X71142857Y-65485035D01*
X71371428Y-65570750D01*
X71485714Y-65699321D01*
X71542857Y-65820750D01*
X71542857Y-66049321D01*
X71485714Y-66156464D01*
X71371428Y-66256464D01*
X71142857Y-66285035D01*
X70742857Y-66235035D01*
X70514285Y-66149321D01*
X70400000Y-66020750D01*
X70342857Y-65899321D01*
X70342857Y-65042178D02*
X70342857Y-64356464D01*
X71542857Y-64849321D02*
X70342857Y-64699321D01*
X70342857Y-63727892D02*
X70342857Y-63499321D01*
X70400000Y-63392178D01*
X70514285Y-63292178D01*
X70742857Y-63263607D01*
X71142857Y-63313607D01*
X71371428Y-63399321D01*
X71485714Y-63527892D01*
X71542857Y-63649321D01*
X71542857Y-63877892D01*
X71485714Y-63985035D01*
X71371428Y-64085035D01*
X71142857Y-64113607D01*
X70742857Y-64063607D01*
X70514285Y-63977892D01*
X70400000Y-63849321D01*
X70342857Y-63727892D01*
X71542857Y-62163607D02*
X70971428Y-62492178D01*
X71542857Y-62849321D02*
X70342857Y-62699321D01*
X70342857Y-62242178D01*
X70400000Y-62135035D01*
X70457142Y-62085035D01*
X70571428Y-62042178D01*
X70742857Y-62063607D01*
X70857142Y-62135035D01*
X70914285Y-62199321D01*
X70971428Y-62320750D01*
X70971428Y-62777892D01*
X71542857Y-61020750D02*
X71542857Y-61706464D01*
X71542857Y-61363607D02*
X70342857Y-61213607D01*
X70514285Y-61349321D01*
X70628571Y-61477892D01*
X70685714Y-61599321D01*
X70443535Y-117485714D02*
X70607821Y-117542857D01*
X70893535Y-117542857D01*
X71014964Y-117485714D01*
X71079250Y-117428571D01*
X71150678Y-117314285D01*
X71164964Y-117200000D01*
X71122107Y-117085714D01*
X71072107Y-117028571D01*
X70964964Y-116971428D01*
X70743535Y-116914285D01*
X70636392Y-116857142D01*
X70586392Y-116800000D01*
X70543535Y-116685714D01*
X70557821Y-116571428D01*
X70629250Y-116457142D01*
X70693535Y-116400000D01*
X70814964Y-116342857D01*
X71100678Y-116342857D01*
X71264964Y-116400000D01*
X71714964Y-116914285D02*
X72114964Y-116914285D01*
X72207821Y-117542857D02*
X71636392Y-117542857D01*
X71786392Y-116342857D01*
X72357821Y-116342857D01*
X73407821Y-117542857D02*
X73079250Y-116971428D01*
X72722107Y-117542857D02*
X72872107Y-116342857D01*
X73329250Y-116342857D01*
X73436392Y-116400000D01*
X73486392Y-116457142D01*
X73529250Y-116571428D01*
X73507821Y-116742857D01*
X73436392Y-116857142D01*
X73372107Y-116914285D01*
X73250678Y-116971428D01*
X72793535Y-116971428D01*
X73900678Y-116342857D02*
X74150678Y-117542857D01*
X74700678Y-116342857D01*
X75329250Y-116342857D02*
X75557821Y-116342857D01*
X75664964Y-116400000D01*
X75764964Y-116514285D01*
X75793535Y-116742857D01*
X75743535Y-117142857D01*
X75657821Y-117371428D01*
X75529250Y-117485714D01*
X75407821Y-117542857D01*
X75179250Y-117542857D01*
X75072107Y-117485714D01*
X74972107Y-117371428D01*
X74943535Y-117142857D01*
X74993535Y-116742857D01*
X75079250Y-116514285D01*
X75207821Y-116400000D01*
X75329250Y-116342857D01*
X76822107Y-116742857D02*
X76722107Y-117542857D01*
X76593535Y-116285714D02*
X76200678Y-117142857D01*
X76943535Y-117142857D01*
X71792857Y-82149321D02*
X70592857Y-81999321D01*
X71450000Y-81706464D01*
X70592857Y-81199321D01*
X71792857Y-81349321D01*
X70592857Y-80399321D02*
X70592857Y-80170750D01*
X70650000Y-80063607D01*
X70764285Y-79963607D01*
X70992857Y-79935035D01*
X71392857Y-79985035D01*
X71621428Y-80070750D01*
X71735714Y-80199321D01*
X71792857Y-80320750D01*
X71792857Y-80549321D01*
X71735714Y-80656464D01*
X71621428Y-80756464D01*
X71392857Y-80785035D01*
X70992857Y-80735035D01*
X70764285Y-80649321D01*
X70650000Y-80520750D01*
X70592857Y-80399321D01*
X70592857Y-79542178D02*
X70592857Y-78856464D01*
X71792857Y-79349321D02*
X70592857Y-79199321D01*
X70592857Y-78227892D02*
X70592857Y-77999321D01*
X70650000Y-77892178D01*
X70764285Y-77792178D01*
X70992857Y-77763607D01*
X71392857Y-77813607D01*
X71621428Y-77899321D01*
X71735714Y-78027892D01*
X71792857Y-78149321D01*
X71792857Y-78377892D01*
X71735714Y-78485035D01*
X71621428Y-78585035D01*
X71392857Y-78613607D01*
X70992857Y-78563607D01*
X70764285Y-78477892D01*
X70650000Y-78349321D01*
X70592857Y-78227892D01*
X71792857Y-76663607D02*
X71221428Y-76992178D01*
X71792857Y-77349321D02*
X70592857Y-77199321D01*
X70592857Y-76742178D01*
X70650000Y-76635035D01*
X70707142Y-76585035D01*
X70821428Y-76542178D01*
X70992857Y-76563607D01*
X71107142Y-76635035D01*
X71164285Y-76699321D01*
X71221428Y-76820750D01*
X71221428Y-77277892D01*
X70707142Y-76070750D02*
X70650000Y-76006464D01*
X70592857Y-75885035D01*
X70592857Y-75599321D01*
X70650000Y-75492178D01*
X70707142Y-75442178D01*
X70821428Y-75399321D01*
X70935714Y-75413607D01*
X71107142Y-75492178D01*
X71792857Y-76263607D01*
X71792857Y-75520750D01*
X71600000Y-149200000D02*
X72314285Y-149200000D01*
X72242857Y-149028571D02*
X73528571Y-150571428D01*
X73385714Y-150457142D02*
X74528571Y-150457142D01*
X75314285Y-150800000D02*
X75242857Y-150742857D01*
X75100000Y-150571428D01*
X75028571Y-150457142D01*
X74957142Y-150285714D01*
X74885714Y-150000000D01*
X74885714Y-149771428D01*
X74957142Y-149485714D01*
X75028571Y-149314285D01*
X75100000Y-149200000D01*
X75242857Y-149028571D01*
X75314285Y-148971428D01*
X75885714Y-149200000D02*
X76028571Y-149600000D01*
X76171428Y-149142857D02*
X76314285Y-149485714D01*
X76671428Y-149200000D02*
X76671428Y-149542857D01*
X76600000Y-149771428D01*
X76457142Y-150000000D01*
X76314285Y-150114285D01*
X76100000Y-150228571D01*
X77314285Y-150800000D02*
X77385714Y-150742857D01*
X77528571Y-150571428D01*
X77600000Y-150457142D01*
X77671428Y-150285714D01*
X77742857Y-150000000D01*
X77742857Y-149771428D01*
X77671428Y-149485714D01*
X77600000Y-149314285D01*
X77528571Y-149200000D01*
X77385714Y-149028571D01*
X77314285Y-148971428D01*
X78100000Y-150457142D02*
X79242857Y-150457142D01*
X80671428Y-149085714D02*
X79385714Y-150628571D01*
X80885714Y-149200000D02*
X81600000Y-149200000D01*
D11*
%TO.C,U3*%
X84538095Y-126452380D02*
X84538095Y-127261904D01*
X84585714Y-127357142D01*
X84633333Y-127404761D01*
X84728571Y-127452380D01*
X84919047Y-127452380D01*
X85014285Y-127404761D01*
X85061904Y-127357142D01*
X85109523Y-127261904D01*
X85109523Y-126452380D01*
X85490476Y-126452380D02*
X86109523Y-126452380D01*
X85776190Y-126833333D01*
X85919047Y-126833333D01*
X86014285Y-126880952D01*
X86061904Y-126928571D01*
X86109523Y-127023809D01*
X86109523Y-127261904D01*
X86061904Y-127357142D01*
X86014285Y-127404761D01*
X85919047Y-127452380D01*
X85633333Y-127452380D01*
X85538095Y-127404761D01*
X85490476Y-127357142D01*
%TO.C,U1*%
X101238095Y-85452380D02*
X101238095Y-86261904D01*
X101285714Y-86357142D01*
X101333333Y-86404761D01*
X101428571Y-86452380D01*
X101619047Y-86452380D01*
X101714285Y-86404761D01*
X101761904Y-86357142D01*
X101809523Y-86261904D01*
X101809523Y-85452380D01*
X102809523Y-86452380D02*
X102238095Y-86452380D01*
X102523809Y-86452380D02*
X102523809Y-85452380D01*
X102428571Y-85595238D01*
X102333333Y-85690476D01*
X102238095Y-85738095D01*
X114097722Y-100360592D02*
X114016910Y-100387529D01*
X113936097Y-100468341D01*
X113882223Y-100576091D01*
X113882223Y-100683841D01*
X113909160Y-100764653D01*
X113989972Y-100899340D01*
X114070784Y-100980152D01*
X114205471Y-101060964D01*
X114286284Y-101087902D01*
X114394033Y-101087902D01*
X114501783Y-101034027D01*
X114555658Y-100980152D01*
X114609532Y-100872402D01*
X114609532Y-100818528D01*
X114420971Y-100629966D01*
X114313221Y-100737715D01*
X114905844Y-100629966D02*
X114340158Y-100064280D01*
X114555658Y-99848781D01*
X114636470Y-99821844D01*
X114690345Y-99821844D01*
X114771157Y-99848781D01*
X114851969Y-99929593D01*
X114878906Y-100010406D01*
X114878906Y-100064280D01*
X114851969Y-100145093D01*
X114636470Y-100360592D01*
X115767841Y-99767969D02*
X115444592Y-100091218D01*
X115606216Y-99929593D02*
X115040531Y-99363908D01*
X115067468Y-99498595D01*
X115067468Y-99606345D01*
X115040531Y-99687157D01*
X116037215Y-99498595D02*
X116144964Y-99390845D01*
X116171902Y-99310033D01*
X116171902Y-99256158D01*
X116144964Y-99121471D01*
X116064152Y-98986784D01*
X115848653Y-98771285D01*
X115767841Y-98744348D01*
X115713966Y-98744348D01*
X115633154Y-98771285D01*
X115525404Y-98879035D01*
X115498467Y-98959847D01*
X115498467Y-99013722D01*
X115525404Y-99094534D01*
X115660091Y-99229221D01*
X115740903Y-99256158D01*
X115794778Y-99256158D01*
X115875590Y-99229221D01*
X115983340Y-99121471D01*
X116010277Y-99040659D01*
X116010277Y-98986784D01*
X115983340Y-98905972D01*
X88513096Y-82311218D02*
X88432284Y-82338155D01*
X88351471Y-82418967D01*
X88297597Y-82526717D01*
X88297597Y-82634467D01*
X88324534Y-82715279D01*
X88405346Y-82849966D01*
X88486158Y-82930778D01*
X88620845Y-83011590D01*
X88701658Y-83038528D01*
X88809407Y-83038528D01*
X88917157Y-82984653D01*
X88971032Y-82930778D01*
X89024906Y-82823028D01*
X89024906Y-82769154D01*
X88836345Y-82580592D01*
X88728595Y-82688341D01*
X89321218Y-82580592D02*
X88755532Y-82014906D01*
X88971032Y-81799407D01*
X89051844Y-81772470D01*
X89105719Y-81772470D01*
X89186531Y-81799407D01*
X89267343Y-81880219D01*
X89294280Y-81961032D01*
X89294280Y-82014906D01*
X89267343Y-82095719D01*
X89051844Y-82311218D01*
X89563654Y-81206784D02*
X89455905Y-81314534D01*
X89428967Y-81395346D01*
X89428967Y-81449221D01*
X89455905Y-81583908D01*
X89536717Y-81718595D01*
X89752216Y-81934094D01*
X89833028Y-81961032D01*
X89886903Y-81961032D01*
X89967715Y-81934094D01*
X90075465Y-81826345D01*
X90102402Y-81745532D01*
X90102402Y-81691658D01*
X90075465Y-81610845D01*
X89940778Y-81476158D01*
X89859966Y-81449221D01*
X89806091Y-81449221D01*
X89725279Y-81476158D01*
X89617529Y-81583908D01*
X89590592Y-81664720D01*
X89590592Y-81718595D01*
X89617529Y-81799407D01*
X88486158Y-67098155D02*
X88405346Y-67125093D01*
X88324534Y-67205905D01*
X88270659Y-67313654D01*
X88270659Y-67421404D01*
X88297597Y-67502216D01*
X88378409Y-67636903D01*
X88459221Y-67717715D01*
X88593908Y-67798528D01*
X88674720Y-67825465D01*
X88782470Y-67825465D01*
X88890219Y-67771590D01*
X88944094Y-67717715D01*
X88997969Y-67609966D01*
X88997969Y-67556091D01*
X88809407Y-67367529D01*
X88701658Y-67475279D01*
X89294280Y-67367529D02*
X88728595Y-66801844D01*
X89617529Y-67044280D01*
X89051844Y-66478595D01*
X89886903Y-66774906D02*
X89321218Y-66209221D01*
X89455905Y-66074534D01*
X89563654Y-66020659D01*
X89671404Y-66020659D01*
X89752216Y-66047597D01*
X89886903Y-66128409D01*
X89967715Y-66209221D01*
X90048528Y-66343908D01*
X90075465Y-66424720D01*
X90075465Y-66532470D01*
X90021590Y-66640219D01*
X89886903Y-66774906D01*
X88513096Y-89931218D02*
X88432284Y-89958155D01*
X88351471Y-90038967D01*
X88297597Y-90146717D01*
X88297597Y-90254467D01*
X88324534Y-90335279D01*
X88405346Y-90469966D01*
X88486158Y-90550778D01*
X88620845Y-90631590D01*
X88701658Y-90658528D01*
X88809407Y-90658528D01*
X88917157Y-90604653D01*
X88971032Y-90550778D01*
X89024906Y-90443028D01*
X89024906Y-90389154D01*
X88836345Y-90200592D01*
X88728595Y-90308341D01*
X89321218Y-90200592D02*
X88755532Y-89634906D01*
X88971032Y-89419407D01*
X89051844Y-89392470D01*
X89105719Y-89392470D01*
X89186531Y-89419407D01*
X89267343Y-89500219D01*
X89294280Y-89581032D01*
X89294280Y-89634906D01*
X89267343Y-89715719D01*
X89051844Y-89931218D01*
X89913841Y-89607969D02*
X90021590Y-89500219D01*
X90048528Y-89419407D01*
X90048528Y-89365532D01*
X90021590Y-89230845D01*
X89940778Y-89096158D01*
X89725279Y-88880659D01*
X89644467Y-88853722D01*
X89590592Y-88853722D01*
X89509780Y-88880659D01*
X89402030Y-88988409D01*
X89375093Y-89069221D01*
X89375093Y-89123096D01*
X89402030Y-89203908D01*
X89536717Y-89338595D01*
X89617529Y-89365532D01*
X89671404Y-89365532D01*
X89752216Y-89338595D01*
X89859966Y-89230845D01*
X89886903Y-89150033D01*
X89886903Y-89096158D01*
X89859966Y-89015346D01*
X113953129Y-62527309D02*
X114707377Y-62904433D01*
X114330253Y-62150186D01*
X114976751Y-62042436D02*
X115084500Y-61988561D01*
X115138375Y-61988561D01*
X115219187Y-62015499D01*
X115299999Y-62096311D01*
X115326937Y-62177123D01*
X115326937Y-62230998D01*
X115300000Y-62311810D01*
X115084500Y-62527309D01*
X114518815Y-61961624D01*
X114707377Y-61773062D01*
X114788189Y-61746125D01*
X114842064Y-61746125D01*
X114922876Y-61773062D01*
X114976751Y-61826937D01*
X115003688Y-61907749D01*
X115003688Y-61961624D01*
X114976751Y-62042436D01*
X114788189Y-62230998D01*
X115084500Y-61395938D02*
X115542436Y-61853874D01*
X115623248Y-61880812D01*
X115677123Y-61880812D01*
X115757935Y-61853874D01*
X115865685Y-61746125D01*
X115892622Y-61665312D01*
X115892622Y-61611438D01*
X115865685Y-61530625D01*
X115407749Y-61072690D01*
X116188934Y-61369001D02*
X116296683Y-61315126D01*
X116431370Y-61180439D01*
X116458308Y-61099627D01*
X116458308Y-61045752D01*
X116431370Y-60964940D01*
X116377496Y-60911065D01*
X116296683Y-60884128D01*
X116242809Y-60884128D01*
X116161996Y-60911065D01*
X116027309Y-60991877D01*
X115946497Y-61018815D01*
X115892622Y-61018815D01*
X115811810Y-60991877D01*
X115757935Y-60938003D01*
X115730998Y-60857190D01*
X115730998Y-60803316D01*
X115757935Y-60722503D01*
X115892622Y-60587816D01*
X116000372Y-60533942D01*
X114097722Y-107980592D02*
X114016910Y-108007529D01*
X113936097Y-108088341D01*
X113882223Y-108196091D01*
X113882223Y-108303841D01*
X113909160Y-108384653D01*
X113989972Y-108519340D01*
X114070784Y-108600152D01*
X114205471Y-108680964D01*
X114286284Y-108707902D01*
X114394033Y-108707902D01*
X114501783Y-108654027D01*
X114555658Y-108600152D01*
X114609532Y-108492402D01*
X114609532Y-108438528D01*
X114420971Y-108249966D01*
X114313221Y-108357715D01*
X114905844Y-108249966D02*
X114340158Y-107684280D01*
X114555658Y-107468781D01*
X114636470Y-107441844D01*
X114690345Y-107441844D01*
X114771157Y-107468781D01*
X114851969Y-107549593D01*
X114878906Y-107630406D01*
X114878906Y-107684280D01*
X114851969Y-107765093D01*
X114636470Y-107980592D01*
X115767841Y-107387969D02*
X115444592Y-107711218D01*
X115606216Y-107549593D02*
X115040531Y-106983908D01*
X115067468Y-107118595D01*
X115067468Y-107226345D01*
X115040531Y-107307157D01*
X115390717Y-106633722D02*
X115767841Y-106256598D01*
X116091089Y-107064720D01*
X114097722Y-95290592D02*
X114016910Y-95317529D01*
X113936097Y-95398341D01*
X113882223Y-95506091D01*
X113882223Y-95613841D01*
X113909160Y-95694653D01*
X113989972Y-95829340D01*
X114070784Y-95910152D01*
X114205471Y-95990964D01*
X114286284Y-96017902D01*
X114394033Y-96017902D01*
X114501783Y-95964027D01*
X114555658Y-95910152D01*
X114609532Y-95802402D01*
X114609532Y-95748528D01*
X114420971Y-95559966D01*
X114313221Y-95667715D01*
X114905844Y-95559966D02*
X114340158Y-94994280D01*
X114555658Y-94778781D01*
X114636470Y-94751844D01*
X114690345Y-94751844D01*
X114771157Y-94778781D01*
X114851969Y-94859593D01*
X114878906Y-94940406D01*
X114878906Y-94994280D01*
X114851969Y-95075093D01*
X114636470Y-95290592D01*
X114932781Y-94509407D02*
X114932781Y-94455532D01*
X114959719Y-94374720D01*
X115094406Y-94240033D01*
X115175218Y-94213096D01*
X115229093Y-94213096D01*
X115309905Y-94240033D01*
X115363780Y-94293908D01*
X115417654Y-94401658D01*
X115417654Y-95048155D01*
X115767841Y-94697969D01*
X116306589Y-94159221D02*
X115983340Y-94482470D01*
X116144964Y-94320845D02*
X115579279Y-93755160D01*
X115606216Y-93889847D01*
X115606216Y-93997597D01*
X115579279Y-94078409D01*
X88486158Y-79798155D02*
X88405346Y-79825093D01*
X88324534Y-79905905D01*
X88270659Y-80013654D01*
X88270659Y-80121404D01*
X88297597Y-80202216D01*
X88378409Y-80336903D01*
X88459221Y-80417715D01*
X88593908Y-80498528D01*
X88674720Y-80525465D01*
X88782470Y-80525465D01*
X88890219Y-80471590D01*
X88944094Y-80417715D01*
X88997969Y-80309966D01*
X88997969Y-80256091D01*
X88809407Y-80067529D01*
X88701658Y-80175279D01*
X89294280Y-80067529D02*
X88728595Y-79501844D01*
X89617529Y-79744280D01*
X89051844Y-79178595D01*
X89886903Y-79474906D02*
X89321218Y-78909221D01*
X89455905Y-78774534D01*
X89563654Y-78720659D01*
X89671404Y-78720659D01*
X89752216Y-78747597D01*
X89886903Y-78828409D01*
X89967715Y-78909221D01*
X90048528Y-79043908D01*
X90075465Y-79124720D01*
X90075465Y-79232470D01*
X90021590Y-79340219D01*
X89886903Y-79474906D01*
X113920473Y-65069966D02*
X114674720Y-65447089D01*
X114297597Y-64692842D01*
X114997969Y-65069966D02*
X115105719Y-65016091D01*
X115240406Y-64881404D01*
X115267343Y-64800592D01*
X115267343Y-64746717D01*
X115240406Y-64665905D01*
X115186531Y-64612030D01*
X115105719Y-64585093D01*
X115051844Y-64585093D01*
X114971032Y-64612030D01*
X114836345Y-64692842D01*
X114755532Y-64719780D01*
X114701658Y-64719780D01*
X114620845Y-64692842D01*
X114566971Y-64638967D01*
X114540033Y-64558155D01*
X114540033Y-64504280D01*
X114566971Y-64423468D01*
X114701658Y-64288781D01*
X114809407Y-64234906D01*
X115428967Y-64154094D02*
X115698341Y-64423468D01*
X114944094Y-64046345D02*
X115428967Y-64154094D01*
X115321218Y-63669221D01*
X116021590Y-64046345D02*
X116129340Y-63992470D01*
X116264027Y-63857783D01*
X116290964Y-63776971D01*
X116290964Y-63723096D01*
X116264027Y-63642284D01*
X116210152Y-63588409D01*
X116129340Y-63561471D01*
X116075465Y-63561471D01*
X115994653Y-63588409D01*
X115859966Y-63669221D01*
X115779154Y-63696158D01*
X115725279Y-63696158D01*
X115644467Y-63669221D01*
X115590592Y-63615346D01*
X115563654Y-63534534D01*
X115563654Y-63480659D01*
X115590592Y-63399847D01*
X115725279Y-63265160D01*
X115833028Y-63211285D01*
X105904761Y-112523809D02*
X106019047Y-112561904D01*
X106209523Y-112561904D01*
X106285714Y-112523809D01*
X106323809Y-112485714D01*
X106361904Y-112409523D01*
X106361904Y-112333333D01*
X106323809Y-112257142D01*
X106285714Y-112219047D01*
X106209523Y-112180952D01*
X106057142Y-112142857D01*
X105980952Y-112104761D01*
X105942857Y-112066666D01*
X105904761Y-111990476D01*
X105904761Y-111914285D01*
X105942857Y-111838095D01*
X105980952Y-111800000D01*
X106057142Y-111761904D01*
X106247619Y-111761904D01*
X106361904Y-111800000D01*
X106628571Y-111761904D02*
X106819047Y-112561904D01*
X106971428Y-111990476D01*
X107123809Y-112561904D01*
X107314285Y-111761904D01*
X107619047Y-112561904D02*
X107619047Y-111761904D01*
X107809523Y-111761904D01*
X107923809Y-111800000D01*
X108000000Y-111876190D01*
X108038095Y-111952380D01*
X108076190Y-112104761D01*
X108076190Y-112219047D01*
X108038095Y-112371428D01*
X108000000Y-112447619D01*
X107923809Y-112523809D01*
X107809523Y-112561904D01*
X107619047Y-112561904D01*
X108419047Y-112561904D02*
X108419047Y-111761904D01*
X108952380Y-111761904D02*
X109104761Y-111761904D01*
X109180952Y-111800000D01*
X109257142Y-111876190D01*
X109295238Y-112028571D01*
X109295238Y-112295238D01*
X109257142Y-112447619D01*
X109180952Y-112523809D01*
X109104761Y-112561904D01*
X108952380Y-112561904D01*
X108876190Y-112523809D01*
X108800000Y-112447619D01*
X108761904Y-112295238D01*
X108761904Y-112028571D01*
X108800000Y-111876190D01*
X108876190Y-111800000D01*
X108952380Y-111761904D01*
X114086158Y-67098155D02*
X114005346Y-67125093D01*
X113924534Y-67205905D01*
X113870659Y-67313654D01*
X113870659Y-67421404D01*
X113897597Y-67502216D01*
X113978409Y-67636903D01*
X114059221Y-67717715D01*
X114193908Y-67798528D01*
X114274720Y-67825465D01*
X114382470Y-67825465D01*
X114490219Y-67771590D01*
X114544094Y-67717715D01*
X114597969Y-67609966D01*
X114597969Y-67556091D01*
X114409407Y-67367529D01*
X114301658Y-67475279D01*
X114894280Y-67367529D02*
X114328595Y-66801844D01*
X115217529Y-67044280D01*
X114651844Y-66478595D01*
X115486903Y-66774906D02*
X114921218Y-66209221D01*
X115055905Y-66074534D01*
X115163654Y-66020659D01*
X115271404Y-66020659D01*
X115352216Y-66047597D01*
X115486903Y-66128409D01*
X115567715Y-66209221D01*
X115648528Y-66343908D01*
X115675465Y-66424720D01*
X115675465Y-66532470D01*
X115621590Y-66640219D01*
X115486903Y-66774906D01*
X114086158Y-105198155D02*
X114005346Y-105225093D01*
X113924534Y-105305905D01*
X113870659Y-105413654D01*
X113870659Y-105521404D01*
X113897597Y-105602216D01*
X113978409Y-105736903D01*
X114059221Y-105817715D01*
X114193908Y-105898528D01*
X114274720Y-105925465D01*
X114382470Y-105925465D01*
X114490219Y-105871590D01*
X114544094Y-105817715D01*
X114597969Y-105709966D01*
X114597969Y-105656091D01*
X114409407Y-105467529D01*
X114301658Y-105575279D01*
X114894280Y-105467529D02*
X114328595Y-104901844D01*
X115217529Y-105144280D01*
X114651844Y-104578595D01*
X115486903Y-104874906D02*
X114921218Y-104309221D01*
X115055905Y-104174534D01*
X115163654Y-104120659D01*
X115271404Y-104120659D01*
X115352216Y-104147597D01*
X115486903Y-104228409D01*
X115567715Y-104309221D01*
X115648528Y-104443908D01*
X115675465Y-104524720D01*
X115675465Y-104632470D01*
X115621590Y-104740219D01*
X115486903Y-104874906D01*
X87989722Y-102900592D02*
X87908910Y-102927529D01*
X87828097Y-103008341D01*
X87774223Y-103116091D01*
X87774223Y-103223841D01*
X87801160Y-103304653D01*
X87881972Y-103439340D01*
X87962784Y-103520152D01*
X88097471Y-103600964D01*
X88178284Y-103627902D01*
X88286033Y-103627902D01*
X88393783Y-103574027D01*
X88447658Y-103520152D01*
X88501532Y-103412402D01*
X88501532Y-103358528D01*
X88312971Y-103169966D01*
X88205221Y-103277715D01*
X88797844Y-103169966D02*
X88232158Y-102604280D01*
X88447658Y-102388781D01*
X88528470Y-102361844D01*
X88582345Y-102361844D01*
X88663157Y-102388781D01*
X88743969Y-102469593D01*
X88770906Y-102550406D01*
X88770906Y-102604280D01*
X88743969Y-102685093D01*
X88528470Y-102900592D01*
X89659841Y-102307969D02*
X89336592Y-102631218D01*
X89498216Y-102469593D02*
X88932531Y-101903908D01*
X88959468Y-102038595D01*
X88959468Y-102146345D01*
X88932531Y-102227157D01*
X89282717Y-101553722D02*
X89632903Y-101203536D01*
X89659841Y-101607597D01*
X89740653Y-101526784D01*
X89821465Y-101499847D01*
X89875340Y-101499847D01*
X89956152Y-101526784D01*
X90090839Y-101661471D01*
X90117776Y-101742284D01*
X90117776Y-101796158D01*
X90090839Y-101876971D01*
X89929215Y-102038595D01*
X89848402Y-102065532D01*
X89794528Y-102065532D01*
X88486158Y-92498155D02*
X88405346Y-92525093D01*
X88324534Y-92605905D01*
X88270659Y-92713654D01*
X88270659Y-92821404D01*
X88297597Y-92902216D01*
X88378409Y-93036903D01*
X88459221Y-93117715D01*
X88593908Y-93198528D01*
X88674720Y-93225465D01*
X88782470Y-93225465D01*
X88890219Y-93171590D01*
X88944094Y-93117715D01*
X88997969Y-93009966D01*
X88997969Y-92956091D01*
X88809407Y-92767529D01*
X88701658Y-92875279D01*
X89294280Y-92767529D02*
X88728595Y-92201844D01*
X89617529Y-92444280D01*
X89051844Y-91878595D01*
X89886903Y-92174906D02*
X89321218Y-91609221D01*
X89455905Y-91474534D01*
X89563654Y-91420659D01*
X89671404Y-91420659D01*
X89752216Y-91447597D01*
X89886903Y-91528409D01*
X89967715Y-91609221D01*
X90048528Y-91743908D01*
X90075465Y-91824720D01*
X90075465Y-91932470D01*
X90021590Y-92040219D01*
X89886903Y-92174906D01*
X87989722Y-95280592D02*
X87908910Y-95307529D01*
X87828097Y-95388341D01*
X87774223Y-95496091D01*
X87774223Y-95603841D01*
X87801160Y-95684653D01*
X87881972Y-95819340D01*
X87962784Y-95900152D01*
X88097471Y-95980964D01*
X88178284Y-96007902D01*
X88286033Y-96007902D01*
X88393783Y-95954027D01*
X88447658Y-95900152D01*
X88501532Y-95792402D01*
X88501532Y-95738528D01*
X88312971Y-95549966D01*
X88205221Y-95657715D01*
X88797844Y-95549966D02*
X88232158Y-94984280D01*
X88447658Y-94768781D01*
X88528470Y-94741844D01*
X88582345Y-94741844D01*
X88663157Y-94768781D01*
X88743969Y-94849593D01*
X88770906Y-94930406D01*
X88770906Y-94984280D01*
X88743969Y-95065093D01*
X88528470Y-95280592D01*
X89659841Y-94687969D02*
X89336592Y-95011218D01*
X89498216Y-94849593D02*
X88932531Y-94283908D01*
X88959468Y-94418595D01*
X88959468Y-94526345D01*
X88932531Y-94607157D01*
X89444341Y-93772097D02*
X89498216Y-93718223D01*
X89579028Y-93691285D01*
X89632903Y-93691285D01*
X89713715Y-93718223D01*
X89848402Y-93799035D01*
X89983089Y-93933722D01*
X90063902Y-94068409D01*
X90090839Y-94149221D01*
X90090839Y-94203096D01*
X90063902Y-94283908D01*
X90010027Y-94337783D01*
X89929215Y-94364720D01*
X89875340Y-94364720D01*
X89794528Y-94337783D01*
X89659841Y-94256971D01*
X89525154Y-94122284D01*
X89444341Y-93987597D01*
X89417404Y-93906784D01*
X89417404Y-93852910D01*
X89444341Y-93772097D01*
X88513096Y-61991218D02*
X88432284Y-62018155D01*
X88351471Y-62098967D01*
X88297597Y-62206717D01*
X88297597Y-62314467D01*
X88324534Y-62395279D01*
X88405346Y-62529966D01*
X88486158Y-62610778D01*
X88620845Y-62691590D01*
X88701658Y-62718528D01*
X88809407Y-62718528D01*
X88917157Y-62664653D01*
X88971032Y-62610778D01*
X89024906Y-62503028D01*
X89024906Y-62449154D01*
X88836345Y-62260592D01*
X88728595Y-62368341D01*
X89321218Y-62260592D02*
X88755532Y-61694906D01*
X88971032Y-61479407D01*
X89051844Y-61452470D01*
X89105719Y-61452470D01*
X89186531Y-61479407D01*
X89267343Y-61560219D01*
X89294280Y-61641032D01*
X89294280Y-61694906D01*
X89267343Y-61775719D01*
X89051844Y-61991218D01*
X89428967Y-61021471D02*
X89482842Y-60967597D01*
X89563654Y-60940659D01*
X89617529Y-60940659D01*
X89698341Y-60967597D01*
X89833028Y-61048409D01*
X89967715Y-61183096D01*
X90048528Y-61317783D01*
X90075465Y-61398595D01*
X90075465Y-61452470D01*
X90048528Y-61533282D01*
X89994653Y-61587157D01*
X89913841Y-61614094D01*
X89859966Y-61614094D01*
X89779154Y-61587157D01*
X89644467Y-61506345D01*
X89509780Y-61371658D01*
X89428967Y-61236971D01*
X89402030Y-61156158D01*
X89402030Y-61102284D01*
X89428967Y-61021471D01*
X87989722Y-110520592D02*
X87908910Y-110547529D01*
X87828097Y-110628341D01*
X87774223Y-110736091D01*
X87774223Y-110843841D01*
X87801160Y-110924653D01*
X87881972Y-111059340D01*
X87962784Y-111140152D01*
X88097471Y-111220964D01*
X88178284Y-111247902D01*
X88286033Y-111247902D01*
X88393783Y-111194027D01*
X88447658Y-111140152D01*
X88501532Y-111032402D01*
X88501532Y-110978528D01*
X88312971Y-110789966D01*
X88205221Y-110897715D01*
X88797844Y-110789966D02*
X88232158Y-110224280D01*
X88447658Y-110008781D01*
X88528470Y-109981844D01*
X88582345Y-109981844D01*
X88663157Y-110008781D01*
X88743969Y-110089593D01*
X88770906Y-110170406D01*
X88770906Y-110224280D01*
X88743969Y-110305093D01*
X88528470Y-110520592D01*
X89659841Y-109927969D02*
X89336592Y-110251218D01*
X89498216Y-110089593D02*
X88932531Y-109523908D01*
X88959468Y-109658595D01*
X88959468Y-109766345D01*
X88932531Y-109847157D01*
X89605966Y-108850473D02*
X89336592Y-109119847D01*
X89579028Y-109416158D01*
X89579028Y-109362284D01*
X89605966Y-109281471D01*
X89740653Y-109146784D01*
X89821465Y-109119847D01*
X89875340Y-109119847D01*
X89956152Y-109146784D01*
X90090839Y-109281471D01*
X90117776Y-109362284D01*
X90117776Y-109416158D01*
X90090839Y-109496971D01*
X89956152Y-109631658D01*
X89875340Y-109658595D01*
X89821465Y-109658595D01*
X87943722Y-107980592D02*
X87862910Y-108007529D01*
X87782097Y-108088341D01*
X87728223Y-108196091D01*
X87728223Y-108303841D01*
X87755160Y-108384653D01*
X87835972Y-108519340D01*
X87916784Y-108600152D01*
X88051471Y-108680964D01*
X88132284Y-108707902D01*
X88240033Y-108707902D01*
X88347783Y-108654027D01*
X88401658Y-108600152D01*
X88455532Y-108492402D01*
X88455532Y-108438528D01*
X88266971Y-108249966D01*
X88159221Y-108357715D01*
X88751844Y-108249966D02*
X88186158Y-107684280D01*
X88401658Y-107468781D01*
X88482470Y-107441844D01*
X88536345Y-107441844D01*
X88617157Y-107468781D01*
X88697969Y-107549593D01*
X88724906Y-107630406D01*
X88724906Y-107684280D01*
X88697969Y-107765093D01*
X88482470Y-107980592D01*
X89613841Y-107387969D02*
X89290592Y-107711218D01*
X89452216Y-107549593D02*
X88886531Y-106983908D01*
X88913468Y-107118595D01*
X88913468Y-107226345D01*
X88886531Y-107307157D01*
X89721590Y-106525972D02*
X90098714Y-106903096D01*
X89371404Y-106445160D02*
X89640778Y-106983908D01*
X89990964Y-106633722D01*
X114097722Y-90200592D02*
X114016910Y-90227529D01*
X113936097Y-90308341D01*
X113882223Y-90416091D01*
X113882223Y-90523841D01*
X113909160Y-90604653D01*
X113989972Y-90739340D01*
X114070784Y-90820152D01*
X114205471Y-90900964D01*
X114286284Y-90927902D01*
X114394033Y-90927902D01*
X114501783Y-90874027D01*
X114555658Y-90820152D01*
X114609532Y-90712402D01*
X114609532Y-90658528D01*
X114420971Y-90469966D01*
X114313221Y-90577715D01*
X114905844Y-90469966D02*
X114340158Y-89904280D01*
X114555658Y-89688781D01*
X114636470Y-89661844D01*
X114690345Y-89661844D01*
X114771157Y-89688781D01*
X114851969Y-89769593D01*
X114878906Y-89850406D01*
X114878906Y-89904280D01*
X114851969Y-89985093D01*
X114636470Y-90200592D01*
X114932781Y-89419407D02*
X114932781Y-89365532D01*
X114959719Y-89284720D01*
X115094406Y-89150033D01*
X115175218Y-89123096D01*
X115229093Y-89123096D01*
X115309905Y-89150033D01*
X115363780Y-89203908D01*
X115417654Y-89311658D01*
X115417654Y-89958155D01*
X115767841Y-89607969D01*
X115471529Y-88880659D02*
X115471529Y-88826784D01*
X115498467Y-88745972D01*
X115633154Y-88611285D01*
X115713966Y-88584348D01*
X115767841Y-88584348D01*
X115848653Y-88611285D01*
X115902528Y-88665160D01*
X115956402Y-88772910D01*
X115956402Y-89419407D01*
X116306589Y-89069221D01*
X113889847Y-72490592D02*
X114240033Y-72140406D01*
X114266971Y-72544467D01*
X114347783Y-72463654D01*
X114428595Y-72436717D01*
X114482470Y-72436717D01*
X114563282Y-72463654D01*
X114697969Y-72598341D01*
X114724906Y-72679154D01*
X114724906Y-72733028D01*
X114697969Y-72813841D01*
X114536345Y-72975465D01*
X114455532Y-73002402D01*
X114401658Y-73002402D01*
X114401658Y-71978781D02*
X115155905Y-72355905D01*
X114778781Y-71601658D01*
X114913468Y-71466971D02*
X115263654Y-71116784D01*
X115290592Y-71520845D01*
X115371404Y-71440033D01*
X115452216Y-71413096D01*
X115506091Y-71413096D01*
X115586903Y-71440033D01*
X115721590Y-71574720D01*
X115748528Y-71655532D01*
X115748528Y-71709407D01*
X115721590Y-71790219D01*
X115559966Y-71951844D01*
X115479154Y-71978781D01*
X115425279Y-71978781D01*
X114097722Y-97820592D02*
X114016910Y-97847529D01*
X113936097Y-97928341D01*
X113882223Y-98036091D01*
X113882223Y-98143841D01*
X113909160Y-98224653D01*
X113989972Y-98359340D01*
X114070784Y-98440152D01*
X114205471Y-98520964D01*
X114286284Y-98547902D01*
X114394033Y-98547902D01*
X114501783Y-98494027D01*
X114555658Y-98440152D01*
X114609532Y-98332402D01*
X114609532Y-98278528D01*
X114420971Y-98089966D01*
X114313221Y-98197715D01*
X114905844Y-98089966D02*
X114340158Y-97524280D01*
X114555658Y-97308781D01*
X114636470Y-97281844D01*
X114690345Y-97281844D01*
X114771157Y-97308781D01*
X114851969Y-97389593D01*
X114878906Y-97470406D01*
X114878906Y-97524280D01*
X114851969Y-97605093D01*
X114636470Y-97820592D01*
X114932781Y-97039407D02*
X114932781Y-96985532D01*
X114959719Y-96904720D01*
X115094406Y-96770033D01*
X115175218Y-96743096D01*
X115229093Y-96743096D01*
X115309905Y-96770033D01*
X115363780Y-96823908D01*
X115417654Y-96931658D01*
X115417654Y-97578155D01*
X115767841Y-97227969D01*
X115552341Y-96312097D02*
X115606216Y-96258223D01*
X115687028Y-96231285D01*
X115740903Y-96231285D01*
X115821715Y-96258223D01*
X115956402Y-96339035D01*
X116091089Y-96473722D01*
X116171902Y-96608409D01*
X116198839Y-96689221D01*
X116198839Y-96743096D01*
X116171902Y-96823908D01*
X116118027Y-96877783D01*
X116037215Y-96904720D01*
X115983340Y-96904720D01*
X115902528Y-96877783D01*
X115767841Y-96796971D01*
X115633154Y-96662284D01*
X115552341Y-96527597D01*
X115525404Y-96446784D01*
X115525404Y-96392910D01*
X115552341Y-96312097D01*
X114086158Y-92498155D02*
X114005346Y-92525093D01*
X113924534Y-92605905D01*
X113870659Y-92713654D01*
X113870659Y-92821404D01*
X113897597Y-92902216D01*
X113978409Y-93036903D01*
X114059221Y-93117715D01*
X114193908Y-93198528D01*
X114274720Y-93225465D01*
X114382470Y-93225465D01*
X114490219Y-93171590D01*
X114544094Y-93117715D01*
X114597969Y-93009966D01*
X114597969Y-92956091D01*
X114409407Y-92767529D01*
X114301658Y-92875279D01*
X114894280Y-92767529D02*
X114328595Y-92201844D01*
X115217529Y-92444280D01*
X114651844Y-91878595D01*
X115486903Y-92174906D02*
X114921218Y-91609221D01*
X115055905Y-91474534D01*
X115163654Y-91420659D01*
X115271404Y-91420659D01*
X115352216Y-91447597D01*
X115486903Y-91528409D01*
X115567715Y-91609221D01*
X115648528Y-91743908D01*
X115675465Y-91824720D01*
X115675465Y-91932470D01*
X115621590Y-92040219D01*
X115486903Y-92174906D01*
X88513096Y-74691218D02*
X88432284Y-74718155D01*
X88351471Y-74798967D01*
X88297597Y-74906717D01*
X88297597Y-75014467D01*
X88324534Y-75095279D01*
X88405346Y-75229966D01*
X88486158Y-75310778D01*
X88620845Y-75391590D01*
X88701658Y-75418528D01*
X88809407Y-75418528D01*
X88917157Y-75364653D01*
X88971032Y-75310778D01*
X89024906Y-75203028D01*
X89024906Y-75149154D01*
X88836345Y-74960592D01*
X88728595Y-75068341D01*
X89321218Y-74960592D02*
X88755532Y-74394906D01*
X88971032Y-74179407D01*
X89051844Y-74152470D01*
X89105719Y-74152470D01*
X89186531Y-74179407D01*
X89267343Y-74260219D01*
X89294280Y-74341032D01*
X89294280Y-74394906D01*
X89267343Y-74475719D01*
X89051844Y-74691218D01*
X89752216Y-73775346D02*
X90129340Y-74152470D01*
X89402030Y-73694534D02*
X89671404Y-74233282D01*
X90021590Y-73883096D01*
X113922131Y-69958308D02*
X114272317Y-69608122D01*
X114299255Y-70012183D01*
X114380067Y-69931370D01*
X114460879Y-69904433D01*
X114514754Y-69904433D01*
X114595566Y-69931370D01*
X114730253Y-70066057D01*
X114757190Y-70146870D01*
X114757190Y-70200744D01*
X114730253Y-70281557D01*
X114568629Y-70443181D01*
X114487816Y-70470118D01*
X114433942Y-70470118D01*
X114433942Y-69446497D02*
X115188189Y-69823621D01*
X114811065Y-69069374D01*
X114945752Y-68934687D02*
X115295938Y-68584500D01*
X115322876Y-68988561D01*
X115403688Y-68907749D01*
X115484500Y-68880812D01*
X115538375Y-68880812D01*
X115619187Y-68907749D01*
X115753874Y-69042436D01*
X115780812Y-69123248D01*
X115780812Y-69177123D01*
X115753874Y-69257935D01*
X115592250Y-69419560D01*
X115511438Y-69446497D01*
X115457563Y-69446497D01*
X116023248Y-69096311D02*
X116454247Y-68665312D01*
X116238748Y-68180439D02*
X116427309Y-67991877D01*
X116804433Y-68207377D02*
X116535059Y-68476751D01*
X115969374Y-67911065D01*
X116238748Y-67641691D01*
X117046870Y-67964940D02*
X116481184Y-67399255D01*
X117370118Y-67641691D01*
X116804433Y-67076006D01*
X88513096Y-87391218D02*
X88432284Y-87418155D01*
X88351471Y-87498967D01*
X88297597Y-87606717D01*
X88297597Y-87714467D01*
X88324534Y-87795279D01*
X88405346Y-87929966D01*
X88486158Y-88010778D01*
X88620845Y-88091590D01*
X88701658Y-88118528D01*
X88809407Y-88118528D01*
X88917157Y-88064653D01*
X88971032Y-88010778D01*
X89024906Y-87903028D01*
X89024906Y-87849154D01*
X88836345Y-87660592D01*
X88728595Y-87768341D01*
X89321218Y-87660592D02*
X88755532Y-87094906D01*
X88971032Y-86879407D01*
X89051844Y-86852470D01*
X89105719Y-86852470D01*
X89186531Y-86879407D01*
X89267343Y-86960219D01*
X89294280Y-87041032D01*
X89294280Y-87094906D01*
X89267343Y-87175719D01*
X89051844Y-87391218D01*
X89644467Y-86690845D02*
X89563654Y-86717783D01*
X89509780Y-86717783D01*
X89428967Y-86690845D01*
X89402030Y-86663908D01*
X89375093Y-86583096D01*
X89375093Y-86529221D01*
X89402030Y-86448409D01*
X89509780Y-86340659D01*
X89590592Y-86313722D01*
X89644467Y-86313722D01*
X89725279Y-86340659D01*
X89752216Y-86367597D01*
X89779154Y-86448409D01*
X89779154Y-86502284D01*
X89752216Y-86583096D01*
X89644467Y-86690845D01*
X89617529Y-86771658D01*
X89617529Y-86825532D01*
X89644467Y-86906345D01*
X89752216Y-87014094D01*
X89833028Y-87041032D01*
X89886903Y-87041032D01*
X89967715Y-87014094D01*
X90075465Y-86906345D01*
X90102402Y-86825532D01*
X90102402Y-86771658D01*
X90075465Y-86690845D01*
X89967715Y-86583096D01*
X89886903Y-86556158D01*
X89833028Y-86556158D01*
X89752216Y-86583096D01*
X94490476Y-112523809D02*
X94604761Y-112561904D01*
X94795238Y-112561904D01*
X94871428Y-112523809D01*
X94909523Y-112485714D01*
X94947619Y-112409523D01*
X94947619Y-112333333D01*
X94909523Y-112257142D01*
X94871428Y-112219047D01*
X94795238Y-112180952D01*
X94642857Y-112142857D01*
X94566666Y-112104761D01*
X94528571Y-112066666D01*
X94490476Y-111990476D01*
X94490476Y-111914285D01*
X94528571Y-111838095D01*
X94566666Y-111800000D01*
X94642857Y-111761904D01*
X94833333Y-111761904D01*
X94947619Y-111800000D01*
X95214285Y-111761904D02*
X95404761Y-112561904D01*
X95557142Y-111990476D01*
X95709523Y-112561904D01*
X95900000Y-111761904D01*
X96661904Y-112485714D02*
X96623809Y-112523809D01*
X96509523Y-112561904D01*
X96433333Y-112561904D01*
X96319047Y-112523809D01*
X96242857Y-112447619D01*
X96204761Y-112371428D01*
X96166666Y-112219047D01*
X96166666Y-112104761D01*
X96204761Y-111952380D01*
X96242857Y-111876190D01*
X96319047Y-111800000D01*
X96433333Y-111761904D01*
X96509523Y-111761904D01*
X96623809Y-111800000D01*
X96661904Y-111838095D01*
X97385714Y-112561904D02*
X97004761Y-112561904D01*
X97004761Y-111761904D01*
X97652380Y-112561904D02*
X97652380Y-111761904D01*
X98109523Y-112561904D02*
X97766666Y-112104761D01*
X98109523Y-111761904D02*
X97652380Y-112219047D01*
X88613096Y-84821218D02*
X88532284Y-84848155D01*
X88451471Y-84928967D01*
X88397597Y-85036717D01*
X88397597Y-85144467D01*
X88424534Y-85225279D01*
X88505346Y-85359966D01*
X88586158Y-85440778D01*
X88720845Y-85521590D01*
X88801658Y-85548528D01*
X88909407Y-85548528D01*
X89017157Y-85494653D01*
X89071032Y-85440778D01*
X89124906Y-85333028D01*
X89124906Y-85279154D01*
X88936345Y-85090592D01*
X88828595Y-85198341D01*
X89421218Y-85090592D02*
X88855532Y-84524906D01*
X89071032Y-84309407D01*
X89151844Y-84282470D01*
X89205719Y-84282470D01*
X89286531Y-84309407D01*
X89367343Y-84390219D01*
X89394280Y-84471032D01*
X89394280Y-84524906D01*
X89367343Y-84605719D01*
X89151844Y-84821218D01*
X89367343Y-84013096D02*
X89744467Y-83635972D01*
X90067715Y-84444094D01*
X114154788Y-75533773D02*
X114424162Y-75264399D01*
X114262537Y-75749272D02*
X113885414Y-74995025D01*
X114639661Y-75372149D01*
X114828223Y-75183587D02*
X114262537Y-74617902D01*
X114397224Y-74483215D01*
X114504974Y-74429340D01*
X114612723Y-74429340D01*
X114693536Y-74456277D01*
X114828223Y-74537089D01*
X114909035Y-74617902D01*
X114989847Y-74752589D01*
X115016784Y-74833401D01*
X115016784Y-74941150D01*
X114962910Y-75048900D01*
X114828223Y-75183587D01*
X115663282Y-74240778D02*
X115663282Y-74294653D01*
X115609407Y-74402402D01*
X115555532Y-74456277D01*
X115447783Y-74510152D01*
X115340033Y-74510152D01*
X115259221Y-74483215D01*
X115124534Y-74402402D01*
X115043722Y-74321590D01*
X114962910Y-74186903D01*
X114935972Y-74106091D01*
X114935972Y-73998341D01*
X114989847Y-73890592D01*
X115043722Y-73836717D01*
X115151471Y-73782842D01*
X115205346Y-73782842D01*
X115878781Y-74240778D02*
X116309780Y-73809780D01*
X115744094Y-73136345D02*
X116498341Y-73513468D01*
X116121218Y-72759221D01*
X117198714Y-72813096D02*
X116740778Y-72732284D01*
X116875465Y-73136345D02*
X116309780Y-72570659D01*
X116525279Y-72355160D01*
X116606091Y-72328223D01*
X116659966Y-72328223D01*
X116740778Y-72355160D01*
X116821590Y-72435972D01*
X116848528Y-72516784D01*
X116848528Y-72570659D01*
X116821590Y-72651471D01*
X116606091Y-72866971D01*
X117144839Y-72274348D02*
X117333401Y-72085786D01*
X117710524Y-72301285D02*
X117441150Y-72570659D01*
X116875465Y-72004974D01*
X117144839Y-71735600D01*
X117845211Y-71573975D02*
X117656650Y-71762537D01*
X117952961Y-72058849D02*
X117387276Y-71493163D01*
X117656650Y-71223789D01*
X88513096Y-72151218D02*
X88432284Y-72178155D01*
X88351471Y-72258967D01*
X88297597Y-72366717D01*
X88297597Y-72474467D01*
X88324534Y-72555279D01*
X88405346Y-72689966D01*
X88486158Y-72770778D01*
X88620845Y-72851590D01*
X88701658Y-72878528D01*
X88809407Y-72878528D01*
X88917157Y-72824653D01*
X88971032Y-72770778D01*
X89024906Y-72663028D01*
X89024906Y-72609154D01*
X88836345Y-72420592D01*
X88728595Y-72528341D01*
X89321218Y-72420592D02*
X88755532Y-71854906D01*
X88971032Y-71639407D01*
X89051844Y-71612470D01*
X89105719Y-71612470D01*
X89186531Y-71639407D01*
X89267343Y-71720219D01*
X89294280Y-71801032D01*
X89294280Y-71854906D01*
X89267343Y-71935719D01*
X89051844Y-72151218D01*
X89267343Y-71343096D02*
X89617529Y-70992910D01*
X89644467Y-71396971D01*
X89725279Y-71316158D01*
X89806091Y-71289221D01*
X89859966Y-71289221D01*
X89940778Y-71316158D01*
X90075465Y-71450845D01*
X90102402Y-71531658D01*
X90102402Y-71585532D01*
X90075465Y-71666345D01*
X89913841Y-71827969D01*
X89833028Y-71854906D01*
X89779154Y-71854906D01*
X87843722Y-97820592D02*
X87762910Y-97847529D01*
X87682097Y-97928341D01*
X87628223Y-98036091D01*
X87628223Y-98143841D01*
X87655160Y-98224653D01*
X87735972Y-98359340D01*
X87816784Y-98440152D01*
X87951471Y-98520964D01*
X88032284Y-98547902D01*
X88140033Y-98547902D01*
X88247783Y-98494027D01*
X88301658Y-98440152D01*
X88355532Y-98332402D01*
X88355532Y-98278528D01*
X88166971Y-98089966D01*
X88059221Y-98197715D01*
X88651844Y-98089966D02*
X88086158Y-97524280D01*
X88301658Y-97308781D01*
X88382470Y-97281844D01*
X88436345Y-97281844D01*
X88517157Y-97308781D01*
X88597969Y-97389593D01*
X88624906Y-97470406D01*
X88624906Y-97524280D01*
X88597969Y-97605093D01*
X88382470Y-97820592D01*
X89513841Y-97227969D02*
X89190592Y-97551218D01*
X89352216Y-97389593D02*
X88786531Y-96823908D01*
X88813468Y-96958595D01*
X88813468Y-97066345D01*
X88786531Y-97147157D01*
X90052589Y-96689221D02*
X89729340Y-97012470D01*
X89890964Y-96850845D02*
X89325279Y-96285160D01*
X89352216Y-96419847D01*
X89352216Y-96527597D01*
X89325279Y-96608409D01*
X114097722Y-85120592D02*
X114016910Y-85147529D01*
X113936097Y-85228341D01*
X113882223Y-85336091D01*
X113882223Y-85443841D01*
X113909160Y-85524653D01*
X113989972Y-85659340D01*
X114070784Y-85740152D01*
X114205471Y-85820964D01*
X114286284Y-85847902D01*
X114394033Y-85847902D01*
X114501783Y-85794027D01*
X114555658Y-85740152D01*
X114609532Y-85632402D01*
X114609532Y-85578528D01*
X114420971Y-85389966D01*
X114313221Y-85497715D01*
X114905844Y-85389966D02*
X114340158Y-84824280D01*
X114555658Y-84608781D01*
X114636470Y-84581844D01*
X114690345Y-84581844D01*
X114771157Y-84608781D01*
X114851969Y-84689593D01*
X114878906Y-84770406D01*
X114878906Y-84824280D01*
X114851969Y-84905093D01*
X114636470Y-85120592D01*
X114932781Y-84339407D02*
X114932781Y-84285532D01*
X114959719Y-84204720D01*
X115094406Y-84070033D01*
X115175218Y-84043096D01*
X115229093Y-84043096D01*
X115309905Y-84070033D01*
X115363780Y-84123908D01*
X115417654Y-84231658D01*
X115417654Y-84878155D01*
X115767841Y-84527969D01*
X115687028Y-83477410D02*
X115579279Y-83585160D01*
X115552341Y-83665972D01*
X115552341Y-83719847D01*
X115579279Y-83854534D01*
X115660091Y-83989221D01*
X115875590Y-84204720D01*
X115956402Y-84231658D01*
X116010277Y-84231658D01*
X116091089Y-84204720D01*
X116198839Y-84096971D01*
X116225776Y-84016158D01*
X116225776Y-83962284D01*
X116198839Y-83881471D01*
X116064152Y-83746784D01*
X115983340Y-83719847D01*
X115929465Y-83719847D01*
X115848653Y-83746784D01*
X115740903Y-83854534D01*
X115713966Y-83935346D01*
X115713966Y-83989221D01*
X115740903Y-84070033D01*
X114838375Y-87943435D02*
X114380439Y-87862622D01*
X114515126Y-88266683D02*
X113949441Y-87700998D01*
X114164940Y-87485499D01*
X114245752Y-87458561D01*
X114299627Y-87458561D01*
X114380439Y-87485499D01*
X114461251Y-87566311D01*
X114488189Y-87647123D01*
X114488189Y-87700998D01*
X114461251Y-87781810D01*
X114245752Y-87997309D01*
X114515126Y-87135312D02*
X114973062Y-87593248D01*
X115053874Y-87620186D01*
X115107749Y-87620186D01*
X115188561Y-87593248D01*
X115296311Y-87485499D01*
X115323248Y-87404687D01*
X115323248Y-87350812D01*
X115296311Y-87270000D01*
X114838375Y-86812064D01*
X115673435Y-87108375D02*
X115107749Y-86542690D01*
X115996683Y-86785126D01*
X115430998Y-86219441D01*
X114097722Y-102900592D02*
X114016910Y-102927529D01*
X113936097Y-103008341D01*
X113882223Y-103116091D01*
X113882223Y-103223841D01*
X113909160Y-103304653D01*
X113989972Y-103439340D01*
X114070784Y-103520152D01*
X114205471Y-103600964D01*
X114286284Y-103627902D01*
X114394033Y-103627902D01*
X114501783Y-103574027D01*
X114555658Y-103520152D01*
X114609532Y-103412402D01*
X114609532Y-103358528D01*
X114420971Y-103169966D01*
X114313221Y-103277715D01*
X114905844Y-103169966D02*
X114340158Y-102604280D01*
X114555658Y-102388781D01*
X114636470Y-102361844D01*
X114690345Y-102361844D01*
X114771157Y-102388781D01*
X114851969Y-102469593D01*
X114878906Y-102550406D01*
X114878906Y-102604280D01*
X114851969Y-102685093D01*
X114636470Y-102900592D01*
X115767841Y-102307969D02*
X115444592Y-102631218D01*
X115606216Y-102469593D02*
X115040531Y-101903908D01*
X115067468Y-102038595D01*
X115067468Y-102146345D01*
X115040531Y-102227157D01*
X115767841Y-101661471D02*
X115687028Y-101688409D01*
X115633154Y-101688409D01*
X115552341Y-101661471D01*
X115525404Y-101634534D01*
X115498467Y-101553722D01*
X115498467Y-101499847D01*
X115525404Y-101419035D01*
X115633154Y-101311285D01*
X115713966Y-101284348D01*
X115767841Y-101284348D01*
X115848653Y-101311285D01*
X115875590Y-101338223D01*
X115902528Y-101419035D01*
X115902528Y-101472910D01*
X115875590Y-101553722D01*
X115767841Y-101661471D01*
X115740903Y-101742284D01*
X115740903Y-101796158D01*
X115767841Y-101876971D01*
X115875590Y-101984720D01*
X115956402Y-102011658D01*
X116010277Y-102011658D01*
X116091089Y-101984720D01*
X116198839Y-101876971D01*
X116225776Y-101796158D01*
X116225776Y-101742284D01*
X116198839Y-101661471D01*
X116091089Y-101553722D01*
X116010277Y-101526784D01*
X115956402Y-101526784D01*
X115875590Y-101553722D01*
X88486158Y-105198155D02*
X88405346Y-105225093D01*
X88324534Y-105305905D01*
X88270659Y-105413654D01*
X88270659Y-105521404D01*
X88297597Y-105602216D01*
X88378409Y-105736903D01*
X88459221Y-105817715D01*
X88593908Y-105898528D01*
X88674720Y-105925465D01*
X88782470Y-105925465D01*
X88890219Y-105871590D01*
X88944094Y-105817715D01*
X88997969Y-105709966D01*
X88997969Y-105656091D01*
X88809407Y-105467529D01*
X88701658Y-105575279D01*
X89294280Y-105467529D02*
X88728595Y-104901844D01*
X89617529Y-105144280D01*
X89051844Y-104578595D01*
X89886903Y-104874906D02*
X89321218Y-104309221D01*
X89455905Y-104174534D01*
X89563654Y-104120659D01*
X89671404Y-104120659D01*
X89752216Y-104147597D01*
X89886903Y-104228409D01*
X89967715Y-104309221D01*
X90048528Y-104443908D01*
X90075465Y-104524720D01*
X90075465Y-104632470D01*
X90021590Y-104740219D01*
X89886903Y-104874906D01*
X88513096Y-77231218D02*
X88432284Y-77258155D01*
X88351471Y-77338967D01*
X88297597Y-77446717D01*
X88297597Y-77554467D01*
X88324534Y-77635279D01*
X88405346Y-77769966D01*
X88486158Y-77850778D01*
X88620845Y-77931590D01*
X88701658Y-77958528D01*
X88809407Y-77958528D01*
X88917157Y-77904653D01*
X88971032Y-77850778D01*
X89024906Y-77743028D01*
X89024906Y-77689154D01*
X88836345Y-77500592D01*
X88728595Y-77608341D01*
X89321218Y-77500592D02*
X88755532Y-76934906D01*
X88971032Y-76719407D01*
X89051844Y-76692470D01*
X89105719Y-76692470D01*
X89186531Y-76719407D01*
X89267343Y-76800219D01*
X89294280Y-76881032D01*
X89294280Y-76934906D01*
X89267343Y-77015719D01*
X89051844Y-77231218D01*
X89590592Y-76099847D02*
X89321218Y-76369221D01*
X89563654Y-76665532D01*
X89563654Y-76611658D01*
X89590592Y-76530845D01*
X89725279Y-76396158D01*
X89806091Y-76369221D01*
X89859966Y-76369221D01*
X89940778Y-76396158D01*
X90075465Y-76530845D01*
X90102402Y-76611658D01*
X90102402Y-76665532D01*
X90075465Y-76746345D01*
X89940778Y-76881032D01*
X89859966Y-76907969D01*
X89806091Y-76907969D01*
X114151597Y-80740964D02*
X114420971Y-80471590D01*
X114259346Y-80956463D02*
X113882223Y-80202216D01*
X114636470Y-80579340D01*
X114582595Y-79555719D02*
X114501783Y-79582656D01*
X114420971Y-79663468D01*
X114367096Y-79771218D01*
X114367096Y-79878967D01*
X114394033Y-79959780D01*
X114474845Y-80094467D01*
X114555658Y-80175279D01*
X114690345Y-80256091D01*
X114771157Y-80283028D01*
X114878906Y-80283028D01*
X114986656Y-80229154D01*
X115040531Y-80175279D01*
X115094406Y-80067529D01*
X115094406Y-80013654D01*
X114905844Y-79825093D01*
X114798094Y-79932842D01*
X115390717Y-79825093D02*
X114825032Y-79259407D01*
X115713966Y-79501844D01*
X115148280Y-78936158D01*
X115983340Y-79232470D02*
X115417654Y-78666784D01*
X115552341Y-78532097D01*
X115660091Y-78478223D01*
X115767841Y-78478223D01*
X115848653Y-78505160D01*
X115983340Y-78585972D01*
X116064152Y-78666784D01*
X116144964Y-78801471D01*
X116171902Y-78882284D01*
X116171902Y-78990033D01*
X116118027Y-79097783D01*
X115983340Y-79232470D01*
X88413096Y-69611218D02*
X88332284Y-69638155D01*
X88251471Y-69718967D01*
X88197597Y-69826717D01*
X88197597Y-69934467D01*
X88224534Y-70015279D01*
X88305346Y-70149966D01*
X88386158Y-70230778D01*
X88520845Y-70311590D01*
X88601658Y-70338528D01*
X88709407Y-70338528D01*
X88817157Y-70284653D01*
X88871032Y-70230778D01*
X88924906Y-70123028D01*
X88924906Y-70069154D01*
X88736345Y-69880592D01*
X88628595Y-69988341D01*
X89221218Y-69880592D02*
X88655532Y-69314906D01*
X88871032Y-69099407D01*
X88951844Y-69072470D01*
X89005719Y-69072470D01*
X89086531Y-69099407D01*
X89167343Y-69180219D01*
X89194280Y-69261032D01*
X89194280Y-69314906D01*
X89167343Y-69395719D01*
X88951844Y-69611218D01*
X89248155Y-68830033D02*
X89248155Y-68776158D01*
X89275093Y-68695346D01*
X89409780Y-68560659D01*
X89490592Y-68533722D01*
X89544467Y-68533722D01*
X89625279Y-68560659D01*
X89679154Y-68614534D01*
X89733028Y-68722284D01*
X89733028Y-69368781D01*
X90083215Y-69018595D01*
X87843722Y-100360592D02*
X87762910Y-100387529D01*
X87682097Y-100468341D01*
X87628223Y-100576091D01*
X87628223Y-100683841D01*
X87655160Y-100764653D01*
X87735972Y-100899340D01*
X87816784Y-100980152D01*
X87951471Y-101060964D01*
X88032284Y-101087902D01*
X88140033Y-101087902D01*
X88247783Y-101034027D01*
X88301658Y-100980152D01*
X88355532Y-100872402D01*
X88355532Y-100818528D01*
X88166971Y-100629966D01*
X88059221Y-100737715D01*
X88651844Y-100629966D02*
X88086158Y-100064280D01*
X88301658Y-99848781D01*
X88382470Y-99821844D01*
X88436345Y-99821844D01*
X88517157Y-99848781D01*
X88597969Y-99929593D01*
X88624906Y-100010406D01*
X88624906Y-100064280D01*
X88597969Y-100145093D01*
X88382470Y-100360592D01*
X89513841Y-99767969D02*
X89190592Y-100091218D01*
X89352216Y-99929593D02*
X88786531Y-99363908D01*
X88813468Y-99498595D01*
X88813468Y-99606345D01*
X88786531Y-99687157D01*
X89217529Y-99040659D02*
X89217529Y-98986784D01*
X89244467Y-98905972D01*
X89379154Y-98771285D01*
X89459966Y-98744348D01*
X89513841Y-98744348D01*
X89594653Y-98771285D01*
X89648528Y-98825160D01*
X89702402Y-98932910D01*
X89702402Y-99579407D01*
X90052589Y-99229221D01*
X114097722Y-110520592D02*
X114016910Y-110547529D01*
X113936097Y-110628341D01*
X113882223Y-110736091D01*
X113882223Y-110843841D01*
X113909160Y-110924653D01*
X113989972Y-111059340D01*
X114070784Y-111140152D01*
X114205471Y-111220964D01*
X114286284Y-111247902D01*
X114394033Y-111247902D01*
X114501783Y-111194027D01*
X114555658Y-111140152D01*
X114609532Y-111032402D01*
X114609532Y-110978528D01*
X114420971Y-110789966D01*
X114313221Y-110897715D01*
X114905844Y-110789966D02*
X114340158Y-110224280D01*
X114555658Y-110008781D01*
X114636470Y-109981844D01*
X114690345Y-109981844D01*
X114771157Y-110008781D01*
X114851969Y-110089593D01*
X114878906Y-110170406D01*
X114878906Y-110224280D01*
X114851969Y-110305093D01*
X114636470Y-110520592D01*
X115767841Y-109927969D02*
X115444592Y-110251218D01*
X115606216Y-110089593D02*
X115040531Y-109523908D01*
X115067468Y-109658595D01*
X115067468Y-109766345D01*
X115040531Y-109847157D01*
X115687028Y-108877410D02*
X115579279Y-108985160D01*
X115552341Y-109065972D01*
X115552341Y-109119847D01*
X115579279Y-109254534D01*
X115660091Y-109389221D01*
X115875590Y-109604720D01*
X115956402Y-109631658D01*
X116010277Y-109631658D01*
X116091089Y-109604720D01*
X116198839Y-109496971D01*
X116225776Y-109416158D01*
X116225776Y-109362284D01*
X116198839Y-109281471D01*
X116064152Y-109146784D01*
X115983340Y-109119847D01*
X115929465Y-109119847D01*
X115848653Y-109146784D01*
X115740903Y-109254534D01*
X115713966Y-109335346D01*
X115713966Y-109389221D01*
X115740903Y-109470033D01*
X114097722Y-77246592D02*
X114016910Y-77273529D01*
X113936097Y-77354341D01*
X113882223Y-77462091D01*
X113882223Y-77569841D01*
X113909160Y-77650653D01*
X113989972Y-77785340D01*
X114070784Y-77866152D01*
X114205471Y-77946964D01*
X114286284Y-77973902D01*
X114394033Y-77973902D01*
X114501783Y-77920027D01*
X114555658Y-77866152D01*
X114609532Y-77758402D01*
X114609532Y-77704528D01*
X114420971Y-77515966D01*
X114313221Y-77623715D01*
X114905844Y-77515966D02*
X114340158Y-76950280D01*
X114555658Y-76734781D01*
X114636470Y-76707844D01*
X114690345Y-76707844D01*
X114771157Y-76734781D01*
X114851969Y-76815593D01*
X114878906Y-76896406D01*
X114878906Y-76950280D01*
X114851969Y-77031093D01*
X114636470Y-77246592D01*
X114932781Y-76465407D02*
X114932781Y-76411532D01*
X114959719Y-76330720D01*
X115094406Y-76196033D01*
X115175218Y-76169096D01*
X115229093Y-76169096D01*
X115309905Y-76196033D01*
X115363780Y-76249908D01*
X115417654Y-76357658D01*
X115417654Y-77004155D01*
X115767841Y-76653969D01*
X115767841Y-76007471D02*
X115687028Y-76034409D01*
X115633154Y-76034409D01*
X115552341Y-76007471D01*
X115525404Y-75980534D01*
X115498467Y-75899722D01*
X115498467Y-75845847D01*
X115525404Y-75765035D01*
X115633154Y-75657285D01*
X115713966Y-75630348D01*
X115767841Y-75630348D01*
X115848653Y-75657285D01*
X115875590Y-75684223D01*
X115902528Y-75765035D01*
X115902528Y-75818910D01*
X115875590Y-75899722D01*
X115767841Y-76007471D01*
X115740903Y-76088284D01*
X115740903Y-76142158D01*
X115767841Y-76222971D01*
X115875590Y-76330720D01*
X115956402Y-76357658D01*
X116010277Y-76357658D01*
X116091089Y-76330720D01*
X116198839Y-76222971D01*
X116225776Y-76142158D01*
X116225776Y-76088284D01*
X116198839Y-76007471D01*
X116091089Y-75899722D01*
X116010277Y-75872784D01*
X115956402Y-75872784D01*
X115875590Y-75899722D01*
X114097722Y-82590592D02*
X114016910Y-82617529D01*
X113936097Y-82698341D01*
X113882223Y-82806091D01*
X113882223Y-82913841D01*
X113909160Y-82994653D01*
X113989972Y-83129340D01*
X114070784Y-83210152D01*
X114205471Y-83290964D01*
X114286284Y-83317902D01*
X114394033Y-83317902D01*
X114501783Y-83264027D01*
X114555658Y-83210152D01*
X114609532Y-83102402D01*
X114609532Y-83048528D01*
X114420971Y-82859966D01*
X114313221Y-82967715D01*
X114905844Y-82859966D02*
X114340158Y-82294280D01*
X114555658Y-82078781D01*
X114636470Y-82051844D01*
X114690345Y-82051844D01*
X114771157Y-82078781D01*
X114851969Y-82159593D01*
X114878906Y-82240406D01*
X114878906Y-82294280D01*
X114851969Y-82375093D01*
X114636470Y-82590592D01*
X114932781Y-81809407D02*
X114932781Y-81755532D01*
X114959719Y-81674720D01*
X115094406Y-81540033D01*
X115175218Y-81513096D01*
X115229093Y-81513096D01*
X115309905Y-81540033D01*
X115363780Y-81593908D01*
X115417654Y-81701658D01*
X115417654Y-82348155D01*
X115767841Y-81997969D01*
X115390717Y-81243722D02*
X115767841Y-80866598D01*
X116091089Y-81674720D01*
X88413096Y-64521218D02*
X88332284Y-64548155D01*
X88251471Y-64628967D01*
X88197597Y-64736717D01*
X88197597Y-64844467D01*
X88224534Y-64925279D01*
X88305346Y-65059966D01*
X88386158Y-65140778D01*
X88520845Y-65221590D01*
X88601658Y-65248528D01*
X88709407Y-65248528D01*
X88817157Y-65194653D01*
X88871032Y-65140778D01*
X88924906Y-65033028D01*
X88924906Y-64979154D01*
X88736345Y-64790592D01*
X88628595Y-64898341D01*
X89221218Y-64790592D02*
X88655532Y-64224906D01*
X88871032Y-64009407D01*
X88951844Y-63982470D01*
X89005719Y-63982470D01*
X89086531Y-64009407D01*
X89167343Y-64090219D01*
X89194280Y-64171032D01*
X89194280Y-64224906D01*
X89167343Y-64305719D01*
X88951844Y-64521218D01*
X90083215Y-63928595D02*
X89759966Y-64251844D01*
X89921590Y-64090219D02*
X89355905Y-63524534D01*
X89382842Y-63659221D01*
X89382842Y-63766971D01*
X89355905Y-63847783D01*
%TO.C,J9*%
X101428571Y-119107142D02*
X102571428Y-119107142D01*
X102000000Y-119678571D02*
X102000000Y-118535714D01*
X114428571Y-119107142D02*
X115571428Y-119107142D01*
%TO.C,J11*%
X114428571Y-127107142D02*
X115571428Y-127107142D01*
X101428571Y-127107142D02*
X102571428Y-127107142D01*
X102000000Y-127678571D02*
X102000000Y-126535714D01*
%TO.C,J8*%
X114428571Y-135107142D02*
X115571428Y-135107142D01*
X101428571Y-135107142D02*
X102571428Y-135107142D01*
X102000000Y-135678571D02*
X102000000Y-134535714D01*
%TO.C,J12*%
X74940476Y-122902380D02*
X74940476Y-123616666D01*
X74892857Y-123759523D01*
X74797619Y-123854761D01*
X74654761Y-123902380D01*
X74559523Y-123902380D01*
X75940476Y-123902380D02*
X75369047Y-123902380D01*
X75654761Y-123902380D02*
X75654761Y-122902380D01*
X75559523Y-123045238D01*
X75464285Y-123140476D01*
X75369047Y-123188095D01*
X76321428Y-122997619D02*
X76369047Y-122950000D01*
X76464285Y-122902380D01*
X76702380Y-122902380D01*
X76797619Y-122950000D01*
X76845238Y-122997619D01*
X76892857Y-123092857D01*
X76892857Y-123188095D01*
X76845238Y-123330952D01*
X76273809Y-123902380D01*
X76892857Y-123902380D01*
%TO.C,D6*%
X95261904Y-115452380D02*
X95261904Y-114452380D01*
X95500000Y-114452380D01*
X95642857Y-114500000D01*
X95738095Y-114595238D01*
X95785714Y-114690476D01*
X95833333Y-114880952D01*
X95833333Y-115023809D01*
X95785714Y-115214285D01*
X95738095Y-115309523D01*
X95642857Y-115404761D01*
X95500000Y-115452380D01*
X95261904Y-115452380D01*
X96690476Y-114452380D02*
X96500000Y-114452380D01*
X96404761Y-114500000D01*
X96357142Y-114547619D01*
X96261904Y-114690476D01*
X96214285Y-114880952D01*
X96214285Y-115261904D01*
X96261904Y-115357142D01*
X96309523Y-115404761D01*
X96404761Y-115452380D01*
X96595238Y-115452380D01*
X96690476Y-115404761D01*
X96738095Y-115357142D01*
X96785714Y-115261904D01*
X96785714Y-115023809D01*
X96738095Y-114928571D01*
X96690476Y-114880952D01*
X96595238Y-114833333D01*
X96404761Y-114833333D01*
X96309523Y-114880952D01*
X96261904Y-114928571D01*
X96214285Y-115023809D01*
%TO.C,J10*%
X114428571Y-142857142D02*
X115571428Y-142857142D01*
X101428571Y-142857142D02*
X102571428Y-142857142D01*
X102000000Y-143428571D02*
X102000000Y-142285714D01*
%TO.C,U2*%
X84188095Y-143952380D02*
X84188095Y-144761904D01*
X84235714Y-144857142D01*
X84283333Y-144904761D01*
X84378571Y-144952380D01*
X84569047Y-144952380D01*
X84664285Y-144904761D01*
X84711904Y-144857142D01*
X84759523Y-144761904D01*
X84759523Y-143952380D01*
X85188095Y-144047619D02*
X85235714Y-144000000D01*
X85330952Y-143952380D01*
X85569047Y-143952380D01*
X85664285Y-144000000D01*
X85711904Y-144047619D01*
X85759523Y-144142857D01*
X85759523Y-144238095D01*
X85711904Y-144380952D01*
X85140476Y-144952380D01*
X85759523Y-144952380D01*
%TO.C,D5*%
X84561904Y-132952380D02*
X84561904Y-131952380D01*
X84800000Y-131952380D01*
X84942857Y-132000000D01*
X85038095Y-132095238D01*
X85085714Y-132190476D01*
X85133333Y-132380952D01*
X85133333Y-132523809D01*
X85085714Y-132714285D01*
X85038095Y-132809523D01*
X84942857Y-132904761D01*
X84800000Y-132952380D01*
X84561904Y-132952380D01*
X86038095Y-131952380D02*
X85561904Y-131952380D01*
X85514285Y-132428571D01*
X85561904Y-132380952D01*
X85657142Y-132333333D01*
X85895238Y-132333333D01*
X85990476Y-132380952D01*
X86038095Y-132428571D01*
X86085714Y-132523809D01*
X86085714Y-132761904D01*
X86038095Y-132857142D01*
X85990476Y-132904761D01*
X85895238Y-132952380D01*
X85657142Y-132952380D01*
X85561904Y-132904761D01*
X85514285Y-132857142D01*
%TO.C,J7*%
X101428571Y-152607142D02*
X102571428Y-152607142D01*
X102000000Y-153178571D02*
X102000000Y-152035714D01*
X114428571Y-152607142D02*
X115571428Y-152607142D01*
%TO.C,D4*%
X93011904Y-156202380D02*
X93011904Y-155202380D01*
X93250000Y-155202380D01*
X93392857Y-155250000D01*
X93488095Y-155345238D01*
X93535714Y-155440476D01*
X93583333Y-155630952D01*
X93583333Y-155773809D01*
X93535714Y-155964285D01*
X93488095Y-156059523D01*
X93392857Y-156154761D01*
X93250000Y-156202380D01*
X93011904Y-156202380D01*
X94440476Y-155535714D02*
X94440476Y-156202380D01*
X94202380Y-155154761D02*
X93964285Y-155869047D01*
X94583333Y-155869047D01*
D13*
%TO.C,U3*%
X88050000Y-132200000D02*
X88050000Y-130390000D01*
X88050000Y-121800000D02*
X88050000Y-123610000D01*
X89550000Y-132200000D02*
X88050000Y-132200000D01*
X89550000Y-121800000D02*
X88050000Y-121800000D01*
X88050000Y-130390000D02*
X86950000Y-130390000D01*
X88050000Y-123610000D02*
X82925000Y-123610000D01*
%TO.C,U1*%
X91500000Y-103600000D02*
X91500000Y-104000000D01*
X91500000Y-90900000D02*
X91500000Y-91300000D01*
X112500000Y-108700000D02*
X112500000Y-109100000D01*
X112500000Y-111500000D02*
X105700000Y-111500000D01*
X91500000Y-78200000D02*
X91500000Y-78600000D01*
X91500000Y-93400000D02*
X91500000Y-93800000D01*
X112500000Y-78200000D02*
X112500000Y-78600000D01*
X100500000Y-111500000D02*
X100900000Y-111500000D01*
X112500000Y-98500000D02*
X112500000Y-98900000D01*
X91500000Y-75600000D02*
X91500000Y-76000000D01*
X112500000Y-65500000D02*
X112500000Y-65900000D01*
X91500000Y-60500000D02*
X91500000Y-60800000D01*
X112500000Y-73100000D02*
X112500000Y-73500000D01*
X91500000Y-96000000D02*
X91500000Y-96400000D01*
X112500000Y-70600000D02*
X112500000Y-71000000D01*
X91500000Y-73100000D02*
X91500000Y-73500000D01*
X103100000Y-111500000D02*
X103500000Y-111500000D01*
X112500000Y-103600000D02*
X112500000Y-104000000D01*
X112500000Y-96000000D02*
X112500000Y-96400000D01*
X91500000Y-65500000D02*
X91500000Y-65900000D01*
X112500000Y-80700000D02*
X112500000Y-81100000D01*
X112500000Y-60500000D02*
X112500000Y-60800000D01*
X91500000Y-85800000D02*
X91500000Y-86200000D01*
X98300000Y-111500000D02*
X91500000Y-111500000D01*
X112500000Y-85800000D02*
X112500000Y-86200000D01*
X112500000Y-101100000D02*
X112500000Y-101500000D01*
X91500000Y-62900000D02*
X91500000Y-63300000D01*
X112500000Y-88300000D02*
X112500000Y-88700000D01*
X91500000Y-70600000D02*
X91500000Y-71000000D01*
X91500000Y-106100000D02*
X91500000Y-106500000D01*
X91500000Y-98500000D02*
X91500000Y-98900000D01*
X91500000Y-101100000D02*
X91500000Y-101500000D01*
X112500000Y-75600000D02*
X112500000Y-76000000D01*
X91500000Y-68000000D02*
X91500000Y-68400000D01*
X91500000Y-63167000D02*
X94507000Y-63167000D01*
X91500000Y-80700000D02*
X91500000Y-81100000D01*
X91500000Y-88300000D02*
X91500000Y-88700000D01*
X91500000Y-60500000D02*
X112500000Y-60500000D01*
X112500000Y-93400000D02*
X112500000Y-93800000D01*
X112500000Y-68000000D02*
X112500000Y-68400000D01*
X112500000Y-62900000D02*
X112500000Y-63300000D01*
X112500000Y-83300000D02*
X112500000Y-83700000D01*
X91500000Y-83300000D02*
X91500000Y-83700000D01*
X112500000Y-90900000D02*
X112500000Y-91300000D01*
X112500000Y-106100000D02*
X112500000Y-106500000D01*
X91500000Y-108700000D02*
X91500000Y-109100000D01*
X94507000Y-63167000D02*
X94507000Y-60500000D01*
%TO.C,D1*%
X75400000Y-155960000D02*
X78260000Y-155960000D01*
X78260000Y-154040000D02*
X75400000Y-154040000D01*
X78260000Y-155960000D02*
X78260000Y-154040000D01*
%TO.C,D2*%
X75400000Y-148360000D02*
X78260000Y-148360000D01*
X78260000Y-146440000D02*
X75400000Y-146440000D01*
X78260000Y-148360000D02*
X78260000Y-146440000D01*
%TO.C,D3*%
X75400000Y-140360000D02*
X78260000Y-140360000D01*
X78260000Y-140360000D02*
X78260000Y-138440000D01*
X78260000Y-138440000D02*
X75400000Y-138440000D01*
%TO.C,J1*%
X77700000Y-66250000D02*
X77700000Y-68050000D01*
X76200000Y-67300000D02*
X73250000Y-67300000D01*
X78450000Y-62250000D02*
X78450000Y-60450000D01*
X77700000Y-63750000D02*
X77700000Y-64750000D01*
X76200000Y-61200000D02*
X73250000Y-61200000D01*
X78450000Y-68050000D02*
X78450000Y-66250000D01*
X72490000Y-68060000D02*
X78460000Y-68060000D01*
X76200000Y-68050000D02*
X76200000Y-67300000D01*
X78450000Y-63750000D02*
X77700000Y-63750000D01*
X73250000Y-67300000D02*
X73250000Y-64250000D01*
X78750000Y-61400000D02*
X78750000Y-60150000D01*
X78450000Y-64750000D02*
X78450000Y-63750000D01*
X76200000Y-60450000D02*
X76200000Y-61200000D01*
X78460000Y-68060000D02*
X78460000Y-60440000D01*
X73250000Y-61200000D02*
X73250000Y-64250000D01*
X77700000Y-62250000D02*
X78450000Y-62250000D01*
X78450000Y-66250000D02*
X77700000Y-66250000D01*
X78460000Y-60440000D02*
X72490000Y-60440000D01*
X78750000Y-60150000D02*
X77500000Y-60150000D01*
X77700000Y-64750000D02*
X78450000Y-64750000D01*
X77700000Y-60450000D02*
X77700000Y-62250000D01*
X77700000Y-68050000D02*
X78450000Y-68050000D01*
X78450000Y-60450000D02*
X77700000Y-60450000D01*
X72490000Y-60440000D02*
X72490000Y-68060000D01*
%TO.C,J2*%
X86210000Y-82560000D02*
X86210000Y-74940000D01*
X85450000Y-80750000D02*
X85450000Y-82550000D01*
X85450000Y-82550000D02*
X86200000Y-82550000D01*
X86500000Y-74650000D02*
X85250000Y-74650000D01*
X86200000Y-74950000D02*
X85450000Y-74950000D01*
X81000000Y-81800000D02*
X81000000Y-78750000D01*
X86200000Y-82550000D02*
X86200000Y-80750000D01*
X83950000Y-82550000D02*
X83950000Y-81800000D01*
X83950000Y-74950000D02*
X83950000Y-75700000D01*
X83950000Y-81800000D02*
X81000000Y-81800000D01*
X85450000Y-76750000D02*
X86200000Y-76750000D01*
X86210000Y-74940000D02*
X80240000Y-74940000D01*
X83950000Y-75700000D02*
X81000000Y-75700000D01*
X86200000Y-79250000D02*
X86200000Y-78250000D01*
X86200000Y-76750000D02*
X86200000Y-74950000D01*
X80240000Y-82560000D02*
X86210000Y-82560000D01*
X85450000Y-79250000D02*
X86200000Y-79250000D01*
X80240000Y-74940000D02*
X80240000Y-82560000D01*
X85450000Y-74950000D02*
X85450000Y-76750000D01*
X86500000Y-75900000D02*
X86500000Y-74650000D01*
X81000000Y-75700000D02*
X81000000Y-78750000D01*
X86200000Y-78250000D02*
X85450000Y-78250000D01*
X86200000Y-80750000D02*
X85450000Y-80750000D01*
X85450000Y-78250000D02*
X85450000Y-79250000D01*
%TO.C,J3*%
X72490000Y-89940000D02*
X72490000Y-97560000D01*
X76200000Y-97550000D02*
X76200000Y-96800000D01*
X72490000Y-97560000D02*
X78460000Y-97560000D01*
X77700000Y-97550000D02*
X78450000Y-97550000D01*
X78450000Y-95750000D02*
X77700000Y-95750000D01*
X78460000Y-89940000D02*
X72490000Y-89940000D01*
X77700000Y-91750000D02*
X78450000Y-91750000D01*
X78450000Y-89950000D02*
X77700000Y-89950000D01*
X78450000Y-94250000D02*
X78450000Y-93250000D01*
X77700000Y-95750000D02*
X77700000Y-97550000D01*
X78450000Y-93250000D02*
X77700000Y-93250000D01*
X78450000Y-91750000D02*
X78450000Y-89950000D01*
X78750000Y-89650000D02*
X77500000Y-89650000D01*
X78450000Y-97550000D02*
X78450000Y-95750000D01*
X77700000Y-89950000D02*
X77700000Y-91750000D01*
X73250000Y-96800000D02*
X73250000Y-93750000D01*
X76200000Y-89950000D02*
X76200000Y-90700000D01*
X73250000Y-90700000D02*
X73250000Y-93750000D01*
X77700000Y-94250000D02*
X78450000Y-94250000D01*
X76200000Y-96800000D02*
X73250000Y-96800000D01*
X77700000Y-93250000D02*
X77700000Y-94250000D01*
X78750000Y-90900000D02*
X78750000Y-89650000D01*
X76200000Y-90700000D02*
X73250000Y-90700000D01*
X78460000Y-97560000D02*
X78460000Y-89940000D01*
%TO.C,J4*%
X85200000Y-60450000D02*
X85200000Y-62250000D01*
X83700000Y-72300000D02*
X80750000Y-72300000D01*
X85950000Y-63750000D02*
X85200000Y-63750000D01*
X86250000Y-60150000D02*
X85000000Y-60150000D01*
X85950000Y-60450000D02*
X85200000Y-60450000D01*
X83700000Y-61200000D02*
X80750000Y-61200000D01*
X79990000Y-73060000D02*
X85960000Y-73060000D01*
X85200000Y-63750000D02*
X85200000Y-69750000D01*
X83700000Y-60450000D02*
X83700000Y-61200000D01*
X85200000Y-73050000D02*
X85950000Y-73050000D01*
X79990000Y-60440000D02*
X79990000Y-73060000D01*
X86250000Y-61400000D02*
X86250000Y-60150000D01*
X80750000Y-61200000D02*
X80750000Y-66750000D01*
X85950000Y-62250000D02*
X85950000Y-60450000D01*
X85200000Y-71250000D02*
X85200000Y-73050000D01*
X85960000Y-73060000D02*
X85960000Y-60440000D01*
X85950000Y-73050000D02*
X85950000Y-71250000D01*
X83700000Y-73050000D02*
X83700000Y-72300000D01*
X85960000Y-60440000D02*
X79990000Y-60440000D01*
X85950000Y-71250000D02*
X85200000Y-71250000D01*
X80750000Y-72300000D02*
X80750000Y-66750000D01*
X85200000Y-69750000D02*
X85950000Y-69750000D01*
X85200000Y-62250000D02*
X85950000Y-62250000D01*
X85950000Y-69750000D02*
X85950000Y-63750000D01*
%TO.C,J5*%
X78450000Y-85050000D02*
X78450000Y-83250000D01*
X78450000Y-83250000D02*
X77700000Y-83250000D01*
X78450000Y-75750000D02*
X77700000Y-75750000D01*
X77700000Y-74250000D02*
X78450000Y-74250000D01*
X77700000Y-75750000D02*
X77700000Y-81750000D01*
X77700000Y-72450000D02*
X77700000Y-74250000D01*
X76200000Y-73200000D02*
X73250000Y-73200000D01*
X78750000Y-73400000D02*
X78750000Y-72150000D01*
X77700000Y-83250000D02*
X77700000Y-85050000D01*
X76200000Y-85050000D02*
X76200000Y-84300000D01*
X72490000Y-72440000D02*
X72490000Y-85060000D01*
X78460000Y-72440000D02*
X72490000Y-72440000D01*
X78460000Y-85060000D02*
X78460000Y-72440000D01*
X78450000Y-72450000D02*
X77700000Y-72450000D01*
X73250000Y-73200000D02*
X73250000Y-78750000D01*
X73250000Y-84300000D02*
X73250000Y-78750000D01*
X76200000Y-72450000D02*
X76200000Y-73200000D01*
X76200000Y-84300000D02*
X73250000Y-84300000D01*
X72490000Y-85060000D02*
X78460000Y-85060000D01*
X78450000Y-81750000D02*
X78450000Y-75750000D01*
X77700000Y-81750000D02*
X78450000Y-81750000D01*
X77700000Y-85050000D02*
X78450000Y-85050000D01*
X78750000Y-72150000D02*
X77500000Y-72150000D01*
X78450000Y-74250000D02*
X78450000Y-72450000D01*
%TO.C,J6*%
X85950000Y-95750000D02*
X85200000Y-95750000D01*
X85960000Y-84940000D02*
X79990000Y-84940000D01*
X85950000Y-88250000D02*
X85200000Y-88250000D01*
X80750000Y-96800000D02*
X80750000Y-91250000D01*
X83700000Y-84950000D02*
X83700000Y-85700000D01*
X83700000Y-97550000D02*
X83700000Y-96800000D01*
X85200000Y-95750000D02*
X85200000Y-97550000D01*
X86250000Y-84650000D02*
X85000000Y-84650000D01*
X85950000Y-94250000D02*
X85950000Y-88250000D01*
X79990000Y-97560000D02*
X85960000Y-97560000D01*
X85950000Y-86750000D02*
X85950000Y-84950000D01*
X85200000Y-86750000D02*
X85950000Y-86750000D01*
X83700000Y-85700000D02*
X80750000Y-85700000D01*
X79990000Y-84940000D02*
X79990000Y-97560000D01*
X85960000Y-97560000D02*
X85960000Y-84940000D01*
X85200000Y-88250000D02*
X85200000Y-94250000D01*
X85950000Y-97550000D02*
X85950000Y-95750000D01*
X85200000Y-84950000D02*
X85200000Y-86750000D01*
X80750000Y-85700000D02*
X80750000Y-91250000D01*
X85950000Y-84950000D02*
X85200000Y-84950000D01*
X86250000Y-85900000D02*
X86250000Y-84650000D01*
X83700000Y-96800000D02*
X80750000Y-96800000D01*
X85200000Y-94250000D02*
X85950000Y-94250000D01*
X85200000Y-97550000D02*
X85950000Y-97550000D01*
%TO.C,J16*%
X80770000Y-118330000D02*
X85910000Y-118330000D01*
X78170000Y-118330000D02*
X78170000Y-117000000D01*
X80770000Y-115670000D02*
X85910000Y-115670000D01*
X79500000Y-118330000D02*
X78170000Y-118330000D01*
X80770000Y-118330000D02*
X80770000Y-115670000D01*
X85910000Y-118330000D02*
X85910000Y-115670000D01*
%TO.C,J14*%
X80770000Y-113330000D02*
X85910000Y-113330000D01*
X79500000Y-113330000D02*
X78170000Y-113330000D01*
X80770000Y-110670000D02*
X85910000Y-110670000D01*
X78170000Y-113330000D02*
X78170000Y-112000000D01*
X85910000Y-113330000D02*
X85910000Y-110670000D01*
X80770000Y-113330000D02*
X80770000Y-110670000D01*
%TO.C,J9*%
X103290000Y-121710000D02*
X103290000Y-116290000D01*
X113710000Y-120410000D02*
X112010000Y-121710000D01*
X113710000Y-117590000D02*
X112010000Y-116290000D01*
X113710000Y-120410000D02*
X113710000Y-117590000D01*
X112010000Y-121710000D02*
X103290000Y-121710000D01*
X112010000Y-116290000D02*
X103290000Y-116290000D01*
%TO.C,J11*%
X113710000Y-128410000D02*
X112010000Y-129710000D01*
X112010000Y-124290000D02*
X103290000Y-124290000D01*
X113710000Y-125590000D02*
X112010000Y-124290000D01*
X112010000Y-129710000D02*
X103290000Y-129710000D01*
X113710000Y-128410000D02*
X113710000Y-125590000D01*
X103290000Y-129710000D02*
X103290000Y-124290000D01*
%TO.C,J8*%
X113710000Y-133590000D02*
X112010000Y-132290000D01*
X113710000Y-136410000D02*
X113710000Y-133590000D01*
X112010000Y-132290000D02*
X103290000Y-132290000D01*
X112010000Y-137710000D02*
X103290000Y-137710000D01*
X113710000Y-136410000D02*
X112010000Y-137710000D01*
X103290000Y-137710000D02*
X103290000Y-132290000D01*
%TO.C,J13*%
X80770000Y-103330000D02*
X80770000Y-100670000D01*
X80770000Y-103330000D02*
X85910000Y-103330000D01*
X85910000Y-103330000D02*
X85910000Y-100670000D01*
X80770000Y-100670000D02*
X85910000Y-100670000D01*
X79500000Y-103330000D02*
X78170000Y-103330000D01*
X78170000Y-103330000D02*
X78170000Y-102000000D01*
%TO.C,J12*%
X71950000Y-124550000D02*
X71950000Y-125300000D01*
X79550000Y-126800000D02*
X78800000Y-126800000D01*
X71650000Y-124250000D02*
X71650000Y-125500000D01*
X76250000Y-125300000D02*
X76250000Y-124550000D01*
X71950000Y-126800000D02*
X72700000Y-126800000D01*
X78800000Y-126800000D02*
X78800000Y-129750000D01*
X71950000Y-125300000D02*
X73750000Y-125300000D01*
X73750000Y-124550000D02*
X71950000Y-124550000D01*
X72700000Y-129750000D02*
X75750000Y-129750000D01*
X71940000Y-130510000D02*
X79560000Y-130510000D01*
X75250000Y-125300000D02*
X76250000Y-125300000D01*
X73750000Y-125300000D02*
X73750000Y-124550000D01*
X78800000Y-129750000D02*
X75750000Y-129750000D01*
X71940000Y-124540000D02*
X71940000Y-130510000D01*
X79560000Y-130510000D02*
X79560000Y-124540000D01*
X77750000Y-124550000D02*
X77750000Y-125300000D01*
X75250000Y-124550000D02*
X75250000Y-125300000D01*
X79550000Y-125300000D02*
X79550000Y-124550000D01*
X72700000Y-126800000D02*
X72700000Y-129750000D01*
X76250000Y-124550000D02*
X75250000Y-124550000D01*
X72900000Y-124250000D02*
X71650000Y-124250000D01*
X79550000Y-124550000D02*
X77750000Y-124550000D01*
X79560000Y-124540000D02*
X71940000Y-124540000D01*
X77750000Y-125300000D02*
X79550000Y-125300000D01*
%TO.C,D6*%
X91400000Y-120150000D02*
X98700000Y-120150000D01*
X91400000Y-115850000D02*
X98700000Y-115850000D01*
X91400000Y-115850000D02*
X91400000Y-120150000D01*
%TO.C,J10*%
X112010000Y-145460000D02*
X103290000Y-145460000D01*
X113710000Y-144160000D02*
X112010000Y-145460000D01*
X113710000Y-144160000D02*
X113710000Y-141340000D01*
X112010000Y-140040000D02*
X103290000Y-140040000D01*
X103290000Y-145460000D02*
X103290000Y-140040000D01*
X113710000Y-141340000D02*
X112010000Y-140040000D01*
%TO.C,U2*%
X88050000Y-147665000D02*
X86950000Y-147665000D01*
X89550000Y-149475000D02*
X88050000Y-149475000D01*
X88050000Y-149475000D02*
X88050000Y-147665000D01*
X88050000Y-140885000D02*
X82925000Y-140885000D01*
X89550000Y-139075000D02*
X88050000Y-139075000D01*
X88050000Y-139075000D02*
X88050000Y-140885000D01*
%TO.C,D5*%
X80700000Y-133350000D02*
X88000000Y-133350000D01*
X80700000Y-137650000D02*
X88000000Y-137650000D01*
X80700000Y-133350000D02*
X80700000Y-137650000D01*
%TO.C,J7*%
X113710000Y-153910000D02*
X112010000Y-155210000D01*
X112010000Y-155210000D02*
X103290000Y-155210000D01*
X113710000Y-151090000D02*
X112010000Y-149790000D01*
X103290000Y-155210000D02*
X103290000Y-149790000D01*
X112010000Y-149790000D02*
X103290000Y-149790000D01*
X113710000Y-153910000D02*
X113710000Y-151090000D01*
%TO.C,D4*%
X89450000Y-154900000D02*
X96750000Y-154900000D01*
X89450000Y-150600000D02*
X89450000Y-154900000D01*
X89450000Y-150600000D02*
X96750000Y-150600000D01*
%TO.C,J15*%
X80770000Y-108330000D02*
X80770000Y-105670000D01*
X80770000Y-105670000D02*
X85910000Y-105670000D01*
X78170000Y-108330000D02*
X78170000Y-107000000D01*
X85910000Y-108330000D02*
X85910000Y-105670000D01*
X80770000Y-108330000D02*
X85910000Y-108330000D01*
X79500000Y-108330000D02*
X78170000Y-108330000D01*
%TD*%
%LPC*%
D14*
%TO.C,U3*%
X85225000Y-124460000D03*
D15*
X94375000Y-127000000D03*
D14*
X85225000Y-129540000D03*
%TD*%
D16*
%TO.C,U1*%
X104425000Y-65030000D03*
X99575000Y-65030000D03*
D17*
X104725000Y-62000000D03*
X99275000Y-62000000D03*
D18*
X93110000Y-61870000D03*
D19*
X92210000Y-61870000D03*
D18*
X93110000Y-64410000D03*
D19*
X92210000Y-64410000D03*
X92210000Y-66950000D03*
D20*
X93110000Y-66950000D03*
D18*
X93110000Y-69490000D03*
D19*
X92210000Y-69490000D03*
D18*
X93110000Y-72030000D03*
D19*
X92210000Y-72030000D03*
X92210000Y-74570000D03*
D18*
X93110000Y-74570000D03*
D19*
X92210000Y-77110000D03*
D18*
X93110000Y-77110000D03*
D19*
X92210000Y-79650000D03*
D20*
X93110000Y-79650000D03*
D18*
X93110000Y-82190000D03*
D19*
X92210000Y-82190000D03*
X92210000Y-84730000D03*
D18*
X93110000Y-84730000D03*
D19*
X92210000Y-87270000D03*
D18*
X93110000Y-87270000D03*
D19*
X92210000Y-89810000D03*
D18*
X93110000Y-89810000D03*
D19*
X92210000Y-92350000D03*
D20*
X93110000Y-92350000D03*
D19*
X92210000Y-94890000D03*
D18*
X93110000Y-94890000D03*
D19*
X92210000Y-97430000D03*
D18*
X93110000Y-97430000D03*
X93110000Y-99970000D03*
D19*
X92210000Y-99970000D03*
X92210000Y-102510000D03*
D18*
X93110000Y-102510000D03*
D20*
X93110000Y-105050000D03*
D19*
X92210000Y-105050000D03*
X92210000Y-107590000D03*
D18*
X93110000Y-107590000D03*
X93110000Y-110130000D03*
D19*
X92210000Y-110130000D03*
X111790000Y-110130000D03*
D18*
X110890000Y-110130000D03*
D19*
X111790000Y-107590000D03*
D18*
X110890000Y-107590000D03*
D20*
X110890000Y-105050000D03*
D19*
X111790000Y-105050000D03*
X111790000Y-102510000D03*
D18*
X110890000Y-102510000D03*
D19*
X111790000Y-99970000D03*
D18*
X110890000Y-99970000D03*
D19*
X111790000Y-97430000D03*
D18*
X110890000Y-97430000D03*
D19*
X111790000Y-94890000D03*
D18*
X110890000Y-94890000D03*
D19*
X111790000Y-92350000D03*
D20*
X110890000Y-92350000D03*
D19*
X111790000Y-89810000D03*
D18*
X110890000Y-89810000D03*
X110890000Y-87270000D03*
D19*
X111790000Y-87270000D03*
X111790000Y-84730000D03*
D18*
X110890000Y-84730000D03*
D19*
X111790000Y-82190000D03*
D18*
X110890000Y-82190000D03*
D20*
X110890000Y-79650000D03*
D19*
X111790000Y-79650000D03*
X111790000Y-77110000D03*
D18*
X110890000Y-77110000D03*
X110890000Y-74570000D03*
D19*
X111790000Y-74570000D03*
X111790000Y-72030000D03*
D18*
X110890000Y-72030000D03*
X110890000Y-69490000D03*
D19*
X111790000Y-69490000D03*
D20*
X110890000Y-66950000D03*
D19*
X111790000Y-66950000D03*
D18*
X110890000Y-64410000D03*
D19*
X111790000Y-64410000D03*
D18*
X110890000Y-61870000D03*
D19*
X111790000Y-61870000D03*
D18*
X99460000Y-109900000D03*
D21*
X99460000Y-110800000D03*
D20*
X102000000Y-109900000D03*
D21*
X102000000Y-110800000D03*
X104540000Y-110800000D03*
D18*
X104540000Y-109900000D03*
%TD*%
D22*
%TO.C,D1*%
X77425000Y-155000000D03*
X75375000Y-155000000D03*
%TD*%
%TO.C,D2*%
X77425000Y-147400000D03*
X75375000Y-147400000D03*
%TD*%
%TO.C,D3*%
X77425000Y-139400000D03*
X75375000Y-139400000D03*
%TD*%
D23*
%TO.C,J1*%
X76000000Y-63000000D03*
D24*
X76000000Y-65500000D03*
%TD*%
D23*
%TO.C,J2*%
X83750000Y-77500000D03*
D24*
X83750000Y-80000000D03*
%TD*%
D23*
%TO.C,J3*%
X76000000Y-92500000D03*
D24*
X76000000Y-95000000D03*
%TD*%
D25*
%TO.C,J4*%
X83500000Y-63000000D03*
D26*
X83500000Y-65500000D03*
X83500000Y-68000000D03*
X83500000Y-70500000D03*
%TD*%
D25*
%TO.C,J5*%
X76000000Y-75000000D03*
D26*
X76000000Y-77500000D03*
X76000000Y-80000000D03*
X76000000Y-82500000D03*
%TD*%
D25*
%TO.C,J6*%
X83500000Y-87500000D03*
D26*
X83500000Y-90000000D03*
X83500000Y-92500000D03*
X83500000Y-95000000D03*
%TD*%
D20*
%TO.C,J16*%
X79500000Y-117000000D03*
D18*
X82040000Y-117000000D03*
X84580000Y-117000000D03*
%TD*%
D20*
%TO.C,J14*%
X79500000Y-112000000D03*
D18*
X82040000Y-112000000D03*
X84580000Y-112000000D03*
%TD*%
D27*
%TO.C,J9*%
X111000000Y-119000000D03*
D28*
X106000000Y-119000000D03*
%TD*%
D27*
%TO.C,J11*%
X111000000Y-127000000D03*
D28*
X106000000Y-127000000D03*
%TD*%
D27*
%TO.C,J8*%
X111000000Y-135000000D03*
D28*
X106000000Y-135000000D03*
%TD*%
D20*
%TO.C,J13*%
X79500000Y-102000000D03*
D18*
X82040000Y-102000000D03*
X84580000Y-102000000D03*
%TD*%
D29*
%TO.C,J12*%
X74500000Y-127000000D03*
D30*
X77000000Y-127000000D03*
%TD*%
D31*
%TO.C,D6*%
X93300000Y-118000000D03*
X98700000Y-118000000D03*
%TD*%
D27*
%TO.C,J10*%
X111000000Y-142750000D03*
D28*
X106000000Y-142750000D03*
%TD*%
D14*
%TO.C,U2*%
X85225000Y-141735000D03*
D15*
X94375000Y-144275000D03*
D14*
X85225000Y-146815000D03*
%TD*%
D31*
%TO.C,D5*%
X82600000Y-135500000D03*
X88000000Y-135500000D03*
%TD*%
D27*
%TO.C,J7*%
X111000000Y-152500000D03*
D32*
X106000000Y-152500000D03*
%TD*%
D31*
%TO.C,D4*%
X91350000Y-152750000D03*
X96750000Y-152750000D03*
%TD*%
D20*
%TO.C,J15*%
X79500000Y-107000000D03*
D18*
X82040000Y-107000000D03*
X84580000Y-107000000D03*
%TD*%
M02*
