%FSLAX45Y45*%
G04 Gerber Fmt 4.5, Leading zero omitted, Abs format (unit mm)*
G04 Created by KiCad (PCBNEW (6.0.0)) date 2022-01-02 23:15:30*
%MOMM*%
%LPD*%
G01*
G04 APERTURE LIST*
%TA.AperFunction,Profile*%
%ADD10C,0.050000*%
%TD*%
%ADD11C,0.200000*%
%ADD12C,0.150000*%
%ADD13C,0.180000*%
G04 APERTURE END LIST*
D10*
X6900000Y-6025000D02*
X6900000Y-15800000D01*
X11900000Y-15800000D02*
X11900000Y-6025000D01*
X7125000Y-5800000D02*
G75*
G03*
X6900000Y-6025000I0J-225000D01*
G01*
X7125000Y-16025000D02*
X11675000Y-16025000D01*
X11675000Y-16025000D02*
G75*
G03*
X11900000Y-15800000I0J225000D01*
G01*
X6900000Y-15800000D02*
G75*
G03*
X7125000Y-16025000I225000J0D01*
G01*
X11900000Y-6025000D02*
G75*
G03*
X11675000Y-5800000I-225000J0D01*
G01*
X11675000Y-5800000D02*
X7125000Y-5800000D01*
D11*
D12*
X9882500Y-6428000D02*
X10032500Y-6578000D01*
X10032500Y-6428000D02*
X9882500Y-6578000D01*
X10367500Y-6428000D02*
X10517500Y-6578000D01*
X10517500Y-6428000D02*
X10367500Y-6578000D01*
D13*
X10017500Y-6200000D02*
G75*
G03*
X10017500Y-6200000I-90000J0D01*
G01*
X10562500Y-6200000D02*
G75*
G03*
X10562500Y-6200000I-90000J0D01*
G01*
D11*
X7155119Y-16337976D02*
X7155119Y-16137976D01*
X7202738Y-16137976D01*
X7231309Y-16147500D01*
X7250357Y-16166548D01*
X7259881Y-16185595D01*
X7269405Y-16223690D01*
X7269405Y-16252262D01*
X7259881Y-16290357D01*
X7250357Y-16309405D01*
X7231309Y-16328452D01*
X7202738Y-16337976D01*
X7155119Y-16337976D01*
X7355119Y-16337976D02*
X7355119Y-16204643D01*
X7355119Y-16242738D02*
X7364643Y-16223690D01*
X7374167Y-16214167D01*
X7393214Y-16204643D01*
X7412262Y-16204643D01*
X7478928Y-16337976D02*
X7478928Y-16204643D01*
X7478928Y-16137976D02*
X7469405Y-16147500D01*
X7478928Y-16157024D01*
X7488452Y-16147500D01*
X7478928Y-16137976D01*
X7478928Y-16157024D01*
X7602738Y-16337976D02*
X7583690Y-16328452D01*
X7574167Y-16309405D01*
X7574167Y-16137976D01*
X7707500Y-16337976D02*
X7688452Y-16328452D01*
X7678928Y-16309405D01*
X7678928Y-16137976D01*
X7936071Y-16337976D02*
X7936071Y-16137976D01*
X8002738Y-16280833D01*
X8069405Y-16137976D01*
X8069405Y-16337976D01*
X8250357Y-16337976D02*
X8250357Y-16233214D01*
X8240833Y-16214167D01*
X8221786Y-16204643D01*
X8183690Y-16204643D01*
X8164643Y-16214167D01*
X8250357Y-16328452D02*
X8231309Y-16337976D01*
X8183690Y-16337976D01*
X8164643Y-16328452D01*
X8155119Y-16309405D01*
X8155119Y-16290357D01*
X8164643Y-16271309D01*
X8183690Y-16261786D01*
X8231309Y-16261786D01*
X8250357Y-16252262D01*
X8345595Y-16204643D02*
X8345595Y-16404643D01*
X8345595Y-16214167D02*
X8364643Y-16204643D01*
X8402738Y-16204643D01*
X8421786Y-16214167D01*
X8431310Y-16223690D01*
X8440833Y-16242738D01*
X8440833Y-16299881D01*
X8431310Y-16318928D01*
X8421786Y-16328452D01*
X8402738Y-16337976D01*
X8364643Y-16337976D01*
X8345595Y-16328452D01*
X8526548Y-16318928D02*
X8536071Y-16328452D01*
X8526548Y-16337976D01*
X8517024Y-16328452D01*
X8526548Y-16318928D01*
X8526548Y-16337976D01*
X8526548Y-16214167D02*
X8536071Y-16223690D01*
X8526548Y-16233214D01*
X8517024Y-16223690D01*
X8526548Y-16214167D01*
X8526548Y-16233214D01*
D12*
X6747500Y-16592500D02*
X6897500Y-16742500D01*
X6897500Y-16592500D02*
X6747500Y-16742500D01*
D11*
X7259881Y-16757976D02*
X7145595Y-16757976D01*
X7202738Y-16757976D02*
X7202738Y-16557976D01*
X7183690Y-16586548D01*
X7164643Y-16605595D01*
X7145595Y-16615119D01*
X7345595Y-16738928D02*
X7355119Y-16748452D01*
X7345595Y-16757976D01*
X7336071Y-16748452D01*
X7345595Y-16738928D01*
X7345595Y-16757976D01*
X7536071Y-16557976D02*
X7440833Y-16557976D01*
X7431309Y-16653214D01*
X7440833Y-16643690D01*
X7459881Y-16634167D01*
X7507500Y-16634167D01*
X7526548Y-16643690D01*
X7536071Y-16653214D01*
X7545595Y-16672262D01*
X7545595Y-16719881D01*
X7536071Y-16738928D01*
X7526548Y-16748452D01*
X7507500Y-16757976D01*
X7459881Y-16757976D01*
X7440833Y-16748452D01*
X7431309Y-16738928D01*
X7669405Y-16557976D02*
X7688452Y-16557976D01*
X7707500Y-16567500D01*
X7717024Y-16577024D01*
X7726548Y-16596071D01*
X7736071Y-16634167D01*
X7736071Y-16681786D01*
X7726548Y-16719881D01*
X7717024Y-16738928D01*
X7707500Y-16748452D01*
X7688452Y-16757976D01*
X7669405Y-16757976D01*
X7650357Y-16748452D01*
X7640833Y-16738928D01*
X7631309Y-16719881D01*
X7621786Y-16681786D01*
X7621786Y-16634167D01*
X7631309Y-16596071D01*
X7640833Y-16577024D01*
X7650357Y-16567500D01*
X7669405Y-16557976D01*
X7859881Y-16557976D02*
X7878928Y-16557976D01*
X7897976Y-16567500D01*
X7907500Y-16577024D01*
X7917024Y-16596071D01*
X7926548Y-16634167D01*
X7926548Y-16681786D01*
X7917024Y-16719881D01*
X7907500Y-16738928D01*
X7897976Y-16748452D01*
X7878928Y-16757976D01*
X7859881Y-16757976D01*
X7840833Y-16748452D01*
X7831309Y-16738928D01*
X7821786Y-16719881D01*
X7812262Y-16681786D01*
X7812262Y-16634167D01*
X7821786Y-16596071D01*
X7831309Y-16577024D01*
X7840833Y-16567500D01*
X7859881Y-16557976D01*
X8012262Y-16757976D02*
X8012262Y-16624643D01*
X8012262Y-16643690D02*
X8021786Y-16634167D01*
X8040833Y-16624643D01*
X8069405Y-16624643D01*
X8088452Y-16634167D01*
X8097976Y-16653214D01*
X8097976Y-16757976D01*
X8097976Y-16653214D02*
X8107500Y-16634167D01*
X8126548Y-16624643D01*
X8155119Y-16624643D01*
X8174167Y-16634167D01*
X8183690Y-16653214D01*
X8183690Y-16757976D01*
X8278928Y-16757976D02*
X8278928Y-16624643D01*
X8278928Y-16643690D02*
X8288452Y-16634167D01*
X8307500Y-16624643D01*
X8336071Y-16624643D01*
X8355119Y-16634167D01*
X8364643Y-16653214D01*
X8364643Y-16757976D01*
X8364643Y-16653214D02*
X8374167Y-16634167D01*
X8393214Y-16624643D01*
X8421786Y-16624643D01*
X8440833Y-16634167D01*
X8450357Y-16653214D01*
X8450357Y-16757976D01*
X8840833Y-16548452D02*
X8669405Y-16805595D01*
X9097976Y-16557976D02*
X9117024Y-16557976D01*
X9136071Y-16567500D01*
X9145595Y-16577024D01*
X9155119Y-16596071D01*
X9164643Y-16634167D01*
X9164643Y-16681786D01*
X9155119Y-16719881D01*
X9145595Y-16738928D01*
X9136071Y-16748452D01*
X9117024Y-16757976D01*
X9097976Y-16757976D01*
X9078929Y-16748452D01*
X9069405Y-16738928D01*
X9059881Y-16719881D01*
X9050357Y-16681786D01*
X9050357Y-16634167D01*
X9059881Y-16596071D01*
X9069405Y-16577024D01*
X9078929Y-16567500D01*
X9097976Y-16557976D01*
X9250357Y-16738928D02*
X9259881Y-16748452D01*
X9250357Y-16757976D01*
X9240833Y-16748452D01*
X9250357Y-16738928D01*
X9250357Y-16757976D01*
X9383690Y-16557976D02*
X9402738Y-16557976D01*
X9421786Y-16567500D01*
X9431310Y-16577024D01*
X9440833Y-16596071D01*
X9450357Y-16634167D01*
X9450357Y-16681786D01*
X9440833Y-16719881D01*
X9431310Y-16738928D01*
X9421786Y-16748452D01*
X9402738Y-16757976D01*
X9383690Y-16757976D01*
X9364643Y-16748452D01*
X9355119Y-16738928D01*
X9345595Y-16719881D01*
X9336071Y-16681786D01*
X9336071Y-16634167D01*
X9345595Y-16596071D01*
X9355119Y-16577024D01*
X9364643Y-16567500D01*
X9383690Y-16557976D01*
X9631310Y-16557976D02*
X9536071Y-16557976D01*
X9526548Y-16653214D01*
X9536071Y-16643690D01*
X9555119Y-16634167D01*
X9602738Y-16634167D01*
X9621786Y-16643690D01*
X9631310Y-16653214D01*
X9640833Y-16672262D01*
X9640833Y-16719881D01*
X9631310Y-16738928D01*
X9621786Y-16748452D01*
X9602738Y-16757976D01*
X9555119Y-16757976D01*
X9536071Y-16748452D01*
X9526548Y-16738928D01*
X9736071Y-16757976D02*
X9774167Y-16757976D01*
X9793214Y-16748452D01*
X9802738Y-16738928D01*
X9821786Y-16710357D01*
X9831310Y-16672262D01*
X9831310Y-16596071D01*
X9821786Y-16577024D01*
X9812262Y-16567500D01*
X9793214Y-16557976D01*
X9755119Y-16557976D01*
X9736071Y-16567500D01*
X9726548Y-16577024D01*
X9717024Y-16596071D01*
X9717024Y-16643690D01*
X9726548Y-16662738D01*
X9736071Y-16672262D01*
X9755119Y-16681786D01*
X9793214Y-16681786D01*
X9812262Y-16672262D01*
X9821786Y-16662738D01*
X9831310Y-16643690D01*
X10021786Y-16757976D02*
X9907500Y-16757976D01*
X9964643Y-16757976D02*
X9964643Y-16557976D01*
X9945595Y-16586548D01*
X9926548Y-16605595D01*
X9907500Y-16615119D01*
X10097976Y-16557976D02*
X10097976Y-16596071D01*
X10174167Y-16557976D02*
X10174167Y-16596071D01*
X10469405Y-16834167D02*
X10459881Y-16824643D01*
X10440833Y-16796071D01*
X10431310Y-16777024D01*
X10421786Y-16748452D01*
X10412262Y-16700833D01*
X10412262Y-16662738D01*
X10421786Y-16615119D01*
X10431310Y-16586548D01*
X10440833Y-16567500D01*
X10459881Y-16538928D01*
X10469405Y-16529405D01*
X10536071Y-16577024D02*
X10545595Y-16567500D01*
X10564643Y-16557976D01*
X10612262Y-16557976D01*
X10631310Y-16567500D01*
X10640833Y-16577024D01*
X10650357Y-16596071D01*
X10650357Y-16615119D01*
X10640833Y-16643690D01*
X10526548Y-16757976D01*
X10650357Y-16757976D01*
X10888452Y-16757976D02*
X10888452Y-16557976D01*
X10974167Y-16757976D02*
X10974167Y-16653214D01*
X10964643Y-16634167D01*
X10945595Y-16624643D01*
X10917024Y-16624643D01*
X10897976Y-16634167D01*
X10888452Y-16643690D01*
X11097976Y-16757976D02*
X11078929Y-16748452D01*
X11069405Y-16738928D01*
X11059881Y-16719881D01*
X11059881Y-16662738D01*
X11069405Y-16643690D01*
X11078929Y-16634167D01*
X11097976Y-16624643D01*
X11126548Y-16624643D01*
X11145595Y-16634167D01*
X11155119Y-16643690D01*
X11164643Y-16662738D01*
X11164643Y-16719881D01*
X11155119Y-16738928D01*
X11145595Y-16748452D01*
X11126548Y-16757976D01*
X11097976Y-16757976D01*
X11278928Y-16757976D02*
X11259881Y-16748452D01*
X11250357Y-16729405D01*
X11250357Y-16557976D01*
X11431309Y-16748452D02*
X11412262Y-16757976D01*
X11374167Y-16757976D01*
X11355119Y-16748452D01*
X11345595Y-16729405D01*
X11345595Y-16653214D01*
X11355119Y-16634167D01*
X11374167Y-16624643D01*
X11412262Y-16624643D01*
X11431309Y-16634167D01*
X11440833Y-16653214D01*
X11440833Y-16672262D01*
X11345595Y-16691309D01*
X11517024Y-16748452D02*
X11536071Y-16757976D01*
X11574167Y-16757976D01*
X11593214Y-16748452D01*
X11602738Y-16729405D01*
X11602738Y-16719881D01*
X11593214Y-16700833D01*
X11574167Y-16691309D01*
X11545595Y-16691309D01*
X11526548Y-16681786D01*
X11517024Y-16662738D01*
X11517024Y-16653214D01*
X11526548Y-16634167D01*
X11545595Y-16624643D01*
X11574167Y-16624643D01*
X11593214Y-16634167D01*
X11669405Y-16834167D02*
X11678928Y-16824643D01*
X11697976Y-16796071D01*
X11707500Y-16777024D01*
X11717024Y-16748452D01*
X11726548Y-16700833D01*
X11726548Y-16662738D01*
X11717024Y-16615119D01*
X11707500Y-16586548D01*
X11697976Y-16567500D01*
X11678928Y-16538928D01*
X11669405Y-16529405D01*
X12031309Y-16834167D02*
X12021786Y-16824643D01*
X12002738Y-16796071D01*
X11993214Y-16777024D01*
X11983690Y-16748452D01*
X11974167Y-16700833D01*
X11974167Y-16662738D01*
X11983690Y-16615119D01*
X11993214Y-16586548D01*
X12002738Y-16567500D01*
X12021786Y-16538928D01*
X12031309Y-16529405D01*
X12107500Y-16624643D02*
X12107500Y-16757976D01*
X12107500Y-16643690D02*
X12117024Y-16634167D01*
X12136071Y-16624643D01*
X12164643Y-16624643D01*
X12183690Y-16634167D01*
X12193214Y-16653214D01*
X12193214Y-16757976D01*
X12317024Y-16757976D02*
X12297976Y-16748452D01*
X12288452Y-16738928D01*
X12278928Y-16719881D01*
X12278928Y-16662738D01*
X12288452Y-16643690D01*
X12297976Y-16634167D01*
X12317024Y-16624643D01*
X12345595Y-16624643D01*
X12364643Y-16634167D01*
X12374167Y-16643690D01*
X12383690Y-16662738D01*
X12383690Y-16719881D01*
X12374167Y-16738928D01*
X12364643Y-16748452D01*
X12345595Y-16757976D01*
X12317024Y-16757976D01*
X12440833Y-16624643D02*
X12517024Y-16624643D01*
X12469405Y-16557976D02*
X12469405Y-16729405D01*
X12478928Y-16748452D01*
X12497976Y-16757976D01*
X12517024Y-16757976D01*
X12736071Y-16624643D02*
X12736071Y-16824643D01*
X12736071Y-16634167D02*
X12755119Y-16624643D01*
X12793214Y-16624643D01*
X12812262Y-16634167D01*
X12821786Y-16643690D01*
X12831309Y-16662738D01*
X12831309Y-16719881D01*
X12821786Y-16738928D01*
X12812262Y-16748452D01*
X12793214Y-16757976D01*
X12755119Y-16757976D01*
X12736071Y-16748452D01*
X12945595Y-16757976D02*
X12926548Y-16748452D01*
X12917024Y-16729405D01*
X12917024Y-16557976D01*
X13107500Y-16757976D02*
X13107500Y-16653214D01*
X13097976Y-16634167D01*
X13078928Y-16624643D01*
X13040833Y-16624643D01*
X13021786Y-16634167D01*
X13107500Y-16748452D02*
X13088452Y-16757976D01*
X13040833Y-16757976D01*
X13021786Y-16748452D01*
X13012262Y-16729405D01*
X13012262Y-16710357D01*
X13021786Y-16691309D01*
X13040833Y-16681786D01*
X13088452Y-16681786D01*
X13107500Y-16672262D01*
X13174167Y-16624643D02*
X13250357Y-16624643D01*
X13202738Y-16557976D02*
X13202738Y-16729405D01*
X13212262Y-16748452D01*
X13231309Y-16757976D01*
X13250357Y-16757976D01*
X13393214Y-16748452D02*
X13374167Y-16757976D01*
X13336071Y-16757976D01*
X13317024Y-16748452D01*
X13307500Y-16729405D01*
X13307500Y-16653214D01*
X13317024Y-16634167D01*
X13336071Y-16624643D01*
X13374167Y-16624643D01*
X13393214Y-16634167D01*
X13402738Y-16653214D01*
X13402738Y-16672262D01*
X13307500Y-16691309D01*
X13574167Y-16757976D02*
X13574167Y-16557976D01*
X13574167Y-16748452D02*
X13555119Y-16757976D01*
X13517024Y-16757976D01*
X13497976Y-16748452D01*
X13488452Y-16738928D01*
X13478928Y-16719881D01*
X13478928Y-16662738D01*
X13488452Y-16643690D01*
X13497976Y-16634167D01*
X13517024Y-16624643D01*
X13555119Y-16624643D01*
X13574167Y-16634167D01*
X13650357Y-16834167D02*
X13659881Y-16824643D01*
X13678928Y-16796071D01*
X13688452Y-16777024D01*
X13697976Y-16748452D01*
X13707500Y-16700833D01*
X13707500Y-16662738D01*
X13697976Y-16615119D01*
X13688452Y-16586548D01*
X13678928Y-16567500D01*
X13659881Y-16538928D01*
X13650357Y-16529405D01*
D13*
X6897500Y-16937500D02*
G75*
G03*
X6897500Y-16937500I-90000J0D01*
G01*
D11*
X7259881Y-17027976D02*
X7145595Y-17027976D01*
X7202738Y-17027976D02*
X7202738Y-16827976D01*
X7183690Y-16856548D01*
X7164643Y-16875595D01*
X7145595Y-16885119D01*
X7345595Y-17008929D02*
X7355119Y-17018452D01*
X7345595Y-17027976D01*
X7336071Y-17018452D01*
X7345595Y-17008929D01*
X7345595Y-17027976D01*
X7469405Y-16913690D02*
X7450357Y-16904167D01*
X7440833Y-16894643D01*
X7431309Y-16875595D01*
X7431309Y-16866071D01*
X7440833Y-16847024D01*
X7450357Y-16837500D01*
X7469405Y-16827976D01*
X7507500Y-16827976D01*
X7526548Y-16837500D01*
X7536071Y-16847024D01*
X7545595Y-16866071D01*
X7545595Y-16875595D01*
X7536071Y-16894643D01*
X7526548Y-16904167D01*
X7507500Y-16913690D01*
X7469405Y-16913690D01*
X7450357Y-16923214D01*
X7440833Y-16932738D01*
X7431309Y-16951786D01*
X7431309Y-16989881D01*
X7440833Y-17008929D01*
X7450357Y-17018452D01*
X7469405Y-17027976D01*
X7507500Y-17027976D01*
X7526548Y-17018452D01*
X7536071Y-17008929D01*
X7545595Y-16989881D01*
X7545595Y-16951786D01*
X7536071Y-16932738D01*
X7526548Y-16923214D01*
X7507500Y-16913690D01*
X7669405Y-16827976D02*
X7688452Y-16827976D01*
X7707500Y-16837500D01*
X7717024Y-16847024D01*
X7726548Y-16866071D01*
X7736071Y-16904167D01*
X7736071Y-16951786D01*
X7726548Y-16989881D01*
X7717024Y-17008929D01*
X7707500Y-17018452D01*
X7688452Y-17027976D01*
X7669405Y-17027976D01*
X7650357Y-17018452D01*
X7640833Y-17008929D01*
X7631309Y-16989881D01*
X7621786Y-16951786D01*
X7621786Y-16904167D01*
X7631309Y-16866071D01*
X7640833Y-16847024D01*
X7650357Y-16837500D01*
X7669405Y-16827976D01*
X7859881Y-16827976D02*
X7878928Y-16827976D01*
X7897976Y-16837500D01*
X7907500Y-16847024D01*
X7917024Y-16866071D01*
X7926548Y-16904167D01*
X7926548Y-16951786D01*
X7917024Y-16989881D01*
X7907500Y-17008929D01*
X7897976Y-17018452D01*
X7878928Y-17027976D01*
X7859881Y-17027976D01*
X7840833Y-17018452D01*
X7831309Y-17008929D01*
X7821786Y-16989881D01*
X7812262Y-16951786D01*
X7812262Y-16904167D01*
X7821786Y-16866071D01*
X7831309Y-16847024D01*
X7840833Y-16837500D01*
X7859881Y-16827976D01*
X8012262Y-17027976D02*
X8012262Y-16894643D01*
X8012262Y-16913690D02*
X8021786Y-16904167D01*
X8040833Y-16894643D01*
X8069405Y-16894643D01*
X8088452Y-16904167D01*
X8097976Y-16923214D01*
X8097976Y-17027976D01*
X8097976Y-16923214D02*
X8107500Y-16904167D01*
X8126548Y-16894643D01*
X8155119Y-16894643D01*
X8174167Y-16904167D01*
X8183690Y-16923214D01*
X8183690Y-17027976D01*
X8278928Y-17027976D02*
X8278928Y-16894643D01*
X8278928Y-16913690D02*
X8288452Y-16904167D01*
X8307500Y-16894643D01*
X8336071Y-16894643D01*
X8355119Y-16904167D01*
X8364643Y-16923214D01*
X8364643Y-17027976D01*
X8364643Y-16923214D02*
X8374167Y-16904167D01*
X8393214Y-16894643D01*
X8421786Y-16894643D01*
X8440833Y-16904167D01*
X8450357Y-16923214D01*
X8450357Y-17027976D01*
X8840833Y-16818452D02*
X8669405Y-17075595D01*
X9097976Y-16827976D02*
X9117024Y-16827976D01*
X9136071Y-16837500D01*
X9145595Y-16847024D01*
X9155119Y-16866071D01*
X9164643Y-16904167D01*
X9164643Y-16951786D01*
X9155119Y-16989881D01*
X9145595Y-17008929D01*
X9136071Y-17018452D01*
X9117024Y-17027976D01*
X9097976Y-17027976D01*
X9078929Y-17018452D01*
X9069405Y-17008929D01*
X9059881Y-16989881D01*
X9050357Y-16951786D01*
X9050357Y-16904167D01*
X9059881Y-16866071D01*
X9069405Y-16847024D01*
X9078929Y-16837500D01*
X9097976Y-16827976D01*
X9250357Y-17008929D02*
X9259881Y-17018452D01*
X9250357Y-17027976D01*
X9240833Y-17018452D01*
X9250357Y-17008929D01*
X9250357Y-17027976D01*
X9383690Y-16827976D02*
X9402738Y-16827976D01*
X9421786Y-16837500D01*
X9431310Y-16847024D01*
X9440833Y-16866071D01*
X9450357Y-16904167D01*
X9450357Y-16951786D01*
X9440833Y-16989881D01*
X9431310Y-17008929D01*
X9421786Y-17018452D01*
X9402738Y-17027976D01*
X9383690Y-17027976D01*
X9364643Y-17018452D01*
X9355119Y-17008929D01*
X9345595Y-16989881D01*
X9336071Y-16951786D01*
X9336071Y-16904167D01*
X9345595Y-16866071D01*
X9355119Y-16847024D01*
X9364643Y-16837500D01*
X9383690Y-16827976D01*
X9517024Y-16827976D02*
X9650357Y-16827976D01*
X9564643Y-17027976D01*
X9764643Y-16827976D02*
X9783690Y-16827976D01*
X9802738Y-16837500D01*
X9812262Y-16847024D01*
X9821786Y-16866071D01*
X9831310Y-16904167D01*
X9831310Y-16951786D01*
X9821786Y-16989881D01*
X9812262Y-17008929D01*
X9802738Y-17018452D01*
X9783690Y-17027976D01*
X9764643Y-17027976D01*
X9745595Y-17018452D01*
X9736071Y-17008929D01*
X9726548Y-16989881D01*
X9717024Y-16951786D01*
X9717024Y-16904167D01*
X9726548Y-16866071D01*
X9736071Y-16847024D01*
X9745595Y-16837500D01*
X9764643Y-16827976D01*
X9926548Y-17027976D02*
X9964643Y-17027976D01*
X9983690Y-17018452D01*
X9993214Y-17008929D01*
X10012262Y-16980357D01*
X10021786Y-16942262D01*
X10021786Y-16866071D01*
X10012262Y-16847024D01*
X10002738Y-16837500D01*
X9983690Y-16827976D01*
X9945595Y-16827976D01*
X9926548Y-16837500D01*
X9917024Y-16847024D01*
X9907500Y-16866071D01*
X9907500Y-16913690D01*
X9917024Y-16932738D01*
X9926548Y-16942262D01*
X9945595Y-16951786D01*
X9983690Y-16951786D01*
X10002738Y-16942262D01*
X10012262Y-16932738D01*
X10021786Y-16913690D01*
X10097976Y-16827976D02*
X10097976Y-16866071D01*
X10174167Y-16827976D02*
X10174167Y-16866071D01*
X10469405Y-17104167D02*
X10459881Y-17094643D01*
X10440833Y-17066071D01*
X10431310Y-17047024D01*
X10421786Y-17018452D01*
X10412262Y-16970833D01*
X10412262Y-16932738D01*
X10421786Y-16885119D01*
X10431310Y-16856548D01*
X10440833Y-16837500D01*
X10459881Y-16808929D01*
X10469405Y-16799405D01*
X10536071Y-16847024D02*
X10545595Y-16837500D01*
X10564643Y-16827976D01*
X10612262Y-16827976D01*
X10631310Y-16837500D01*
X10640833Y-16847024D01*
X10650357Y-16866071D01*
X10650357Y-16885119D01*
X10640833Y-16913690D01*
X10526548Y-17027976D01*
X10650357Y-17027976D01*
X10888452Y-17027976D02*
X10888452Y-16827976D01*
X10974167Y-17027976D02*
X10974167Y-16923214D01*
X10964643Y-16904167D01*
X10945595Y-16894643D01*
X10917024Y-16894643D01*
X10897976Y-16904167D01*
X10888452Y-16913690D01*
X11097976Y-17027976D02*
X11078929Y-17018452D01*
X11069405Y-17008929D01*
X11059881Y-16989881D01*
X11059881Y-16932738D01*
X11069405Y-16913690D01*
X11078929Y-16904167D01*
X11097976Y-16894643D01*
X11126548Y-16894643D01*
X11145595Y-16904167D01*
X11155119Y-16913690D01*
X11164643Y-16932738D01*
X11164643Y-16989881D01*
X11155119Y-17008929D01*
X11145595Y-17018452D01*
X11126548Y-17027976D01*
X11097976Y-17027976D01*
X11278928Y-17027976D02*
X11259881Y-17018452D01*
X11250357Y-16999405D01*
X11250357Y-16827976D01*
X11431309Y-17018452D02*
X11412262Y-17027976D01*
X11374167Y-17027976D01*
X11355119Y-17018452D01*
X11345595Y-16999405D01*
X11345595Y-16923214D01*
X11355119Y-16904167D01*
X11374167Y-16894643D01*
X11412262Y-16894643D01*
X11431309Y-16904167D01*
X11440833Y-16923214D01*
X11440833Y-16942262D01*
X11345595Y-16961310D01*
X11517024Y-17018452D02*
X11536071Y-17027976D01*
X11574167Y-17027976D01*
X11593214Y-17018452D01*
X11602738Y-16999405D01*
X11602738Y-16989881D01*
X11593214Y-16970833D01*
X11574167Y-16961310D01*
X11545595Y-16961310D01*
X11526548Y-16951786D01*
X11517024Y-16932738D01*
X11517024Y-16923214D01*
X11526548Y-16904167D01*
X11545595Y-16894643D01*
X11574167Y-16894643D01*
X11593214Y-16904167D01*
X11669405Y-17104167D02*
X11678928Y-17094643D01*
X11697976Y-17066071D01*
X11707500Y-17047024D01*
X11717024Y-17018452D01*
X11726548Y-16970833D01*
X11726548Y-16932738D01*
X11717024Y-16885119D01*
X11707500Y-16856548D01*
X11697976Y-16837500D01*
X11678928Y-16808929D01*
X11669405Y-16799405D01*
X12031309Y-17104167D02*
X12021786Y-17094643D01*
X12002738Y-17066071D01*
X11993214Y-17047024D01*
X11983690Y-17018452D01*
X11974167Y-16970833D01*
X11974167Y-16932738D01*
X11983690Y-16885119D01*
X11993214Y-16856548D01*
X12002738Y-16837500D01*
X12021786Y-16808929D01*
X12031309Y-16799405D01*
X12107500Y-16894643D02*
X12107500Y-17027976D01*
X12107500Y-16913690D02*
X12117024Y-16904167D01*
X12136071Y-16894643D01*
X12164643Y-16894643D01*
X12183690Y-16904167D01*
X12193214Y-16923214D01*
X12193214Y-17027976D01*
X12317024Y-17027976D02*
X12297976Y-17018452D01*
X12288452Y-17008929D01*
X12278928Y-16989881D01*
X12278928Y-16932738D01*
X12288452Y-16913690D01*
X12297976Y-16904167D01*
X12317024Y-16894643D01*
X12345595Y-16894643D01*
X12364643Y-16904167D01*
X12374167Y-16913690D01*
X12383690Y-16932738D01*
X12383690Y-16989881D01*
X12374167Y-17008929D01*
X12364643Y-17018452D01*
X12345595Y-17027976D01*
X12317024Y-17027976D01*
X12440833Y-16894643D02*
X12517024Y-16894643D01*
X12469405Y-16827976D02*
X12469405Y-16999405D01*
X12478928Y-17018452D01*
X12497976Y-17027976D01*
X12517024Y-17027976D01*
X12736071Y-16894643D02*
X12736071Y-17094643D01*
X12736071Y-16904167D02*
X12755119Y-16894643D01*
X12793214Y-16894643D01*
X12812262Y-16904167D01*
X12821786Y-16913690D01*
X12831309Y-16932738D01*
X12831309Y-16989881D01*
X12821786Y-17008929D01*
X12812262Y-17018452D01*
X12793214Y-17027976D01*
X12755119Y-17027976D01*
X12736071Y-17018452D01*
X12945595Y-17027976D02*
X12926548Y-17018452D01*
X12917024Y-16999405D01*
X12917024Y-16827976D01*
X13107500Y-17027976D02*
X13107500Y-16923214D01*
X13097976Y-16904167D01*
X13078928Y-16894643D01*
X13040833Y-16894643D01*
X13021786Y-16904167D01*
X13107500Y-17018452D02*
X13088452Y-17027976D01*
X13040833Y-17027976D01*
X13021786Y-17018452D01*
X13012262Y-16999405D01*
X13012262Y-16980357D01*
X13021786Y-16961310D01*
X13040833Y-16951786D01*
X13088452Y-16951786D01*
X13107500Y-16942262D01*
X13174167Y-16894643D02*
X13250357Y-16894643D01*
X13202738Y-16827976D02*
X13202738Y-16999405D01*
X13212262Y-17018452D01*
X13231309Y-17027976D01*
X13250357Y-17027976D01*
X13393214Y-17018452D02*
X13374167Y-17027976D01*
X13336071Y-17027976D01*
X13317024Y-17018452D01*
X13307500Y-16999405D01*
X13307500Y-16923214D01*
X13317024Y-16904167D01*
X13336071Y-16894643D01*
X13374167Y-16894643D01*
X13393214Y-16904167D01*
X13402738Y-16923214D01*
X13402738Y-16942262D01*
X13307500Y-16961310D01*
X13574167Y-17027976D02*
X13574167Y-16827976D01*
X13574167Y-17018452D02*
X13555119Y-17027976D01*
X13517024Y-17027976D01*
X13497976Y-17018452D01*
X13488452Y-17008929D01*
X13478928Y-16989881D01*
X13478928Y-16932738D01*
X13488452Y-16913690D01*
X13497976Y-16904167D01*
X13517024Y-16894643D01*
X13555119Y-16894643D01*
X13574167Y-16904167D01*
X13650357Y-17104167D02*
X13659881Y-17094643D01*
X13678928Y-17066071D01*
X13688452Y-17047024D01*
X13697976Y-17018452D01*
X13707500Y-16970833D01*
X13707500Y-16932738D01*
X13697976Y-16885119D01*
X13688452Y-16856548D01*
X13678928Y-16837500D01*
X13659881Y-16808929D01*
X13650357Y-16799405D01*
M02*
