%TF.GenerationSoftware,KiCad,Pcbnew,(6.0.0)*%
%TF.CreationDate,2022-01-02T23:15:28+00:00*%
%TF.ProjectId,main_distro,6d61696e-5f64-4697-9374-726f2e6b6963,rev?*%
%TF.SameCoordinates,Original*%
%TF.FileFunction,Copper,L1,Top*%
%TF.FilePolarity,Positive*%
%FSLAX46Y46*%
G04 Gerber Fmt 4.6, Leading zero omitted, Abs format (unit mm)*
G04 Created by KiCad (PCBNEW (6.0.0)) date 2022-01-02 23:15:28*
%MOMM*%
%LPD*%
G01*
G04 APERTURE LIST*
G04 Aperture macros list*
%AMRoundRect*
0 Rectangle with rounded corners*
0 $1 Rounding radius*
0 $2 $3 $4 $5 $6 $7 $8 $9 X,Y pos of 4 corners*
0 Add a 4 corners polygon primitive as box body*
4,1,4,$2,$3,$4,$5,$6,$7,$8,$9,$2,$3,0*
0 Add four circle primitives for the rounded corners*
1,1,$1+$1,$2,$3*
1,1,$1+$1,$4,$5*
1,1,$1+$1,$6,$7*
1,1,$1+$1,$8,$9*
0 Add four rect primitives between the rounded corners*
20,1,$1+$1,$2,$3,$4,$5,0*
20,1,$1+$1,$4,$5,$6,$7,0*
20,1,$1+$1,$6,$7,$8,$9,0*
20,1,$1+$1,$8,$9,$2,$3,0*%
G04 Aperture macros list end*
%TA.AperFunction,SMDPad,CuDef*%
%ADD10R,4.600000X1.100000*%
%TD*%
%TA.AperFunction,SMDPad,CuDef*%
%ADD11R,9.400000X10.800000*%
%TD*%
%TA.AperFunction,ComponentPad*%
%ADD12O,1.700000X1.700000*%
%TD*%
%TA.AperFunction,SMDPad,CuDef*%
%ADD13R,3.500000X1.700000*%
%TD*%
%TA.AperFunction,ComponentPad*%
%ADD14R,1.700000X1.700000*%
%TD*%
%TA.AperFunction,SMDPad,CuDef*%
%ADD15R,1.700000X3.500000*%
%TD*%
%TA.AperFunction,SMDPad,CuDef*%
%ADD16RoundRect,0.250000X0.325000X0.450000X-0.325000X0.450000X-0.325000X-0.450000X0.325000X-0.450000X0*%
%TD*%
%TA.AperFunction,ComponentPad*%
%ADD17RoundRect,0.250000X-0.750000X0.600000X-0.750000X-0.600000X0.750000X-0.600000X0.750000X0.600000X0*%
%TD*%
%TA.AperFunction,ComponentPad*%
%ADD18O,2.000000X1.700000*%
%TD*%
%TA.AperFunction,ComponentPad*%
%ADD19RoundRect,0.250000X-0.725000X0.600000X-0.725000X-0.600000X0.725000X-0.600000X0.725000X0.600000X0*%
%TD*%
%TA.AperFunction,ComponentPad*%
%ADD20O,1.950000X1.700000*%
%TD*%
%TA.AperFunction,ComponentPad*%
%ADD21R,3.800000X3.800000*%
%TD*%
%TA.AperFunction,ComponentPad*%
%ADD22C,4.000000*%
%TD*%
%TA.AperFunction,ComponentPad*%
%ADD23RoundRect,0.250000X-0.600000X-0.750000X0.600000X-0.750000X0.600000X0.750000X-0.600000X0.750000X0*%
%TD*%
%TA.AperFunction,ComponentPad*%
%ADD24O,1.700000X2.000000*%
%TD*%
%TA.AperFunction,SMDPad,CuDef*%
%ADD25R,3.500000X2.300000*%
%TD*%
%TA.AperFunction,ComponentPad*%
%ADD26C,3.800000*%
%TD*%
%TA.AperFunction,ViaPad*%
%ADD27C,0.800000*%
%TD*%
%TA.AperFunction,ViaPad*%
%ADD28C,0.500000*%
%TD*%
%TA.AperFunction,Conductor*%
%ADD29C,0.300000*%
%TD*%
%TA.AperFunction,Conductor*%
%ADD30C,2.000000*%
%TD*%
%TA.AperFunction,Conductor*%
%ADD31C,1.000000*%
%TD*%
G04 APERTURE END LIST*
D10*
%TO.P,U3,1,GND*%
%TO.N,GND*%
X85225000Y-124460000D03*
D11*
%TO.P,U3,2,VO*%
%TO.N,Net-(D6-Pad2)*%
X94375000Y-127000000D03*
D10*
%TO.P,U3,3,VI*%
%TO.N,Net-(D4-Pad1)*%
X85225000Y-129540000D03*
%TD*%
D12*
%TO.P,U1,1,GPIO0*%
%TO.N,LEDA*%
X93110000Y-61870000D03*
D13*
X92210000Y-61870000D03*
D12*
%TO.P,U1,2,GPIO1*%
%TO.N,LEDB*%
X93110000Y-64410000D03*
D13*
X92210000Y-64410000D03*
%TO.P,U1,3,GND*%
%TO.N,GND*%
X92210000Y-66950000D03*
D14*
X93110000Y-66950000D03*
D12*
%TO.P,U1,4,GPIO2*%
%TO.N,LEDC*%
X93110000Y-69490000D03*
D13*
X92210000Y-69490000D03*
D12*
%TO.P,U1,5,GPIO3*%
%TO.N,MOTOR1_PWM*%
X93110000Y-72030000D03*
D13*
X92210000Y-72030000D03*
%TO.P,U1,6,GPIO4*%
%TO.N,MOTOR1_DIR*%
X92210000Y-74570000D03*
D12*
X93110000Y-74570000D03*
D13*
%TO.P,U1,7,GPIO5*%
%TO.N,MOTOR2_PWM*%
X92210000Y-77110000D03*
D12*
X93110000Y-77110000D03*
D13*
%TO.P,U1,8,GND*%
%TO.N,GND*%
X92210000Y-79650000D03*
D14*
X93110000Y-79650000D03*
D12*
%TO.P,U1,9,GPIO6*%
%TO.N,MOTOR2_DIR*%
X93110000Y-82190000D03*
D13*
X92210000Y-82190000D03*
%TO.P,U1,10,GPIO7*%
%TO.N,MOTOR3_PWM*%
X92210000Y-84730000D03*
D12*
X93110000Y-84730000D03*
D13*
%TO.P,U1,11,GPIO8*%
%TO.N,MOTOR3_DIR*%
X92210000Y-87270000D03*
D12*
X93110000Y-87270000D03*
D13*
%TO.P,U1,12,GPIO9*%
%TO.N,unconnected-(U1-Pad12)*%
X92210000Y-89810000D03*
D12*
X93110000Y-89810000D03*
D13*
%TO.P,U1,13,GND*%
%TO.N,GND*%
X92210000Y-92350000D03*
D14*
X93110000Y-92350000D03*
D13*
%TO.P,U1,14,GPIO10*%
%TO.N,SERVO1*%
X92210000Y-94890000D03*
D12*
X93110000Y-94890000D03*
D13*
%TO.P,U1,15,GPIO11*%
%TO.N,SERVO2*%
X92210000Y-97430000D03*
D12*
X93110000Y-97430000D03*
%TO.P,U1,16,GPIO12*%
%TO.N,SERVO3*%
X93110000Y-99970000D03*
D13*
X92210000Y-99970000D03*
%TO.P,U1,17,GPIO13*%
%TO.N,SERVO4*%
X92210000Y-102510000D03*
D12*
X93110000Y-102510000D03*
D14*
%TO.P,U1,18,GND*%
%TO.N,GND*%
X93110000Y-105050000D03*
D13*
X92210000Y-105050000D03*
%TO.P,U1,19,GPIO14*%
%TO.N,unconnected-(U1-Pad19)*%
X92210000Y-107590000D03*
D12*
X93110000Y-107590000D03*
%TO.P,U1,20,GPIO15*%
%TO.N,unconnected-(U1-Pad20)*%
X93110000Y-110130000D03*
D13*
X92210000Y-110130000D03*
%TO.P,U1,21,GPIO16*%
%TO.N,unconnected-(U1-Pad21)*%
X111790000Y-110130000D03*
D12*
X110890000Y-110130000D03*
D13*
%TO.P,U1,22,GPIO17*%
%TO.N,ENC3_B*%
X111790000Y-107590000D03*
D12*
X110890000Y-107590000D03*
D14*
%TO.P,U1,23,GND*%
%TO.N,GND*%
X110890000Y-105050000D03*
D13*
X111790000Y-105050000D03*
%TO.P,U1,24,GPIO18*%
%TO.N,ENC3_A*%
X111790000Y-102510000D03*
D12*
X110890000Y-102510000D03*
D13*
%TO.P,U1,25,GPIO19*%
%TO.N,ENC2_B*%
X111790000Y-99970000D03*
D12*
X110890000Y-99970000D03*
D13*
%TO.P,U1,26,GPIO20*%
%TO.N,ENC2_A*%
X111790000Y-97430000D03*
D12*
X110890000Y-97430000D03*
D13*
%TO.P,U1,27,GPIO21*%
%TO.N,ENC1_B*%
X111790000Y-94890000D03*
D12*
X110890000Y-94890000D03*
D13*
%TO.P,U1,28,GND*%
%TO.N,GND*%
X111790000Y-92350000D03*
D14*
X110890000Y-92350000D03*
D13*
%TO.P,U1,29,GPIO22*%
%TO.N,ENC1_A*%
X111790000Y-89810000D03*
D12*
X110890000Y-89810000D03*
%TO.P,U1,30,RUN*%
%TO.N,unconnected-(U1-Pad30)*%
X110890000Y-87270000D03*
D13*
X111790000Y-87270000D03*
%TO.P,U1,31,GPIO26_ADC0*%
%TO.N,unconnected-(U1-Pad31)*%
X111790000Y-84730000D03*
D12*
X110890000Y-84730000D03*
D13*
%TO.P,U1,32,GPIO27_ADC1*%
%TO.N,unconnected-(U1-Pad32)*%
X111790000Y-82190000D03*
D12*
X110890000Y-82190000D03*
D14*
%TO.P,U1,33,AGND*%
%TO.N,unconnected-(U1-Pad33)*%
X110890000Y-79650000D03*
D13*
X111790000Y-79650000D03*
%TO.P,U1,34,GPIO28_ADC2*%
%TO.N,unconnected-(U1-Pad34)*%
X111790000Y-77110000D03*
D12*
X110890000Y-77110000D03*
%TO.P,U1,35,ADC_VREF*%
%TO.N,unconnected-(U1-Pad35)*%
X110890000Y-74570000D03*
D13*
X111790000Y-74570000D03*
%TO.P,U1,36,3V3*%
%TO.N,+3V3*%
X111790000Y-72030000D03*
D12*
X110890000Y-72030000D03*
%TO.P,U1,37,3V3_EN*%
%TO.N,unconnected-(U1-Pad37)*%
X110890000Y-69490000D03*
D13*
X111790000Y-69490000D03*
D14*
%TO.P,U1,38,GND*%
%TO.N,GND*%
X110890000Y-66950000D03*
D13*
X111790000Y-66950000D03*
D12*
%TO.P,U1,39,VSYS*%
%TO.N,+5V*%
X110890000Y-64410000D03*
D13*
X111790000Y-64410000D03*
D12*
%TO.P,U1,40,VBUS*%
%TO.N,unconnected-(U1-Pad40)*%
X110890000Y-61870000D03*
D13*
X111790000Y-61870000D03*
D12*
%TO.P,U1,41,SWCLK*%
%TO.N,unconnected-(U1-Pad41)*%
X99460000Y-109900000D03*
D15*
X99460000Y-110800000D03*
D14*
%TO.P,U1,42,GND*%
%TO.N,GND*%
X102000000Y-109900000D03*
D15*
X102000000Y-110800000D03*
%TO.P,U1,43,SWDIO*%
%TO.N,unconnected-(U1-Pad43)*%
X104540000Y-110800000D03*
D12*
X104540000Y-109900000D03*
%TD*%
D16*
%TO.P,D1,1,K*%
%TO.N,GND*%
X77425000Y-155000000D03*
%TO.P,D1,2,A*%
%TO.N,LEDA*%
X75375000Y-155000000D03*
%TD*%
%TO.P,D2,1,K*%
%TO.N,GND*%
X77425000Y-147400000D03*
%TO.P,D2,2,A*%
%TO.N,LEDB*%
X75375000Y-147400000D03*
%TD*%
%TO.P,D3,1,K*%
%TO.N,GND*%
X77425000Y-139400000D03*
%TO.P,D3,2,A*%
%TO.N,LEDC*%
X75375000Y-139400000D03*
%TD*%
D17*
%TO.P,J1,1,Pin_1*%
%TO.N,MOTOR1_PWM*%
X76000000Y-63000000D03*
D18*
%TO.P,J1,2,Pin_2*%
%TO.N,MOTOR1_DIR*%
X76000000Y-65500000D03*
%TD*%
D17*
%TO.P,J2,1,Pin_1*%
%TO.N,MOTOR2_PWM*%
X83750000Y-77500000D03*
D18*
%TO.P,J2,2,Pin_2*%
%TO.N,MOTOR2_DIR*%
X83750000Y-80000000D03*
%TD*%
D17*
%TO.P,J3,1,Pin_1*%
%TO.N,MOTOR3_PWM*%
X76000000Y-92500000D03*
D18*
%TO.P,J3,2,Pin_2*%
%TO.N,MOTOR3_DIR*%
X76000000Y-95000000D03*
%TD*%
D19*
%TO.P,J4,1,Pin_1*%
%TO.N,GND*%
X83500000Y-63000000D03*
D20*
%TO.P,J4,2,Pin_2*%
%TO.N,+3V3*%
X83500000Y-65500000D03*
%TO.P,J4,3,Pin_3*%
%TO.N,ENC1_A*%
X83500000Y-68000000D03*
%TO.P,J4,4,Pin_4*%
%TO.N,ENC1_B*%
X83500000Y-70500000D03*
%TD*%
D19*
%TO.P,J5,1,Pin_1*%
%TO.N,GND*%
X76000000Y-75000000D03*
D20*
%TO.P,J5,2,Pin_2*%
%TO.N,+3V3*%
X76000000Y-77500000D03*
%TO.P,J5,3,Pin_3*%
%TO.N,ENC2_A*%
X76000000Y-80000000D03*
%TO.P,J5,4,Pin_4*%
%TO.N,ENC2_B*%
X76000000Y-82500000D03*
%TD*%
D19*
%TO.P,J6,1,Pin_1*%
%TO.N,GND*%
X83500000Y-87500000D03*
D20*
%TO.P,J6,2,Pin_2*%
%TO.N,+3V3*%
X83500000Y-90000000D03*
%TO.P,J6,3,Pin_3*%
%TO.N,ENC3_A*%
X83500000Y-92500000D03*
%TO.P,J6,4,Pin_4*%
%TO.N,ENC3_B*%
X83500000Y-95000000D03*
%TD*%
D14*
%TO.P,J16,1,Pin_1*%
%TO.N,GND*%
X79500000Y-117000000D03*
D12*
%TO.P,J16,2,Pin_2*%
%TO.N,+5V*%
X82040000Y-117000000D03*
%TO.P,J16,3,Pin_3*%
%TO.N,SERVO4*%
X84580000Y-117000000D03*
%TD*%
D14*
%TO.P,J14,1,Pin_1*%
%TO.N,GND*%
X79500000Y-112000000D03*
D12*
%TO.P,J14,2,Pin_2*%
%TO.N,+5V*%
X82040000Y-112000000D03*
%TO.P,J14,3,Pin_3*%
%TO.N,SERVO3*%
X84580000Y-112000000D03*
%TD*%
D21*
%TO.P,J9,1,Pin_1*%
%TO.N,GND*%
X111000000Y-119000000D03*
D22*
%TO.P,J9,2,Pin_2*%
%TO.N,+BATT*%
X106000000Y-119000000D03*
%TD*%
D21*
%TO.P,J11,1,Pin_1*%
%TO.N,GND*%
X111000000Y-127000000D03*
D22*
%TO.P,J11,2,Pin_2*%
%TO.N,+BATT*%
X106000000Y-127000000D03*
%TD*%
D21*
%TO.P,J8,1,Pin_1*%
%TO.N,GND*%
X111000000Y-135000000D03*
D22*
%TO.P,J8,2,Pin_2*%
%TO.N,+BATT*%
X106000000Y-135000000D03*
%TD*%
D14*
%TO.P,J13,1,Pin_1*%
%TO.N,GND*%
X79500000Y-102000000D03*
D12*
%TO.P,J13,2,Pin_2*%
%TO.N,+5V*%
X82040000Y-102000000D03*
%TO.P,J13,3,Pin_3*%
%TO.N,SERVO1*%
X84580000Y-102000000D03*
%TD*%
D23*
%TO.P,J12,1,Pin_1*%
%TO.N,GND*%
X74500000Y-127000000D03*
D24*
%TO.P,J12,2,Pin_2*%
%TO.N,+5VD*%
X77000000Y-127000000D03*
%TD*%
D25*
%TO.P,D6,1,K*%
%TO.N,+5V*%
X93300000Y-118000000D03*
%TO.P,D6,2,A*%
%TO.N,Net-(D6-Pad2)*%
X98700000Y-118000000D03*
%TD*%
D21*
%TO.P,J10,1,Pin_1*%
%TO.N,GND*%
X111000000Y-142750000D03*
D22*
%TO.P,J10,2,Pin_2*%
%TO.N,+BATT*%
X106000000Y-142750000D03*
%TD*%
D10*
%TO.P,U2,1,GND*%
%TO.N,GND*%
X85225000Y-141735000D03*
D11*
%TO.P,U2,2,VO*%
%TO.N,Net-(D5-Pad2)*%
X94375000Y-144275000D03*
D10*
%TO.P,U2,3,VI*%
%TO.N,Net-(D4-Pad1)*%
X85225000Y-146815000D03*
%TD*%
D25*
%TO.P,D5,1,K*%
%TO.N,+5VD*%
X82600000Y-135500000D03*
%TO.P,D5,2,A*%
%TO.N,Net-(D5-Pad2)*%
X88000000Y-135500000D03*
%TD*%
D21*
%TO.P,J7,1,Pin_1*%
%TO.N,GND*%
X111000000Y-152500000D03*
D26*
%TO.P,J7,2,Pin_2*%
%TO.N,+BATT*%
X106000000Y-152500000D03*
%TD*%
D25*
%TO.P,D4,1,K*%
%TO.N,Net-(D4-Pad1)*%
X91350000Y-152750000D03*
%TO.P,D4,2,A*%
%TO.N,+BATT*%
X96750000Y-152750000D03*
%TD*%
D14*
%TO.P,J15,1,Pin_1*%
%TO.N,GND*%
X79500000Y-107000000D03*
D12*
%TO.P,J15,2,Pin_2*%
%TO.N,+5V*%
X82040000Y-107000000D03*
%TO.P,J15,3,Pin_3*%
%TO.N,SERVO2*%
X84580000Y-107000000D03*
%TD*%
D27*
%TO.N,GND*%
X85600000Y-143800000D03*
X83500000Y-143800000D03*
X86600000Y-143800000D03*
X84600000Y-143800000D03*
X78800000Y-155000000D03*
X78800000Y-147400000D03*
X79000000Y-139400000D03*
%TO.N,Net-(D5-Pad2)*%
X95600000Y-149000000D03*
X90400000Y-147200000D03*
X97000000Y-145400000D03*
X97000000Y-149000000D03*
X93800000Y-141800000D03*
X95600000Y-147200000D03*
X93800000Y-145400000D03*
X98400000Y-149000000D03*
X95600000Y-139800000D03*
X93800000Y-143600000D03*
X93800000Y-147200000D03*
X95600000Y-145400000D03*
X92200000Y-143600000D03*
X97000000Y-141800000D03*
X95600000Y-143600000D03*
X98400000Y-141800000D03*
X98400000Y-139800000D03*
X98400000Y-143600000D03*
X98400000Y-147200000D03*
X93800000Y-149000000D03*
X97000000Y-143600000D03*
X92200000Y-147200000D03*
X92200000Y-149000000D03*
X90400000Y-143600000D03*
X92200000Y-145400000D03*
X90400000Y-149000000D03*
X98400000Y-145400000D03*
X90400000Y-145400000D03*
X93800000Y-139800000D03*
X95600000Y-141800000D03*
X90400000Y-139800000D03*
X92200000Y-139800000D03*
X97000000Y-147200000D03*
X92200000Y-141800000D03*
X97000000Y-139800000D03*
X90400000Y-141800000D03*
%TO.N,Net-(D6-Pad2)*%
X95600000Y-122400000D03*
X97000000Y-122400000D03*
X98400000Y-131600000D03*
X95600000Y-126200000D03*
X92200000Y-126200000D03*
X93800000Y-124400000D03*
X90400000Y-124400000D03*
X93800000Y-128000000D03*
X92200000Y-124400000D03*
X97000000Y-129800000D03*
X92200000Y-128000000D03*
X90400000Y-126200000D03*
X90400000Y-128000000D03*
X92200000Y-129800000D03*
X98400000Y-124400000D03*
X97000000Y-131600000D03*
X97000000Y-124400000D03*
X97000000Y-128000000D03*
X98400000Y-128000000D03*
X93800000Y-126200000D03*
X95600000Y-129800000D03*
X95600000Y-124400000D03*
X93800000Y-129800000D03*
X97000000Y-126200000D03*
X90400000Y-131600000D03*
X93800000Y-122400000D03*
X92200000Y-122400000D03*
X93800000Y-131600000D03*
X98400000Y-122400000D03*
X98400000Y-129800000D03*
X92200000Y-131600000D03*
X95600000Y-128000000D03*
X98400000Y-126200000D03*
X95600000Y-131600000D03*
X90400000Y-122400000D03*
X90400000Y-129800000D03*
D28*
%TO.N,LEDA*%
X74000000Y-152800000D03*
%TO.N,LEDB*%
X75200000Y-145200000D03*
%TO.N,LEDC*%
X75099500Y-136600000D03*
D27*
%TO.N,GND*%
X84600000Y-142800000D03*
X85600000Y-142800000D03*
X86600000Y-142800000D03*
X83500000Y-142800000D03*
D28*
%TO.N,ENC2_B*%
X97000000Y-86080000D03*
X89500000Y-84000000D03*
%TD*%
D29*
%TO.N,GND*%
X77425000Y-155000000D02*
X78800000Y-155000000D01*
X77425000Y-147400000D02*
X78800000Y-147400000D01*
X77425000Y-139400000D02*
X79000000Y-139400000D01*
%TO.N,LEDA*%
X75375000Y-154175000D02*
X75375000Y-155000000D01*
X74000000Y-152800000D02*
X75375000Y-154175000D01*
%TO.N,LEDB*%
X75200000Y-145200000D02*
X75200000Y-147225000D01*
X75200000Y-147225000D02*
X75375000Y-147400000D01*
%TO.N,LEDC*%
X75099500Y-139124500D02*
X75375000Y-139400000D01*
X75099500Y-136600000D02*
X75099500Y-139124500D01*
D30*
%TO.N,GND*%
X79500000Y-117000000D02*
X79500000Y-118735000D01*
X79500000Y-118735000D02*
X85225000Y-124460000D01*
%TO.N,Net-(D4-Pad1)*%
X85225000Y-152625000D02*
X85225000Y-146815000D01*
X85350000Y-152750000D02*
X85225000Y-152625000D01*
D31*
X88500000Y-145290000D02*
X88500000Y-141000000D01*
X88500000Y-141000000D02*
X85225000Y-137725000D01*
D30*
X91350000Y-152750000D02*
X85350000Y-152750000D01*
D31*
X85225000Y-137725000D02*
X85225000Y-129540000D01*
X86975000Y-146815000D02*
X88500000Y-145290000D01*
X85225000Y-146815000D02*
X86975000Y-146815000D01*
D30*
%TO.N,+BATT*%
X97000000Y-152500000D02*
X96750000Y-152750000D01*
X106000000Y-152500000D02*
X97000000Y-152500000D01*
%TO.N,+5VD*%
X82000000Y-135500000D02*
X74500000Y-128000000D01*
X74500000Y-128000000D02*
X74500000Y-127000000D01*
X82600000Y-135500000D02*
X82000000Y-135500000D01*
D31*
%TO.N,Net-(D5-Pad2)*%
X91500000Y-135500000D02*
X88000000Y-135500000D01*
X94375000Y-138375000D02*
X91500000Y-135500000D01*
X94375000Y-144275000D02*
X94375000Y-138375000D01*
%TO.N,+5V*%
X113249022Y-64410000D02*
X110890000Y-64410000D01*
X111919022Y-114000000D02*
X116000000Y-109919022D01*
X82000000Y-102000000D02*
X82000000Y-107000000D01*
X83589511Y-118549511D02*
X82040000Y-117000000D01*
X116000000Y-67160978D02*
X113249022Y-64410000D01*
X97300000Y-114000000D02*
X111919022Y-114000000D01*
X82000000Y-112000000D02*
X82000000Y-117000000D01*
X92750489Y-118549511D02*
X83589511Y-118549511D01*
X93300000Y-118000000D02*
X97300000Y-114000000D01*
X116000000Y-109919022D02*
X116000000Y-67160978D01*
X82000000Y-107000000D02*
X82000000Y-112000000D01*
X93300000Y-118000000D02*
X92750489Y-118549511D01*
%TO.N,Net-(D6-Pad2)*%
X98700000Y-122675000D02*
X94375000Y-127000000D01*
X98700000Y-118000000D02*
X98700000Y-122675000D01*
D29*
%TO.N,SERVO1*%
X84580000Y-102000000D02*
X84580000Y-100797919D01*
X84580000Y-100797919D02*
X90487919Y-94890000D01*
X90487919Y-94890000D02*
X93110000Y-94890000D01*
%TO.N,SERVO3*%
X87000000Y-104420978D02*
X91450978Y-99970000D01*
X87000000Y-109580000D02*
X87000000Y-104420978D01*
X91450978Y-99970000D02*
X93110000Y-99970000D01*
X84580000Y-112000000D02*
X87000000Y-109580000D01*
%TO.N,SERVO2*%
X84580000Y-107000000D02*
X84580000Y-104300978D01*
X84580000Y-104300978D02*
X91450978Y-97430000D01*
X91450978Y-97430000D02*
X93110000Y-97430000D01*
%TO.N,SERVO4*%
X91450978Y-102510000D02*
X93110000Y-102510000D01*
X84580000Y-117000000D02*
X88500000Y-113080000D01*
X88500000Y-105460978D02*
X91450978Y-102510000D01*
X88500000Y-113080000D02*
X88500000Y-105460978D01*
%TO.N,MOTOR1_DIR*%
X76000000Y-65500000D02*
X76000000Y-66000000D01*
X84570000Y-74570000D02*
X93110000Y-74570000D01*
X76000000Y-66000000D02*
X84570000Y-74570000D01*
%TO.N,MOTOR1_PWM*%
X85249103Y-74070480D02*
X87429520Y-74070480D01*
X78000000Y-66821377D02*
X85249103Y-74070480D01*
X76000000Y-63000000D02*
X76000000Y-63500000D01*
X78000000Y-65500000D02*
X78000000Y-66821377D01*
X76000000Y-63500000D02*
X78000000Y-65500000D01*
X87429520Y-74070480D02*
X89470000Y-72030000D01*
X89470000Y-72030000D02*
X93110000Y-72030000D01*
%TO.N,MOTOR2_DIR*%
X83750000Y-80000000D02*
X85940000Y-82190000D01*
X85940000Y-82190000D02*
X93110000Y-82190000D01*
%TO.N,MOTOR2_PWM*%
X84140000Y-77110000D02*
X93110000Y-77110000D01*
X83750000Y-77500000D02*
X84140000Y-77110000D01*
%TO.N,MOTOR3_DIR*%
X76000000Y-95000000D02*
X77500000Y-93500000D01*
X91040480Y-87270000D02*
X93110000Y-87270000D01*
X77500000Y-90206428D02*
X82476908Y-85229520D01*
X82476908Y-85229520D02*
X89000000Y-85229520D01*
X77500000Y-93500000D02*
X77500000Y-90206428D01*
X89000000Y-85229520D02*
X91040480Y-87270000D01*
%TO.N,MOTOR3_PWM*%
X82270000Y-84730000D02*
X93110000Y-84730000D01*
X76000000Y-92500000D02*
X76000000Y-91000000D01*
X76000000Y-91000000D02*
X82270000Y-84730000D01*
%TO.N,ENC1_B*%
X107500000Y-91359022D02*
X110890000Y-94749022D01*
X83830489Y-70830489D02*
X98330489Y-70830489D01*
X110890000Y-94749022D02*
X110890000Y-94890000D01*
X98330489Y-70830489D02*
X107500000Y-80000000D01*
X83500000Y-70500000D02*
X83830489Y-70830489D01*
X107500000Y-80000000D02*
X107500000Y-91359022D01*
%TO.N,ENC1_A*%
X108000000Y-79000000D02*
X108000000Y-86920000D01*
X97290489Y-68290489D02*
X108000000Y-79000000D01*
X108000000Y-86920000D02*
X110890000Y-89810000D01*
X83500000Y-68000000D02*
X83790489Y-68290489D01*
X83790489Y-68290489D02*
X97290489Y-68290489D01*
%TO.N,+3V3*%
X83500000Y-90000000D02*
X76000000Y-97500000D01*
X73500000Y-77500000D02*
X76000000Y-77500000D01*
X72500000Y-78500000D02*
X73500000Y-77500000D01*
X74150480Y-75650480D02*
X74150480Y-61349520D01*
X72500000Y-96500000D02*
X72500000Y-78500000D01*
X99612801Y-60500000D02*
X88500000Y-60500000D01*
X74150480Y-61349520D02*
X75000000Y-60500000D01*
X73500000Y-97500000D02*
X72500000Y-96500000D01*
X75000000Y-60500000D02*
X78500000Y-60500000D01*
X76000000Y-77500000D02*
X74150480Y-75650480D01*
X108000000Y-69000000D02*
X106769331Y-69000000D01*
X102000000Y-62887199D02*
X99612801Y-60500000D01*
X106769331Y-69000000D02*
X102000000Y-64230669D01*
X76000000Y-97500000D02*
X73500000Y-97500000D01*
X110890000Y-72030000D02*
X110890000Y-71890000D01*
X88500000Y-60500000D02*
X83500000Y-65500000D01*
X78500000Y-60500000D02*
X83500000Y-65500000D01*
X102000000Y-64230669D02*
X102000000Y-62887199D01*
X110890000Y-71890000D02*
X108000000Y-69000000D01*
%TO.N,ENC2_B*%
X97000000Y-86080000D02*
X110890000Y-99970000D01*
X76000000Y-82500000D02*
X77500000Y-84000000D01*
X77500000Y-84000000D02*
X89500000Y-84000000D01*
%TO.N,ENC2_A*%
X96849511Y-83389511D02*
X110890000Y-97430000D01*
X76000000Y-80500000D02*
X78889511Y-83389511D01*
X78889511Y-83389511D02*
X96849511Y-83389511D01*
X76000000Y-80000000D02*
X76000000Y-80500000D01*
%TO.N,ENC3_B*%
X84809511Y-93690489D02*
X101190489Y-93690489D01*
X83500000Y-95000000D02*
X84809511Y-93690489D01*
X109500000Y-102000000D02*
X109500000Y-106200000D01*
X101190489Y-93690489D02*
X109500000Y-102000000D01*
X109500000Y-106200000D02*
X110890000Y-107590000D01*
%TO.N,ENC3_A*%
X84849511Y-91150489D02*
X99530489Y-91150489D01*
X83500000Y-92500000D02*
X84849511Y-91150489D01*
X99530489Y-91150489D02*
X110890000Y-102510000D01*
%TD*%
%TA.AperFunction,Conductor*%
%TO.N,+BATT*%
G36*
X117004487Y-115350321D02*
G01*
X117053871Y-115353853D01*
X117275650Y-115369715D01*
X117293433Y-115372272D01*
X117554658Y-115429098D01*
X117571900Y-115434160D01*
X117822393Y-115527589D01*
X117838740Y-115535055D01*
X118073375Y-115663176D01*
X118088498Y-115672895D01*
X118302510Y-115833103D01*
X118316096Y-115844876D01*
X118455095Y-115983875D01*
X118489121Y-116046187D01*
X118492000Y-116072970D01*
X118492000Y-157950672D01*
X118490500Y-157970056D01*
X118486814Y-157993730D01*
X118487978Y-158002632D01*
X118487978Y-158002634D01*
X118488805Y-158008955D01*
X118489548Y-158034281D01*
X118474912Y-158238921D01*
X118472354Y-158256715D01*
X118423353Y-158481972D01*
X118418290Y-158499216D01*
X118401798Y-158543433D01*
X118337727Y-158715214D01*
X118330258Y-158731567D01*
X118219782Y-158933887D01*
X118210063Y-158949010D01*
X118071913Y-159133556D01*
X118060140Y-159147142D01*
X117897142Y-159310140D01*
X117883556Y-159321913D01*
X117699010Y-159460063D01*
X117683890Y-159469780D01*
X117481562Y-159580260D01*
X117465219Y-159587725D01*
X117249216Y-159668290D01*
X117231977Y-159673352D01*
X117086054Y-159705095D01*
X117006715Y-159722354D01*
X116988921Y-159724912D01*
X116791369Y-159739041D01*
X116773468Y-159738297D01*
X116765142Y-159738195D01*
X116756270Y-159736814D01*
X116747368Y-159737978D01*
X116747365Y-159737978D01*
X116724749Y-159740936D01*
X116708411Y-159742000D01*
X101472970Y-159742000D01*
X101404849Y-159721998D01*
X101383875Y-159705095D01*
X101244876Y-159566096D01*
X101233103Y-159552510D01*
X101072895Y-159338498D01*
X101063176Y-159323375D01*
X100935055Y-159088740D01*
X100927589Y-159072393D01*
X100834160Y-158821900D01*
X100829097Y-158804654D01*
X100772272Y-158543433D01*
X100769714Y-158525645D01*
X100767825Y-158499222D01*
X100750321Y-158254487D01*
X100750000Y-158245499D01*
X100750000Y-154448134D01*
X108591500Y-154448134D01*
X108598255Y-154510316D01*
X108649385Y-154646705D01*
X108736739Y-154763261D01*
X108853295Y-154850615D01*
X108989684Y-154901745D01*
X109051866Y-154908500D01*
X112948134Y-154908500D01*
X113010316Y-154901745D01*
X113146705Y-154850615D01*
X113263261Y-154763261D01*
X113350615Y-154646705D01*
X113401745Y-154510316D01*
X113408500Y-154448134D01*
X113408500Y-150551866D01*
X113401745Y-150489684D01*
X113350615Y-150353295D01*
X113263261Y-150236739D01*
X113146705Y-150149385D01*
X113010316Y-150098255D01*
X112948134Y-150091500D01*
X109051866Y-150091500D01*
X108989684Y-150098255D01*
X108853295Y-150149385D01*
X108736739Y-150236739D01*
X108649385Y-150353295D01*
X108598255Y-150489684D01*
X108591500Y-150551866D01*
X108591500Y-154448134D01*
X100750000Y-154448134D01*
X100750000Y-144698134D01*
X108591500Y-144698134D01*
X108598255Y-144760316D01*
X108649385Y-144896705D01*
X108736739Y-145013261D01*
X108853295Y-145100615D01*
X108989684Y-145151745D01*
X109051866Y-145158500D01*
X112948134Y-145158500D01*
X113010316Y-145151745D01*
X113146705Y-145100615D01*
X113263261Y-145013261D01*
X113350615Y-144896705D01*
X113401745Y-144760316D01*
X113408500Y-144698134D01*
X113408500Y-140801866D01*
X113401745Y-140739684D01*
X113350615Y-140603295D01*
X113263261Y-140486739D01*
X113146705Y-140399385D01*
X113010316Y-140348255D01*
X112948134Y-140341500D01*
X109051866Y-140341500D01*
X108989684Y-140348255D01*
X108853295Y-140399385D01*
X108736739Y-140486739D01*
X108649385Y-140603295D01*
X108598255Y-140739684D01*
X108591500Y-140801866D01*
X108591500Y-144698134D01*
X100750000Y-144698134D01*
X100750000Y-136948134D01*
X108591500Y-136948134D01*
X108598255Y-137010316D01*
X108649385Y-137146705D01*
X108736739Y-137263261D01*
X108853295Y-137350615D01*
X108989684Y-137401745D01*
X109051866Y-137408500D01*
X112948134Y-137408500D01*
X113010316Y-137401745D01*
X113146705Y-137350615D01*
X113263261Y-137263261D01*
X113350615Y-137146705D01*
X113401745Y-137010316D01*
X113408500Y-136948134D01*
X113408500Y-133051866D01*
X113401745Y-132989684D01*
X113350615Y-132853295D01*
X113263261Y-132736739D01*
X113146705Y-132649385D01*
X113010316Y-132598255D01*
X112948134Y-132591500D01*
X109051866Y-132591500D01*
X108989684Y-132598255D01*
X108853295Y-132649385D01*
X108736739Y-132736739D01*
X108649385Y-132853295D01*
X108598255Y-132989684D01*
X108591500Y-133051866D01*
X108591500Y-136948134D01*
X100750000Y-136948134D01*
X100750000Y-128948134D01*
X108591500Y-128948134D01*
X108598255Y-129010316D01*
X108649385Y-129146705D01*
X108736739Y-129263261D01*
X108853295Y-129350615D01*
X108989684Y-129401745D01*
X109051866Y-129408500D01*
X112948134Y-129408500D01*
X113010316Y-129401745D01*
X113146705Y-129350615D01*
X113263261Y-129263261D01*
X113350615Y-129146705D01*
X113401745Y-129010316D01*
X113408500Y-128948134D01*
X113408500Y-125051866D01*
X113401745Y-124989684D01*
X113350615Y-124853295D01*
X113263261Y-124736739D01*
X113146705Y-124649385D01*
X113010316Y-124598255D01*
X112948134Y-124591500D01*
X109051866Y-124591500D01*
X108989684Y-124598255D01*
X108853295Y-124649385D01*
X108736739Y-124736739D01*
X108649385Y-124853295D01*
X108598255Y-124989684D01*
X108591500Y-125051866D01*
X108591500Y-128948134D01*
X100750000Y-128948134D01*
X100750000Y-120948134D01*
X108591500Y-120948134D01*
X108598255Y-121010316D01*
X108649385Y-121146705D01*
X108736739Y-121263261D01*
X108853295Y-121350615D01*
X108989684Y-121401745D01*
X109051866Y-121408500D01*
X112948134Y-121408500D01*
X113010316Y-121401745D01*
X113146705Y-121350615D01*
X113263261Y-121263261D01*
X113350615Y-121146705D01*
X113401745Y-121010316D01*
X113408500Y-120948134D01*
X113408500Y-117051866D01*
X113401745Y-116989684D01*
X113350615Y-116853295D01*
X113263261Y-116736739D01*
X113146705Y-116649385D01*
X113010316Y-116598255D01*
X112948134Y-116591500D01*
X109051866Y-116591500D01*
X108989684Y-116598255D01*
X108853295Y-116649385D01*
X108736739Y-116736739D01*
X108649385Y-116853295D01*
X108598255Y-116989684D01*
X108591500Y-117051866D01*
X108591500Y-120948134D01*
X100750000Y-120948134D01*
X100750000Y-119623700D01*
X100770002Y-119555579D01*
X100800436Y-119522873D01*
X100806078Y-119518645D01*
X100806081Y-119518642D01*
X100813261Y-119513261D01*
X100818642Y-119506081D01*
X100818645Y-119506078D01*
X100895229Y-119403891D01*
X100900615Y-119396705D01*
X100951745Y-119260316D01*
X100958500Y-119198134D01*
X100958500Y-116801866D01*
X100951745Y-116739684D01*
X100948973Y-116732288D01*
X100948971Y-116732282D01*
X100916524Y-116645731D01*
X100911341Y-116574924D01*
X100916447Y-116557480D01*
X100927590Y-116527605D01*
X100935053Y-116511264D01*
X101063176Y-116276625D01*
X101072895Y-116261502D01*
X101233103Y-116047490D01*
X101244876Y-116033904D01*
X101433904Y-115844876D01*
X101447490Y-115833103D01*
X101661502Y-115672895D01*
X101676625Y-115663176D01*
X101911260Y-115535055D01*
X101927607Y-115527589D01*
X102178100Y-115434160D01*
X102195342Y-115429098D01*
X102456567Y-115372272D01*
X102474350Y-115369715D01*
X102696129Y-115353853D01*
X102745513Y-115350321D01*
X102754501Y-115350000D01*
X116995499Y-115350000D01*
X117004487Y-115350321D01*
G37*
%TD.AperFunction*%
%TD*%
%TA.AperFunction,Conductor*%
%TO.N,GND*%
G36*
X86204487Y-140800321D02*
G01*
X86268812Y-140804921D01*
X86447183Y-140817679D01*
X86464972Y-140820236D01*
X86645848Y-140859584D01*
X86698311Y-140870997D01*
X86715560Y-140876061D01*
X86939309Y-140959515D01*
X86955655Y-140966980D01*
X87127201Y-141060652D01*
X87155910Y-141082144D01*
X87454595Y-141380829D01*
X87488621Y-141443141D01*
X87491500Y-141469924D01*
X87491500Y-143795408D01*
X87471498Y-143863529D01*
X87454595Y-143884503D01*
X87385124Y-143953974D01*
X87371538Y-143965747D01*
X87180367Y-144108856D01*
X87165247Y-144118573D01*
X86955655Y-144233020D01*
X86939309Y-144240485D01*
X86753015Y-144309969D01*
X86715559Y-144323939D01*
X86698310Y-144329003D01*
X86464972Y-144379764D01*
X86447183Y-144382321D01*
X86268812Y-144395079D01*
X86204487Y-144399679D01*
X86195499Y-144400000D01*
X84404501Y-144400000D01*
X84395513Y-144399679D01*
X84331188Y-144395079D01*
X84152817Y-144382321D01*
X84135028Y-144379764D01*
X83901690Y-144329003D01*
X83884441Y-144323939D01*
X83846985Y-144309969D01*
X83660691Y-144240485D01*
X83644345Y-144233020D01*
X83434753Y-144118573D01*
X83419633Y-144108856D01*
X83228462Y-143965747D01*
X83214876Y-143953974D01*
X83046026Y-143785124D01*
X83034253Y-143771538D01*
X82891144Y-143580367D01*
X82881425Y-143565244D01*
X82766982Y-143355659D01*
X82759513Y-143339305D01*
X82676061Y-143115559D01*
X82670997Y-143098311D01*
X82620237Y-142864976D01*
X82617678Y-142847180D01*
X82600643Y-142608988D01*
X82600643Y-142591012D01*
X82617678Y-142352820D01*
X82620237Y-142335024D01*
X82670997Y-142101689D01*
X82676061Y-142084441D01*
X82759513Y-141860695D01*
X82766982Y-141844341D01*
X82881425Y-141634756D01*
X82891144Y-141619633D01*
X83034253Y-141428462D01*
X83046026Y-141414876D01*
X83214876Y-141246026D01*
X83228462Y-141234253D01*
X83419633Y-141091144D01*
X83434753Y-141081427D01*
X83644345Y-140966980D01*
X83660691Y-140959515D01*
X83884440Y-140876061D01*
X83901689Y-140870997D01*
X83954152Y-140859584D01*
X84135028Y-140820236D01*
X84152817Y-140817679D01*
X84331188Y-140804921D01*
X84395513Y-140800321D01*
X84404501Y-140800000D01*
X86195499Y-140800000D01*
X86204487Y-140800321D01*
G37*
%TD.AperFunction*%
%TD*%
M02*
