%FSLAX45Y45*%
G04 Gerber Fmt 4.5, Leading zero omitted, Abs format (unit mm)*
G04 Created by KiCad (PCBNEW (6.0.0)) date 2022-01-02 23:15:30*
%MOMM*%
%LPD*%
G01*
G04 APERTURE LIST*
%TA.AperFunction,Profile*%
%ADD10C,0.050000*%
%TD*%
%ADD11C,0.200000*%
%ADD12C,0.030000*%
%ADD13C,0.040000*%
%ADD14C,0.095000*%
%ADD15C,0.100000*%
%ADD16C,0.102000*%
%ADD17C,0.270000*%
G04 APERTURE END LIST*
D10*
X6900000Y-6025000D02*
X6900000Y-15800000D01*
X11900000Y-15800000D02*
X11900000Y-6025000D01*
X7125000Y-5800000D02*
G75*
G03*
X6900000Y-6025000I0J-225000D01*
G01*
X7125000Y-16025000D02*
X11675000Y-16025000D01*
X11675000Y-16025000D02*
G75*
G03*
X11900000Y-15800000I0J225000D01*
G01*
X6900000Y-15800000D02*
G75*
G03*
X7125000Y-16025000I225000J0D01*
G01*
X11900000Y-6025000D02*
G75*
G03*
X11675000Y-5800000I-225000J0D01*
G01*
X11675000Y-5800000D02*
X7125000Y-5800000D01*
D11*
D12*
X7385000Y-15265000D02*
X7415000Y-15295000D01*
X7415000Y-15265000D02*
X7385000Y-15295000D01*
X7494950Y-13645000D02*
X7524950Y-13675000D01*
X7524950Y-13645000D02*
X7494950Y-13675000D01*
X7505000Y-14505000D02*
X7535000Y-14535000D01*
X7535000Y-14505000D02*
X7505000Y-14535000D01*
X8935000Y-8385000D02*
X8965000Y-8415000D01*
X8965000Y-8385000D02*
X8935000Y-8415000D01*
X9685000Y-8593000D02*
X9715000Y-8623000D01*
X9715000Y-8593000D02*
X9685000Y-8623000D01*
D13*
X7900000Y-14740000D02*
G75*
G03*
X7900000Y-14740000I-20000J0D01*
G01*
X7900000Y-15500000D02*
G75*
G03*
X7900000Y-15500000I-20000J0D01*
G01*
X7920000Y-13940000D02*
G75*
G03*
X7920000Y-13940000I-20000J0D01*
G01*
X8370000Y-14280000D02*
G75*
G03*
X8370000Y-14280000I-20000J0D01*
G01*
X8370000Y-14380000D02*
G75*
G03*
X8370000Y-14380000I-20000J0D01*
G01*
X8480000Y-14280000D02*
G75*
G03*
X8480000Y-14280000I-20000J0D01*
G01*
X8480000Y-14380000D02*
G75*
G03*
X8480000Y-14380000I-20000J0D01*
G01*
X8580000Y-14280000D02*
G75*
G03*
X8580000Y-14280000I-20000J0D01*
G01*
X8580000Y-14380000D02*
G75*
G03*
X8580000Y-14380000I-20000J0D01*
G01*
X8680000Y-14280000D02*
G75*
G03*
X8680000Y-14280000I-20000J0D01*
G01*
X8680000Y-14380000D02*
G75*
G03*
X8680000Y-14380000I-20000J0D01*
G01*
X9060000Y-12240000D02*
G75*
G03*
X9060000Y-12240000I-20000J0D01*
G01*
X9060000Y-12440000D02*
G75*
G03*
X9060000Y-12440000I-20000J0D01*
G01*
X9060000Y-12620000D02*
G75*
G03*
X9060000Y-12620000I-20000J0D01*
G01*
X9060000Y-12800000D02*
G75*
G03*
X9060000Y-12800000I-20000J0D01*
G01*
X9060000Y-12980000D02*
G75*
G03*
X9060000Y-12980000I-20000J0D01*
G01*
X9060000Y-13160000D02*
G75*
G03*
X9060000Y-13160000I-20000J0D01*
G01*
X9060000Y-13980000D02*
G75*
G03*
X9060000Y-13980000I-20000J0D01*
G01*
X9060000Y-14180000D02*
G75*
G03*
X9060000Y-14180000I-20000J0D01*
G01*
X9060000Y-14360000D02*
G75*
G03*
X9060000Y-14360000I-20000J0D01*
G01*
X9060000Y-14540000D02*
G75*
G03*
X9060000Y-14540000I-20000J0D01*
G01*
X9060000Y-14720000D02*
G75*
G03*
X9060000Y-14720000I-20000J0D01*
G01*
X9060000Y-14900000D02*
G75*
G03*
X9060000Y-14900000I-20000J0D01*
G01*
X9240000Y-12240000D02*
G75*
G03*
X9240000Y-12240000I-20000J0D01*
G01*
X9240000Y-12440000D02*
G75*
G03*
X9240000Y-12440000I-20000J0D01*
G01*
X9240000Y-12620000D02*
G75*
G03*
X9240000Y-12620000I-20000J0D01*
G01*
X9240000Y-12800000D02*
G75*
G03*
X9240000Y-12800000I-20000J0D01*
G01*
X9240000Y-12980000D02*
G75*
G03*
X9240000Y-12980000I-20000J0D01*
G01*
X9240000Y-13160000D02*
G75*
G03*
X9240000Y-13160000I-20000J0D01*
G01*
X9240000Y-13980000D02*
G75*
G03*
X9240000Y-13980000I-20000J0D01*
G01*
X9240000Y-14180000D02*
G75*
G03*
X9240000Y-14180000I-20000J0D01*
G01*
X9240000Y-14360000D02*
G75*
G03*
X9240000Y-14360000I-20000J0D01*
G01*
X9240000Y-14540000D02*
G75*
G03*
X9240000Y-14540000I-20000J0D01*
G01*
X9240000Y-14720000D02*
G75*
G03*
X9240000Y-14720000I-20000J0D01*
G01*
X9240000Y-14900000D02*
G75*
G03*
X9240000Y-14900000I-20000J0D01*
G01*
X9400000Y-12240000D02*
G75*
G03*
X9400000Y-12240000I-20000J0D01*
G01*
X9400000Y-12440000D02*
G75*
G03*
X9400000Y-12440000I-20000J0D01*
G01*
X9400000Y-12620000D02*
G75*
G03*
X9400000Y-12620000I-20000J0D01*
G01*
X9400000Y-12800000D02*
G75*
G03*
X9400000Y-12800000I-20000J0D01*
G01*
X9400000Y-12980000D02*
G75*
G03*
X9400000Y-12980000I-20000J0D01*
G01*
X9400000Y-13160000D02*
G75*
G03*
X9400000Y-13160000I-20000J0D01*
G01*
X9400000Y-13980000D02*
G75*
G03*
X9400000Y-13980000I-20000J0D01*
G01*
X9400000Y-14180000D02*
G75*
G03*
X9400000Y-14180000I-20000J0D01*
G01*
X9400000Y-14360000D02*
G75*
G03*
X9400000Y-14360000I-20000J0D01*
G01*
X9400000Y-14540000D02*
G75*
G03*
X9400000Y-14540000I-20000J0D01*
G01*
X9400000Y-14720000D02*
G75*
G03*
X9400000Y-14720000I-20000J0D01*
G01*
X9400000Y-14900000D02*
G75*
G03*
X9400000Y-14900000I-20000J0D01*
G01*
X9580000Y-12240000D02*
G75*
G03*
X9580000Y-12240000I-20000J0D01*
G01*
X9580000Y-12440000D02*
G75*
G03*
X9580000Y-12440000I-20000J0D01*
G01*
X9580000Y-12620000D02*
G75*
G03*
X9580000Y-12620000I-20000J0D01*
G01*
X9580000Y-12800000D02*
G75*
G03*
X9580000Y-12800000I-20000J0D01*
G01*
X9580000Y-12980000D02*
G75*
G03*
X9580000Y-12980000I-20000J0D01*
G01*
X9580000Y-13160000D02*
G75*
G03*
X9580000Y-13160000I-20000J0D01*
G01*
X9580000Y-13980000D02*
G75*
G03*
X9580000Y-13980000I-20000J0D01*
G01*
X9580000Y-14180000D02*
G75*
G03*
X9580000Y-14180000I-20000J0D01*
G01*
X9580000Y-14360000D02*
G75*
G03*
X9580000Y-14360000I-20000J0D01*
G01*
X9580000Y-14540000D02*
G75*
G03*
X9580000Y-14540000I-20000J0D01*
G01*
X9580000Y-14720000D02*
G75*
G03*
X9580000Y-14720000I-20000J0D01*
G01*
X9580000Y-14900000D02*
G75*
G03*
X9580000Y-14900000I-20000J0D01*
G01*
X9720000Y-12240000D02*
G75*
G03*
X9720000Y-12240000I-20000J0D01*
G01*
X9720000Y-12440000D02*
G75*
G03*
X9720000Y-12440000I-20000J0D01*
G01*
X9720000Y-12620000D02*
G75*
G03*
X9720000Y-12620000I-20000J0D01*
G01*
X9720000Y-12800000D02*
G75*
G03*
X9720000Y-12800000I-20000J0D01*
G01*
X9720000Y-12980000D02*
G75*
G03*
X9720000Y-12980000I-20000J0D01*
G01*
X9720000Y-13160000D02*
G75*
G03*
X9720000Y-13160000I-20000J0D01*
G01*
X9720000Y-13980000D02*
G75*
G03*
X9720000Y-13980000I-20000J0D01*
G01*
X9720000Y-14180000D02*
G75*
G03*
X9720000Y-14180000I-20000J0D01*
G01*
X9720000Y-14360000D02*
G75*
G03*
X9720000Y-14360000I-20000J0D01*
G01*
X9720000Y-14540000D02*
G75*
G03*
X9720000Y-14540000I-20000J0D01*
G01*
X9720000Y-14720000D02*
G75*
G03*
X9720000Y-14720000I-20000J0D01*
G01*
X9720000Y-14900000D02*
G75*
G03*
X9720000Y-14900000I-20000J0D01*
G01*
X9860000Y-12240000D02*
G75*
G03*
X9860000Y-12240000I-20000J0D01*
G01*
X9860000Y-12440000D02*
G75*
G03*
X9860000Y-12440000I-20000J0D01*
G01*
X9860000Y-12620000D02*
G75*
G03*
X9860000Y-12620000I-20000J0D01*
G01*
X9860000Y-12800000D02*
G75*
G03*
X9860000Y-12800000I-20000J0D01*
G01*
X9860000Y-12980000D02*
G75*
G03*
X9860000Y-12980000I-20000J0D01*
G01*
X9860000Y-13160000D02*
G75*
G03*
X9860000Y-13160000I-20000J0D01*
G01*
X9860000Y-13980000D02*
G75*
G03*
X9860000Y-13980000I-20000J0D01*
G01*
X9860000Y-14180000D02*
G75*
G03*
X9860000Y-14180000I-20000J0D01*
G01*
X9860000Y-14360000D02*
G75*
G03*
X9860000Y-14360000I-20000J0D01*
G01*
X9860000Y-14540000D02*
G75*
G03*
X9860000Y-14540000I-20000J0D01*
G01*
X9860000Y-14720000D02*
G75*
G03*
X9860000Y-14720000I-20000J0D01*
G01*
X9860000Y-14900000D02*
G75*
G03*
X9860000Y-14900000I-20000J0D01*
G01*
D14*
X7600000Y-7452500D02*
X7600000Y-7547500D01*
X7552500Y-7500000D02*
X7647500Y-7500000D01*
X7600000Y-7702500D02*
X7600000Y-7797500D01*
X7552500Y-7750000D02*
X7647500Y-7750000D01*
X7600000Y-7952500D02*
X7600000Y-8047500D01*
X7552500Y-8000000D02*
X7647500Y-8000000D01*
X7600000Y-8202500D02*
X7600000Y-8297500D01*
X7552500Y-8250000D02*
X7647500Y-8250000D01*
X8350000Y-6252500D02*
X8350000Y-6347500D01*
X8302500Y-6300000D02*
X8397500Y-6300000D01*
X8350000Y-6502500D02*
X8350000Y-6597500D01*
X8302500Y-6550000D02*
X8397500Y-6550000D01*
X8350000Y-6752500D02*
X8350000Y-6847500D01*
X8302500Y-6800000D02*
X8397500Y-6800000D01*
X8350000Y-7002500D02*
X8350000Y-7097500D01*
X8302500Y-7050000D02*
X8397500Y-7050000D01*
X8350000Y-8702500D02*
X8350000Y-8797500D01*
X8302500Y-8750000D02*
X8397500Y-8750000D01*
X8350000Y-8952500D02*
X8350000Y-9047500D01*
X8302500Y-9000000D02*
X8397500Y-9000000D01*
X8350000Y-9202500D02*
X8350000Y-9297500D01*
X8302500Y-9250000D02*
X8397500Y-9250000D01*
X8350000Y-9452500D02*
X8350000Y-9547500D01*
X8302500Y-9500000D02*
X8397500Y-9500000D01*
D15*
X7485356Y-12735356D02*
X7485356Y-12664644D01*
X7414644Y-12664644D01*
X7414644Y-12735356D01*
X7485356Y-12735356D01*
X7635356Y-6335356D02*
X7635356Y-6264644D01*
X7564644Y-6264644D01*
X7564644Y-6335356D01*
X7635356Y-6335356D01*
X7635356Y-6585356D02*
X7635356Y-6514644D01*
X7564644Y-6514644D01*
X7564644Y-6585356D01*
X7635356Y-6585356D01*
X7635356Y-9285356D02*
X7635356Y-9214644D01*
X7564644Y-9214644D01*
X7564644Y-9285356D01*
X7635356Y-9285356D01*
X7635356Y-9535356D02*
X7635356Y-9464644D01*
X7564644Y-9464644D01*
X7564644Y-9535356D01*
X7635356Y-9535356D01*
X7735356Y-12735356D02*
X7735356Y-12664644D01*
X7664644Y-12664644D01*
X7664644Y-12735356D01*
X7735356Y-12735356D01*
X7985356Y-10235356D02*
X7985356Y-10164644D01*
X7914644Y-10164644D01*
X7914644Y-10235356D01*
X7985356Y-10235356D01*
X7985356Y-10735356D02*
X7985356Y-10664644D01*
X7914644Y-10664644D01*
X7914644Y-10735356D01*
X7985356Y-10735356D01*
X7985356Y-11235356D02*
X7985356Y-11164644D01*
X7914644Y-11164644D01*
X7914644Y-11235356D01*
X7985356Y-11235356D01*
X7985356Y-11735356D02*
X7985356Y-11664644D01*
X7914644Y-11664644D01*
X7914644Y-11735356D01*
X7985356Y-11735356D01*
X8239356Y-10235356D02*
X8239356Y-10164644D01*
X8168644Y-10164644D01*
X8168644Y-10235356D01*
X8239356Y-10235356D01*
X8239356Y-10735356D02*
X8239356Y-10664644D01*
X8168644Y-10664644D01*
X8168644Y-10735356D01*
X8239356Y-10735356D01*
X8239356Y-11235356D02*
X8239356Y-11164644D01*
X8168644Y-11164644D01*
X8168644Y-11235356D01*
X8239356Y-11235356D01*
X8239356Y-11735356D02*
X8239356Y-11664644D01*
X8168644Y-11664644D01*
X8168644Y-11735356D01*
X8239356Y-11735356D01*
X8410356Y-7785356D02*
X8410356Y-7714644D01*
X8339644Y-7714644D01*
X8339644Y-7785356D01*
X8410356Y-7785356D01*
X8410356Y-8035356D02*
X8410356Y-7964644D01*
X8339644Y-7964644D01*
X8339644Y-8035356D01*
X8410356Y-8035356D01*
X8493356Y-10235356D02*
X8493356Y-10164644D01*
X8422644Y-10164644D01*
X8422644Y-10235356D01*
X8493356Y-10235356D01*
X8493356Y-10735356D02*
X8493356Y-10664644D01*
X8422644Y-10664644D01*
X8422644Y-10735356D01*
X8493356Y-10735356D01*
X8493356Y-11235356D02*
X8493356Y-11164644D01*
X8422644Y-11164644D01*
X8422644Y-11235356D01*
X8493356Y-11235356D01*
X8493356Y-11735356D02*
X8493356Y-11664644D01*
X8422644Y-11664644D01*
X8422644Y-11735356D01*
X8493356Y-11735356D01*
D16*
X9311000Y-6238000D02*
X9362000Y-6187000D01*
X9311000Y-6136000D01*
X9260000Y-6187000D01*
X9311000Y-6238000D01*
X9311000Y-6492000D02*
X9362000Y-6441000D01*
X9311000Y-6390000D01*
X9260000Y-6441000D01*
X9311000Y-6492000D01*
X9311000Y-6746000D02*
X9362000Y-6695000D01*
X9311000Y-6644000D01*
X9260000Y-6695000D01*
X9311000Y-6746000D01*
X9311000Y-7000000D02*
X9362000Y-6949000D01*
X9311000Y-6898000D01*
X9260000Y-6949000D01*
X9311000Y-7000000D01*
X9311000Y-7254000D02*
X9362000Y-7203000D01*
X9311000Y-7152000D01*
X9260000Y-7203000D01*
X9311000Y-7254000D01*
X9311000Y-7508000D02*
X9362000Y-7457000D01*
X9311000Y-7406000D01*
X9260000Y-7457000D01*
X9311000Y-7508000D01*
X9311000Y-7762000D02*
X9362000Y-7711000D01*
X9311000Y-7660000D01*
X9260000Y-7711000D01*
X9311000Y-7762000D01*
X9311000Y-8016000D02*
X9362000Y-7965000D01*
X9311000Y-7914000D01*
X9260000Y-7965000D01*
X9311000Y-8016000D01*
X9311000Y-8270000D02*
X9362000Y-8219000D01*
X9311000Y-8168000D01*
X9260000Y-8219000D01*
X9311000Y-8270000D01*
X9311000Y-8524000D02*
X9362000Y-8473000D01*
X9311000Y-8422000D01*
X9260000Y-8473000D01*
X9311000Y-8524000D01*
X9311000Y-8778000D02*
X9362000Y-8727000D01*
X9311000Y-8676000D01*
X9260000Y-8727000D01*
X9311000Y-8778000D01*
X9311000Y-9032000D02*
X9362000Y-8981000D01*
X9311000Y-8930000D01*
X9260000Y-8981000D01*
X9311000Y-9032000D01*
X9311000Y-9286000D02*
X9362000Y-9235000D01*
X9311000Y-9184000D01*
X9260000Y-9235000D01*
X9311000Y-9286000D01*
X9311000Y-9540000D02*
X9362000Y-9489000D01*
X9311000Y-9438000D01*
X9260000Y-9489000D01*
X9311000Y-9540000D01*
X9311000Y-9794000D02*
X9362000Y-9743000D01*
X9311000Y-9692000D01*
X9260000Y-9743000D01*
X9311000Y-9794000D01*
X9311000Y-10048000D02*
X9362000Y-9997000D01*
X9311000Y-9946000D01*
X9260000Y-9997000D01*
X9311000Y-10048000D01*
X9311000Y-10302000D02*
X9362000Y-10251000D01*
X9311000Y-10200000D01*
X9260000Y-10251000D01*
X9311000Y-10302000D01*
X9311000Y-10556000D02*
X9362000Y-10505000D01*
X9311000Y-10454000D01*
X9260000Y-10505000D01*
X9311000Y-10556000D01*
X9311000Y-10810000D02*
X9362000Y-10759000D01*
X9311000Y-10708000D01*
X9260000Y-10759000D01*
X9311000Y-10810000D01*
X9311000Y-11064000D02*
X9362000Y-11013000D01*
X9311000Y-10962000D01*
X9260000Y-11013000D01*
X9311000Y-11064000D01*
X9946000Y-11041000D02*
X9997000Y-10990000D01*
X9946000Y-10939000D01*
X9895000Y-10990000D01*
X9946000Y-11041000D01*
X10200000Y-11041000D02*
X10251000Y-10990000D01*
X10200000Y-10939000D01*
X10149000Y-10990000D01*
X10200000Y-11041000D01*
X10454000Y-11041000D02*
X10505000Y-10990000D01*
X10454000Y-10939000D01*
X10403000Y-10990000D01*
X10454000Y-11041000D01*
X11089000Y-6238000D02*
X11140000Y-6187000D01*
X11089000Y-6136000D01*
X11038000Y-6187000D01*
X11089000Y-6238000D01*
X11089000Y-6492000D02*
X11140000Y-6441000D01*
X11089000Y-6390000D01*
X11038000Y-6441000D01*
X11089000Y-6492000D01*
X11089000Y-6746000D02*
X11140000Y-6695000D01*
X11089000Y-6644000D01*
X11038000Y-6695000D01*
X11089000Y-6746000D01*
X11089000Y-7000000D02*
X11140000Y-6949000D01*
X11089000Y-6898000D01*
X11038000Y-6949000D01*
X11089000Y-7000000D01*
X11089000Y-7254000D02*
X11140000Y-7203000D01*
X11089000Y-7152000D01*
X11038000Y-7203000D01*
X11089000Y-7254000D01*
X11089000Y-7508000D02*
X11140000Y-7457000D01*
X11089000Y-7406000D01*
X11038000Y-7457000D01*
X11089000Y-7508000D01*
X11089000Y-7762000D02*
X11140000Y-7711000D01*
X11089000Y-7660000D01*
X11038000Y-7711000D01*
X11089000Y-7762000D01*
X11089000Y-8016000D02*
X11140000Y-7965000D01*
X11089000Y-7914000D01*
X11038000Y-7965000D01*
X11089000Y-8016000D01*
X11089000Y-8270000D02*
X11140000Y-8219000D01*
X11089000Y-8168000D01*
X11038000Y-8219000D01*
X11089000Y-8270000D01*
X11089000Y-8524000D02*
X11140000Y-8473000D01*
X11089000Y-8422000D01*
X11038000Y-8473000D01*
X11089000Y-8524000D01*
X11089000Y-8778000D02*
X11140000Y-8727000D01*
X11089000Y-8676000D01*
X11038000Y-8727000D01*
X11089000Y-8778000D01*
X11089000Y-9032000D02*
X11140000Y-8981000D01*
X11089000Y-8930000D01*
X11038000Y-8981000D01*
X11089000Y-9032000D01*
X11089000Y-9286000D02*
X11140000Y-9235000D01*
X11089000Y-9184000D01*
X11038000Y-9235000D01*
X11089000Y-9286000D01*
X11089000Y-9540000D02*
X11140000Y-9489000D01*
X11089000Y-9438000D01*
X11038000Y-9489000D01*
X11089000Y-9540000D01*
X11089000Y-9794000D02*
X11140000Y-9743000D01*
X11089000Y-9692000D01*
X11038000Y-9743000D01*
X11089000Y-9794000D01*
X11089000Y-10048000D02*
X11140000Y-9997000D01*
X11089000Y-9946000D01*
X11038000Y-9997000D01*
X11089000Y-10048000D01*
X11089000Y-10302000D02*
X11140000Y-10251000D01*
X11089000Y-10200000D01*
X11038000Y-10251000D01*
X11089000Y-10302000D01*
X11089000Y-10556000D02*
X11140000Y-10505000D01*
X11089000Y-10454000D01*
X11038000Y-10505000D01*
X11089000Y-10556000D01*
X11089000Y-10810000D02*
X11140000Y-10759000D01*
X11089000Y-10708000D01*
X11038000Y-10759000D01*
X11089000Y-10810000D01*
X11089000Y-11064000D02*
X11140000Y-11013000D01*
X11089000Y-10962000D01*
X11038000Y-11013000D01*
X11089000Y-11064000D01*
D17*
X10465000Y-11765000D02*
X10735000Y-12035000D01*
X10735000Y-11765000D02*
X10465000Y-12035000D01*
X10735000Y-11900000D02*
G75*
G03*
X10735000Y-11900000I-135000J0D01*
G01*
X10465000Y-12565000D02*
X10735000Y-12835000D01*
X10735000Y-12565000D02*
X10465000Y-12835000D01*
X10735000Y-12700000D02*
G75*
G03*
X10735000Y-12700000I-135000J0D01*
G01*
X10465000Y-13365000D02*
X10735000Y-13635000D01*
X10735000Y-13365000D02*
X10465000Y-13635000D01*
X10735000Y-13500000D02*
G75*
G03*
X10735000Y-13500000I-135000J0D01*
G01*
X10465000Y-14140000D02*
X10735000Y-14410000D01*
X10735000Y-14140000D02*
X10465000Y-14410000D01*
X10735000Y-14275000D02*
G75*
G03*
X10735000Y-14275000I-135000J0D01*
G01*
X10465000Y-15115000D02*
X10735000Y-15385000D01*
X10735000Y-15115000D02*
X10465000Y-15385000D01*
X10735000Y-15250000D02*
G75*
G03*
X10735000Y-15250000I-135000J0D01*
G01*
X10965000Y-11765000D02*
X11235000Y-12035000D01*
X11235000Y-11765000D02*
X10965000Y-12035000D01*
X11235000Y-11900000D02*
G75*
G03*
X11235000Y-11900000I-135000J0D01*
G01*
X10965000Y-12565000D02*
X11235000Y-12835000D01*
X11235000Y-12565000D02*
X10965000Y-12835000D01*
X11235000Y-12700000D02*
G75*
G03*
X11235000Y-12700000I-135000J0D01*
G01*
X10965000Y-13365000D02*
X11235000Y-13635000D01*
X11235000Y-13365000D02*
X10965000Y-13635000D01*
X11235000Y-13500000D02*
G75*
G03*
X11235000Y-13500000I-135000J0D01*
G01*
X10965000Y-14140000D02*
X11235000Y-14410000D01*
X11235000Y-14140000D02*
X10965000Y-14410000D01*
X11235000Y-14275000D02*
G75*
G03*
X11235000Y-14275000I-135000J0D01*
G01*
X10965000Y-15115000D02*
X11235000Y-15385000D01*
X11235000Y-15115000D02*
X10965000Y-15385000D01*
X11235000Y-15250000D02*
G75*
G03*
X11235000Y-15250000I-135000J0D01*
G01*
D11*
X7155119Y-16337976D02*
X7155119Y-16137976D01*
X7202738Y-16137976D01*
X7231309Y-16147500D01*
X7250357Y-16166548D01*
X7259881Y-16185595D01*
X7269405Y-16223690D01*
X7269405Y-16252262D01*
X7259881Y-16290357D01*
X7250357Y-16309405D01*
X7231309Y-16328452D01*
X7202738Y-16337976D01*
X7155119Y-16337976D01*
X7355119Y-16337976D02*
X7355119Y-16204643D01*
X7355119Y-16242738D02*
X7364643Y-16223690D01*
X7374167Y-16214167D01*
X7393214Y-16204643D01*
X7412262Y-16204643D01*
X7478928Y-16337976D02*
X7478928Y-16204643D01*
X7478928Y-16137976D02*
X7469405Y-16147500D01*
X7478928Y-16157024D01*
X7488452Y-16147500D01*
X7478928Y-16137976D01*
X7478928Y-16157024D01*
X7602738Y-16337976D02*
X7583690Y-16328452D01*
X7574167Y-16309405D01*
X7574167Y-16137976D01*
X7707500Y-16337976D02*
X7688452Y-16328452D01*
X7678928Y-16309405D01*
X7678928Y-16137976D01*
X7936071Y-16337976D02*
X7936071Y-16137976D01*
X8002738Y-16280833D01*
X8069405Y-16137976D01*
X8069405Y-16337976D01*
X8250357Y-16337976D02*
X8250357Y-16233214D01*
X8240833Y-16214167D01*
X8221786Y-16204643D01*
X8183690Y-16204643D01*
X8164643Y-16214167D01*
X8250357Y-16328452D02*
X8231309Y-16337976D01*
X8183690Y-16337976D01*
X8164643Y-16328452D01*
X8155119Y-16309405D01*
X8155119Y-16290357D01*
X8164643Y-16271309D01*
X8183690Y-16261786D01*
X8231309Y-16261786D01*
X8250357Y-16252262D01*
X8345595Y-16204643D02*
X8345595Y-16404643D01*
X8345595Y-16214167D02*
X8364643Y-16204643D01*
X8402738Y-16204643D01*
X8421786Y-16214167D01*
X8431310Y-16223690D01*
X8440833Y-16242738D01*
X8440833Y-16299881D01*
X8431310Y-16318928D01*
X8421786Y-16328452D01*
X8402738Y-16337976D01*
X8364643Y-16337976D01*
X8345595Y-16328452D01*
X8526548Y-16318928D02*
X8536071Y-16328452D01*
X8526548Y-16337976D01*
X8517024Y-16328452D01*
X8526548Y-16318928D01*
X8526548Y-16337976D01*
X8526548Y-16214167D02*
X8536071Y-16223690D01*
X8526548Y-16233214D01*
X8517024Y-16223690D01*
X8526548Y-16214167D01*
X8526548Y-16233214D01*
D12*
X6867500Y-16652500D02*
X6897500Y-16682500D01*
X6897500Y-16652500D02*
X6867500Y-16682500D01*
D11*
X7193214Y-16557976D02*
X7212262Y-16557976D01*
X7231309Y-16567500D01*
X7240833Y-16577024D01*
X7250357Y-16596071D01*
X7259881Y-16634167D01*
X7259881Y-16681786D01*
X7250357Y-16719881D01*
X7240833Y-16738928D01*
X7231309Y-16748452D01*
X7212262Y-16757976D01*
X7193214Y-16757976D01*
X7174167Y-16748452D01*
X7164643Y-16738928D01*
X7155119Y-16719881D01*
X7145595Y-16681786D01*
X7145595Y-16634167D01*
X7155119Y-16596071D01*
X7164643Y-16577024D01*
X7174167Y-16567500D01*
X7193214Y-16557976D01*
X7345595Y-16738928D02*
X7355119Y-16748452D01*
X7345595Y-16757976D01*
X7336071Y-16748452D01*
X7345595Y-16738928D01*
X7345595Y-16757976D01*
X7421786Y-16557976D02*
X7545595Y-16557976D01*
X7478928Y-16634167D01*
X7507500Y-16634167D01*
X7526548Y-16643690D01*
X7536071Y-16653214D01*
X7545595Y-16672262D01*
X7545595Y-16719881D01*
X7536071Y-16738928D01*
X7526548Y-16748452D01*
X7507500Y-16757976D01*
X7450357Y-16757976D01*
X7431309Y-16748452D01*
X7421786Y-16738928D01*
X7669405Y-16557976D02*
X7688452Y-16557976D01*
X7707500Y-16567500D01*
X7717024Y-16577024D01*
X7726548Y-16596071D01*
X7736071Y-16634167D01*
X7736071Y-16681786D01*
X7726548Y-16719881D01*
X7717024Y-16738928D01*
X7707500Y-16748452D01*
X7688452Y-16757976D01*
X7669405Y-16757976D01*
X7650357Y-16748452D01*
X7640833Y-16738928D01*
X7631309Y-16719881D01*
X7621786Y-16681786D01*
X7621786Y-16634167D01*
X7631309Y-16596071D01*
X7640833Y-16577024D01*
X7650357Y-16567500D01*
X7669405Y-16557976D01*
X7859881Y-16557976D02*
X7878928Y-16557976D01*
X7897976Y-16567500D01*
X7907500Y-16577024D01*
X7917024Y-16596071D01*
X7926548Y-16634167D01*
X7926548Y-16681786D01*
X7917024Y-16719881D01*
X7907500Y-16738928D01*
X7897976Y-16748452D01*
X7878928Y-16757976D01*
X7859881Y-16757976D01*
X7840833Y-16748452D01*
X7831309Y-16738928D01*
X7821786Y-16719881D01*
X7812262Y-16681786D01*
X7812262Y-16634167D01*
X7821786Y-16596071D01*
X7831309Y-16577024D01*
X7840833Y-16567500D01*
X7859881Y-16557976D01*
X8012262Y-16757976D02*
X8012262Y-16624643D01*
X8012262Y-16643690D02*
X8021786Y-16634167D01*
X8040833Y-16624643D01*
X8069405Y-16624643D01*
X8088452Y-16634167D01*
X8097976Y-16653214D01*
X8097976Y-16757976D01*
X8097976Y-16653214D02*
X8107500Y-16634167D01*
X8126548Y-16624643D01*
X8155119Y-16624643D01*
X8174167Y-16634167D01*
X8183690Y-16653214D01*
X8183690Y-16757976D01*
X8278928Y-16757976D02*
X8278928Y-16624643D01*
X8278928Y-16643690D02*
X8288452Y-16634167D01*
X8307500Y-16624643D01*
X8336071Y-16624643D01*
X8355119Y-16634167D01*
X8364643Y-16653214D01*
X8364643Y-16757976D01*
X8364643Y-16653214D02*
X8374167Y-16634167D01*
X8393214Y-16624643D01*
X8421786Y-16624643D01*
X8440833Y-16634167D01*
X8450357Y-16653214D01*
X8450357Y-16757976D01*
X8840833Y-16548452D02*
X8669405Y-16805595D01*
X9097976Y-16557976D02*
X9117024Y-16557976D01*
X9136071Y-16567500D01*
X9145595Y-16577024D01*
X9155119Y-16596071D01*
X9164643Y-16634167D01*
X9164643Y-16681786D01*
X9155119Y-16719881D01*
X9145595Y-16738928D01*
X9136071Y-16748452D01*
X9117024Y-16757976D01*
X9097976Y-16757976D01*
X9078929Y-16748452D01*
X9069405Y-16738928D01*
X9059881Y-16719881D01*
X9050357Y-16681786D01*
X9050357Y-16634167D01*
X9059881Y-16596071D01*
X9069405Y-16577024D01*
X9078929Y-16567500D01*
X9097976Y-16557976D01*
X9250357Y-16738928D02*
X9259881Y-16748452D01*
X9250357Y-16757976D01*
X9240833Y-16748452D01*
X9250357Y-16738928D01*
X9250357Y-16757976D01*
X9383690Y-16557976D02*
X9402738Y-16557976D01*
X9421786Y-16567500D01*
X9431310Y-16577024D01*
X9440833Y-16596071D01*
X9450357Y-16634167D01*
X9450357Y-16681786D01*
X9440833Y-16719881D01*
X9431310Y-16738928D01*
X9421786Y-16748452D01*
X9402738Y-16757976D01*
X9383690Y-16757976D01*
X9364643Y-16748452D01*
X9355119Y-16738928D01*
X9345595Y-16719881D01*
X9336071Y-16681786D01*
X9336071Y-16634167D01*
X9345595Y-16596071D01*
X9355119Y-16577024D01*
X9364643Y-16567500D01*
X9383690Y-16557976D01*
X9640833Y-16757976D02*
X9526548Y-16757976D01*
X9583690Y-16757976D02*
X9583690Y-16557976D01*
X9564643Y-16586548D01*
X9545595Y-16605595D01*
X9526548Y-16615119D01*
X9831310Y-16757976D02*
X9717024Y-16757976D01*
X9774167Y-16757976D02*
X9774167Y-16557976D01*
X9755119Y-16586548D01*
X9736071Y-16605595D01*
X9717024Y-16615119D01*
X9945595Y-16643690D02*
X9926548Y-16634167D01*
X9917024Y-16624643D01*
X9907500Y-16605595D01*
X9907500Y-16596071D01*
X9917024Y-16577024D01*
X9926548Y-16567500D01*
X9945595Y-16557976D01*
X9983690Y-16557976D01*
X10002738Y-16567500D01*
X10012262Y-16577024D01*
X10021786Y-16596071D01*
X10021786Y-16605595D01*
X10012262Y-16624643D01*
X10002738Y-16634167D01*
X9983690Y-16643690D01*
X9945595Y-16643690D01*
X9926548Y-16653214D01*
X9917024Y-16662738D01*
X9907500Y-16681786D01*
X9907500Y-16719881D01*
X9917024Y-16738928D01*
X9926548Y-16748452D01*
X9945595Y-16757976D01*
X9983690Y-16757976D01*
X10002738Y-16748452D01*
X10012262Y-16738928D01*
X10021786Y-16719881D01*
X10021786Y-16681786D01*
X10012262Y-16662738D01*
X10002738Y-16653214D01*
X9983690Y-16643690D01*
X10097976Y-16557976D02*
X10097976Y-16596071D01*
X10174167Y-16557976D02*
X10174167Y-16596071D01*
X10469405Y-16834167D02*
X10459881Y-16824643D01*
X10440833Y-16796071D01*
X10431310Y-16777024D01*
X10421786Y-16748452D01*
X10412262Y-16700833D01*
X10412262Y-16662738D01*
X10421786Y-16615119D01*
X10431310Y-16586548D01*
X10440833Y-16567500D01*
X10459881Y-16538928D01*
X10469405Y-16529405D01*
X10640833Y-16557976D02*
X10545595Y-16557976D01*
X10536071Y-16653214D01*
X10545595Y-16643690D01*
X10564643Y-16634167D01*
X10612262Y-16634167D01*
X10631310Y-16643690D01*
X10640833Y-16653214D01*
X10650357Y-16672262D01*
X10650357Y-16719881D01*
X10640833Y-16738928D01*
X10631310Y-16748452D01*
X10612262Y-16757976D01*
X10564643Y-16757976D01*
X10545595Y-16748452D01*
X10536071Y-16738928D01*
X10888452Y-16757976D02*
X10888452Y-16557976D01*
X10974167Y-16757976D02*
X10974167Y-16653214D01*
X10964643Y-16634167D01*
X10945595Y-16624643D01*
X10917024Y-16624643D01*
X10897976Y-16634167D01*
X10888452Y-16643690D01*
X11097976Y-16757976D02*
X11078929Y-16748452D01*
X11069405Y-16738928D01*
X11059881Y-16719881D01*
X11059881Y-16662738D01*
X11069405Y-16643690D01*
X11078929Y-16634167D01*
X11097976Y-16624643D01*
X11126548Y-16624643D01*
X11145595Y-16634167D01*
X11155119Y-16643690D01*
X11164643Y-16662738D01*
X11164643Y-16719881D01*
X11155119Y-16738928D01*
X11145595Y-16748452D01*
X11126548Y-16757976D01*
X11097976Y-16757976D01*
X11278928Y-16757976D02*
X11259881Y-16748452D01*
X11250357Y-16729405D01*
X11250357Y-16557976D01*
X11431309Y-16748452D02*
X11412262Y-16757976D01*
X11374167Y-16757976D01*
X11355119Y-16748452D01*
X11345595Y-16729405D01*
X11345595Y-16653214D01*
X11355119Y-16634167D01*
X11374167Y-16624643D01*
X11412262Y-16624643D01*
X11431309Y-16634167D01*
X11440833Y-16653214D01*
X11440833Y-16672262D01*
X11345595Y-16691309D01*
X11517024Y-16748452D02*
X11536071Y-16757976D01*
X11574167Y-16757976D01*
X11593214Y-16748452D01*
X11602738Y-16729405D01*
X11602738Y-16719881D01*
X11593214Y-16700833D01*
X11574167Y-16691309D01*
X11545595Y-16691309D01*
X11526548Y-16681786D01*
X11517024Y-16662738D01*
X11517024Y-16653214D01*
X11526548Y-16634167D01*
X11545595Y-16624643D01*
X11574167Y-16624643D01*
X11593214Y-16634167D01*
X11669405Y-16834167D02*
X11678928Y-16824643D01*
X11697976Y-16796071D01*
X11707500Y-16777024D01*
X11717024Y-16748452D01*
X11726548Y-16700833D01*
X11726548Y-16662738D01*
X11717024Y-16615119D01*
X11707500Y-16586548D01*
X11697976Y-16567500D01*
X11678928Y-16538928D01*
X11669405Y-16529405D01*
D13*
X6897500Y-16931500D02*
G75*
G03*
X6897500Y-16931500I-20000J0D01*
G01*
D11*
X7193214Y-16821976D02*
X7212262Y-16821976D01*
X7231309Y-16831500D01*
X7240833Y-16841024D01*
X7250357Y-16860071D01*
X7259881Y-16898167D01*
X7259881Y-16945786D01*
X7250357Y-16983881D01*
X7240833Y-17002929D01*
X7231309Y-17012452D01*
X7212262Y-17021976D01*
X7193214Y-17021976D01*
X7174167Y-17012452D01*
X7164643Y-17002929D01*
X7155119Y-16983881D01*
X7145595Y-16945786D01*
X7145595Y-16898167D01*
X7155119Y-16860071D01*
X7164643Y-16841024D01*
X7174167Y-16831500D01*
X7193214Y-16821976D01*
X7345595Y-17002929D02*
X7355119Y-17012452D01*
X7345595Y-17021976D01*
X7336071Y-17012452D01*
X7345595Y-17002929D01*
X7345595Y-17021976D01*
X7526548Y-16888643D02*
X7526548Y-17021976D01*
X7478928Y-16812452D02*
X7431309Y-16955310D01*
X7555119Y-16955310D01*
X7669405Y-16821976D02*
X7688452Y-16821976D01*
X7707500Y-16831500D01*
X7717024Y-16841024D01*
X7726548Y-16860071D01*
X7736071Y-16898167D01*
X7736071Y-16945786D01*
X7726548Y-16983881D01*
X7717024Y-17002929D01*
X7707500Y-17012452D01*
X7688452Y-17021976D01*
X7669405Y-17021976D01*
X7650357Y-17012452D01*
X7640833Y-17002929D01*
X7631309Y-16983881D01*
X7621786Y-16945786D01*
X7621786Y-16898167D01*
X7631309Y-16860071D01*
X7640833Y-16841024D01*
X7650357Y-16831500D01*
X7669405Y-16821976D01*
X7859881Y-16821976D02*
X7878928Y-16821976D01*
X7897976Y-16831500D01*
X7907500Y-16841024D01*
X7917024Y-16860071D01*
X7926548Y-16898167D01*
X7926548Y-16945786D01*
X7917024Y-16983881D01*
X7907500Y-17002929D01*
X7897976Y-17012452D01*
X7878928Y-17021976D01*
X7859881Y-17021976D01*
X7840833Y-17012452D01*
X7831309Y-17002929D01*
X7821786Y-16983881D01*
X7812262Y-16945786D01*
X7812262Y-16898167D01*
X7821786Y-16860071D01*
X7831309Y-16841024D01*
X7840833Y-16831500D01*
X7859881Y-16821976D01*
X8012262Y-17021976D02*
X8012262Y-16888643D01*
X8012262Y-16907690D02*
X8021786Y-16898167D01*
X8040833Y-16888643D01*
X8069405Y-16888643D01*
X8088452Y-16898167D01*
X8097976Y-16917214D01*
X8097976Y-17021976D01*
X8097976Y-16917214D02*
X8107500Y-16898167D01*
X8126548Y-16888643D01*
X8155119Y-16888643D01*
X8174167Y-16898167D01*
X8183690Y-16917214D01*
X8183690Y-17021976D01*
X8278928Y-17021976D02*
X8278928Y-16888643D01*
X8278928Y-16907690D02*
X8288452Y-16898167D01*
X8307500Y-16888643D01*
X8336071Y-16888643D01*
X8355119Y-16898167D01*
X8364643Y-16917214D01*
X8364643Y-17021976D01*
X8364643Y-16917214D02*
X8374167Y-16898167D01*
X8393214Y-16888643D01*
X8421786Y-16888643D01*
X8440833Y-16898167D01*
X8450357Y-16917214D01*
X8450357Y-17021976D01*
X8840833Y-16812452D02*
X8669405Y-17069595D01*
X9097976Y-16821976D02*
X9117024Y-16821976D01*
X9136071Y-16831500D01*
X9145595Y-16841024D01*
X9155119Y-16860071D01*
X9164643Y-16898167D01*
X9164643Y-16945786D01*
X9155119Y-16983881D01*
X9145595Y-17002929D01*
X9136071Y-17012452D01*
X9117024Y-17021976D01*
X9097976Y-17021976D01*
X9078929Y-17012452D01*
X9069405Y-17002929D01*
X9059881Y-16983881D01*
X9050357Y-16945786D01*
X9050357Y-16898167D01*
X9059881Y-16860071D01*
X9069405Y-16841024D01*
X9078929Y-16831500D01*
X9097976Y-16821976D01*
X9250357Y-17002929D02*
X9259881Y-17012452D01*
X9250357Y-17021976D01*
X9240833Y-17012452D01*
X9250357Y-17002929D01*
X9250357Y-17021976D01*
X9383690Y-16821976D02*
X9402738Y-16821976D01*
X9421786Y-16831500D01*
X9431310Y-16841024D01*
X9440833Y-16860071D01*
X9450357Y-16898167D01*
X9450357Y-16945786D01*
X9440833Y-16983881D01*
X9431310Y-17002929D01*
X9421786Y-17012452D01*
X9402738Y-17021976D01*
X9383690Y-17021976D01*
X9364643Y-17012452D01*
X9355119Y-17002929D01*
X9345595Y-16983881D01*
X9336071Y-16945786D01*
X9336071Y-16898167D01*
X9345595Y-16860071D01*
X9355119Y-16841024D01*
X9364643Y-16831500D01*
X9383690Y-16821976D01*
X9640833Y-17021976D02*
X9526548Y-17021976D01*
X9583690Y-17021976D02*
X9583690Y-16821976D01*
X9564643Y-16850548D01*
X9545595Y-16869595D01*
X9526548Y-16879119D01*
X9821786Y-16821976D02*
X9726548Y-16821976D01*
X9717024Y-16917214D01*
X9726548Y-16907690D01*
X9745595Y-16898167D01*
X9793214Y-16898167D01*
X9812262Y-16907690D01*
X9821786Y-16917214D01*
X9831310Y-16936262D01*
X9831310Y-16983881D01*
X9821786Y-17002929D01*
X9812262Y-17012452D01*
X9793214Y-17021976D01*
X9745595Y-17021976D01*
X9726548Y-17012452D01*
X9717024Y-17002929D01*
X9897976Y-16821976D02*
X10031310Y-16821976D01*
X9945595Y-17021976D01*
X10097976Y-16821976D02*
X10097976Y-16860071D01*
X10174167Y-16821976D02*
X10174167Y-16860071D01*
X10469405Y-17098167D02*
X10459881Y-17088643D01*
X10440833Y-17060071D01*
X10431310Y-17041024D01*
X10421786Y-17012452D01*
X10412262Y-16964833D01*
X10412262Y-16926738D01*
X10421786Y-16879119D01*
X10431310Y-16850548D01*
X10440833Y-16831500D01*
X10459881Y-16802929D01*
X10469405Y-16793405D01*
X10574167Y-16907690D02*
X10555119Y-16898167D01*
X10545595Y-16888643D01*
X10536071Y-16869595D01*
X10536071Y-16860071D01*
X10545595Y-16841024D01*
X10555119Y-16831500D01*
X10574167Y-16821976D01*
X10612262Y-16821976D01*
X10631310Y-16831500D01*
X10640833Y-16841024D01*
X10650357Y-16860071D01*
X10650357Y-16869595D01*
X10640833Y-16888643D01*
X10631310Y-16898167D01*
X10612262Y-16907690D01*
X10574167Y-16907690D01*
X10555119Y-16917214D01*
X10545595Y-16926738D01*
X10536071Y-16945786D01*
X10536071Y-16983881D01*
X10545595Y-17002929D01*
X10555119Y-17012452D01*
X10574167Y-17021976D01*
X10612262Y-17021976D01*
X10631310Y-17012452D01*
X10640833Y-17002929D01*
X10650357Y-16983881D01*
X10650357Y-16945786D01*
X10640833Y-16926738D01*
X10631310Y-16917214D01*
X10612262Y-16907690D01*
X10717024Y-16821976D02*
X10840833Y-16821976D01*
X10774167Y-16898167D01*
X10802738Y-16898167D01*
X10821786Y-16907690D01*
X10831310Y-16917214D01*
X10840833Y-16936262D01*
X10840833Y-16983881D01*
X10831310Y-17002929D01*
X10821786Y-17012452D01*
X10802738Y-17021976D01*
X10745595Y-17021976D01*
X10726548Y-17012452D01*
X10717024Y-17002929D01*
X11078929Y-17021976D02*
X11078929Y-16821976D01*
X11164643Y-17021976D02*
X11164643Y-16917214D01*
X11155119Y-16898167D01*
X11136071Y-16888643D01*
X11107500Y-16888643D01*
X11088452Y-16898167D01*
X11078929Y-16907690D01*
X11288452Y-17021976D02*
X11269405Y-17012452D01*
X11259881Y-17002929D01*
X11250357Y-16983881D01*
X11250357Y-16926738D01*
X11259881Y-16907690D01*
X11269405Y-16898167D01*
X11288452Y-16888643D01*
X11317024Y-16888643D01*
X11336071Y-16898167D01*
X11345595Y-16907690D01*
X11355119Y-16926738D01*
X11355119Y-16983881D01*
X11345595Y-17002929D01*
X11336071Y-17012452D01*
X11317024Y-17021976D01*
X11288452Y-17021976D01*
X11469405Y-17021976D02*
X11450357Y-17012452D01*
X11440833Y-16993405D01*
X11440833Y-16821976D01*
X11621786Y-17012452D02*
X11602738Y-17021976D01*
X11564643Y-17021976D01*
X11545595Y-17012452D01*
X11536071Y-16993405D01*
X11536071Y-16917214D01*
X11545595Y-16898167D01*
X11564643Y-16888643D01*
X11602738Y-16888643D01*
X11621786Y-16898167D01*
X11631309Y-16917214D01*
X11631309Y-16936262D01*
X11536071Y-16955310D01*
X11707500Y-17012452D02*
X11726548Y-17021976D01*
X11764643Y-17021976D01*
X11783690Y-17012452D01*
X11793214Y-16993405D01*
X11793214Y-16983881D01*
X11783690Y-16964833D01*
X11764643Y-16955310D01*
X11736071Y-16955310D01*
X11717024Y-16945786D01*
X11707500Y-16926738D01*
X11707500Y-16917214D01*
X11717024Y-16898167D01*
X11736071Y-16888643D01*
X11764643Y-16888643D01*
X11783690Y-16898167D01*
X11859881Y-17098167D02*
X11869405Y-17088643D01*
X11888452Y-17060071D01*
X11897976Y-17041024D01*
X11907500Y-17012452D01*
X11917024Y-16964833D01*
X11917024Y-16926738D01*
X11907500Y-16879119D01*
X11897976Y-16850548D01*
X11888452Y-16831500D01*
X11869405Y-16802929D01*
X11859881Y-16793405D01*
D14*
X6850000Y-17148000D02*
X6850000Y-17243000D01*
X6802500Y-17195500D02*
X6897500Y-17195500D01*
D11*
X7193214Y-17085976D02*
X7212262Y-17085976D01*
X7231309Y-17095500D01*
X7240833Y-17105024D01*
X7250357Y-17124071D01*
X7259881Y-17162167D01*
X7259881Y-17209786D01*
X7250357Y-17247881D01*
X7240833Y-17266929D01*
X7231309Y-17276452D01*
X7212262Y-17285976D01*
X7193214Y-17285976D01*
X7174167Y-17276452D01*
X7164643Y-17266929D01*
X7155119Y-17247881D01*
X7145595Y-17209786D01*
X7145595Y-17162167D01*
X7155119Y-17124071D01*
X7164643Y-17105024D01*
X7174167Y-17095500D01*
X7193214Y-17085976D01*
X7345595Y-17266929D02*
X7355119Y-17276452D01*
X7345595Y-17285976D01*
X7336071Y-17276452D01*
X7345595Y-17266929D01*
X7345595Y-17285976D01*
X7450357Y-17285976D02*
X7488452Y-17285976D01*
X7507500Y-17276452D01*
X7517024Y-17266929D01*
X7536071Y-17238357D01*
X7545595Y-17200262D01*
X7545595Y-17124071D01*
X7536071Y-17105024D01*
X7526548Y-17095500D01*
X7507500Y-17085976D01*
X7469405Y-17085976D01*
X7450357Y-17095500D01*
X7440833Y-17105024D01*
X7431309Y-17124071D01*
X7431309Y-17171690D01*
X7440833Y-17190738D01*
X7450357Y-17200262D01*
X7469405Y-17209786D01*
X7507500Y-17209786D01*
X7526548Y-17200262D01*
X7536071Y-17190738D01*
X7545595Y-17171690D01*
X7726548Y-17085976D02*
X7631309Y-17085976D01*
X7621786Y-17181214D01*
X7631309Y-17171690D01*
X7650357Y-17162167D01*
X7697976Y-17162167D01*
X7717024Y-17171690D01*
X7726548Y-17181214D01*
X7736071Y-17200262D01*
X7736071Y-17247881D01*
X7726548Y-17266929D01*
X7717024Y-17276452D01*
X7697976Y-17285976D01*
X7650357Y-17285976D01*
X7631309Y-17276452D01*
X7621786Y-17266929D01*
X7859881Y-17085976D02*
X7878928Y-17085976D01*
X7897976Y-17095500D01*
X7907500Y-17105024D01*
X7917024Y-17124071D01*
X7926548Y-17162167D01*
X7926548Y-17209786D01*
X7917024Y-17247881D01*
X7907500Y-17266929D01*
X7897976Y-17276452D01*
X7878928Y-17285976D01*
X7859881Y-17285976D01*
X7840833Y-17276452D01*
X7831309Y-17266929D01*
X7821786Y-17247881D01*
X7812262Y-17209786D01*
X7812262Y-17162167D01*
X7821786Y-17124071D01*
X7831309Y-17105024D01*
X7840833Y-17095500D01*
X7859881Y-17085976D01*
X8012262Y-17285976D02*
X8012262Y-17152643D01*
X8012262Y-17171690D02*
X8021786Y-17162167D01*
X8040833Y-17152643D01*
X8069405Y-17152643D01*
X8088452Y-17162167D01*
X8097976Y-17181214D01*
X8097976Y-17285976D01*
X8097976Y-17181214D02*
X8107500Y-17162167D01*
X8126548Y-17152643D01*
X8155119Y-17152643D01*
X8174167Y-17162167D01*
X8183690Y-17181214D01*
X8183690Y-17285976D01*
X8278928Y-17285976D02*
X8278928Y-17152643D01*
X8278928Y-17171690D02*
X8288452Y-17162167D01*
X8307500Y-17152643D01*
X8336071Y-17152643D01*
X8355119Y-17162167D01*
X8364643Y-17181214D01*
X8364643Y-17285976D01*
X8364643Y-17181214D02*
X8374167Y-17162167D01*
X8393214Y-17152643D01*
X8421786Y-17152643D01*
X8440833Y-17162167D01*
X8450357Y-17181214D01*
X8450357Y-17285976D01*
X8840833Y-17076452D02*
X8669405Y-17333595D01*
X9097976Y-17085976D02*
X9117024Y-17085976D01*
X9136071Y-17095500D01*
X9145595Y-17105024D01*
X9155119Y-17124071D01*
X9164643Y-17162167D01*
X9164643Y-17209786D01*
X9155119Y-17247881D01*
X9145595Y-17266929D01*
X9136071Y-17276452D01*
X9117024Y-17285976D01*
X9097976Y-17285976D01*
X9078929Y-17276452D01*
X9069405Y-17266929D01*
X9059881Y-17247881D01*
X9050357Y-17209786D01*
X9050357Y-17162167D01*
X9059881Y-17124071D01*
X9069405Y-17105024D01*
X9078929Y-17095500D01*
X9097976Y-17085976D01*
X9250357Y-17266929D02*
X9259881Y-17276452D01*
X9250357Y-17285976D01*
X9240833Y-17276452D01*
X9250357Y-17266929D01*
X9250357Y-17285976D01*
X9383690Y-17085976D02*
X9402738Y-17085976D01*
X9421786Y-17095500D01*
X9431310Y-17105024D01*
X9440833Y-17124071D01*
X9450357Y-17162167D01*
X9450357Y-17209786D01*
X9440833Y-17247881D01*
X9431310Y-17266929D01*
X9421786Y-17276452D01*
X9402738Y-17285976D01*
X9383690Y-17285976D01*
X9364643Y-17276452D01*
X9355119Y-17266929D01*
X9345595Y-17247881D01*
X9336071Y-17209786D01*
X9336071Y-17162167D01*
X9345595Y-17124071D01*
X9355119Y-17105024D01*
X9364643Y-17095500D01*
X9383690Y-17085976D01*
X9517024Y-17085976D02*
X9640833Y-17085976D01*
X9574167Y-17162167D01*
X9602738Y-17162167D01*
X9621786Y-17171690D01*
X9631310Y-17181214D01*
X9640833Y-17200262D01*
X9640833Y-17247881D01*
X9631310Y-17266929D01*
X9621786Y-17276452D01*
X9602738Y-17285976D01*
X9545595Y-17285976D01*
X9526548Y-17276452D01*
X9517024Y-17266929D01*
X9707500Y-17085976D02*
X9840833Y-17085976D01*
X9755119Y-17285976D01*
X10002738Y-17152643D02*
X10002738Y-17285976D01*
X9955119Y-17076452D02*
X9907500Y-17219310D01*
X10031310Y-17219310D01*
X10097976Y-17085976D02*
X10097976Y-17124071D01*
X10174167Y-17085976D02*
X10174167Y-17124071D01*
X10469405Y-17362167D02*
X10459881Y-17352643D01*
X10440833Y-17324071D01*
X10431310Y-17305024D01*
X10421786Y-17276452D01*
X10412262Y-17228833D01*
X10412262Y-17190738D01*
X10421786Y-17143119D01*
X10431310Y-17114548D01*
X10440833Y-17095500D01*
X10459881Y-17066929D01*
X10469405Y-17057405D01*
X10650357Y-17285976D02*
X10536071Y-17285976D01*
X10593214Y-17285976D02*
X10593214Y-17085976D01*
X10574167Y-17114548D01*
X10555119Y-17133595D01*
X10536071Y-17143119D01*
X10726548Y-17105024D02*
X10736071Y-17095500D01*
X10755119Y-17085976D01*
X10802738Y-17085976D01*
X10821786Y-17095500D01*
X10831310Y-17105024D01*
X10840833Y-17124071D01*
X10840833Y-17143119D01*
X10831310Y-17171690D01*
X10717024Y-17285976D01*
X10840833Y-17285976D01*
X11078929Y-17285976D02*
X11078929Y-17085976D01*
X11164643Y-17285976D02*
X11164643Y-17181214D01*
X11155119Y-17162167D01*
X11136071Y-17152643D01*
X11107500Y-17152643D01*
X11088452Y-17162167D01*
X11078929Y-17171690D01*
X11288452Y-17285976D02*
X11269405Y-17276452D01*
X11259881Y-17266929D01*
X11250357Y-17247881D01*
X11250357Y-17190738D01*
X11259881Y-17171690D01*
X11269405Y-17162167D01*
X11288452Y-17152643D01*
X11317024Y-17152643D01*
X11336071Y-17162167D01*
X11345595Y-17171690D01*
X11355119Y-17190738D01*
X11355119Y-17247881D01*
X11345595Y-17266929D01*
X11336071Y-17276452D01*
X11317024Y-17285976D01*
X11288452Y-17285976D01*
X11469405Y-17285976D02*
X11450357Y-17276452D01*
X11440833Y-17257405D01*
X11440833Y-17085976D01*
X11621786Y-17276452D02*
X11602738Y-17285976D01*
X11564643Y-17285976D01*
X11545595Y-17276452D01*
X11536071Y-17257405D01*
X11536071Y-17181214D01*
X11545595Y-17162167D01*
X11564643Y-17152643D01*
X11602738Y-17152643D01*
X11621786Y-17162167D01*
X11631309Y-17181214D01*
X11631309Y-17200262D01*
X11536071Y-17219310D01*
X11707500Y-17276452D02*
X11726548Y-17285976D01*
X11764643Y-17285976D01*
X11783690Y-17276452D01*
X11793214Y-17257405D01*
X11793214Y-17247881D01*
X11783690Y-17228833D01*
X11764643Y-17219310D01*
X11736071Y-17219310D01*
X11717024Y-17209786D01*
X11707500Y-17190738D01*
X11707500Y-17181214D01*
X11717024Y-17162167D01*
X11736071Y-17152643D01*
X11764643Y-17152643D01*
X11783690Y-17162167D01*
X11859881Y-17362167D02*
X11869405Y-17352643D01*
X11888452Y-17324071D01*
X11897976Y-17305024D01*
X11907500Y-17276452D01*
X11917024Y-17228833D01*
X11917024Y-17190738D01*
X11907500Y-17143119D01*
X11897976Y-17114548D01*
X11888452Y-17095500D01*
X11869405Y-17066929D01*
X11859881Y-17057405D01*
D15*
X6882856Y-17494856D02*
X6882856Y-17424144D01*
X6812144Y-17424144D01*
X6812144Y-17494856D01*
X6882856Y-17494856D01*
D11*
X7259881Y-17549976D02*
X7145595Y-17549976D01*
X7202738Y-17549976D02*
X7202738Y-17349976D01*
X7183690Y-17378548D01*
X7164643Y-17397595D01*
X7145595Y-17407119D01*
X7345595Y-17530929D02*
X7355119Y-17540452D01*
X7345595Y-17549976D01*
X7336071Y-17540452D01*
X7345595Y-17530929D01*
X7345595Y-17549976D01*
X7478928Y-17349976D02*
X7497976Y-17349976D01*
X7517024Y-17359500D01*
X7526548Y-17369024D01*
X7536071Y-17388071D01*
X7545595Y-17426167D01*
X7545595Y-17473786D01*
X7536071Y-17511881D01*
X7526548Y-17530929D01*
X7517024Y-17540452D01*
X7497976Y-17549976D01*
X7478928Y-17549976D01*
X7459881Y-17540452D01*
X7450357Y-17530929D01*
X7440833Y-17511881D01*
X7431309Y-17473786D01*
X7431309Y-17426167D01*
X7440833Y-17388071D01*
X7450357Y-17369024D01*
X7459881Y-17359500D01*
X7478928Y-17349976D01*
X7669405Y-17349976D02*
X7688452Y-17349976D01*
X7707500Y-17359500D01*
X7717024Y-17369024D01*
X7726548Y-17388071D01*
X7736071Y-17426167D01*
X7736071Y-17473786D01*
X7726548Y-17511881D01*
X7717024Y-17530929D01*
X7707500Y-17540452D01*
X7688452Y-17549976D01*
X7669405Y-17549976D01*
X7650357Y-17540452D01*
X7640833Y-17530929D01*
X7631309Y-17511881D01*
X7621786Y-17473786D01*
X7621786Y-17426167D01*
X7631309Y-17388071D01*
X7640833Y-17369024D01*
X7650357Y-17359500D01*
X7669405Y-17349976D01*
X7859881Y-17349976D02*
X7878928Y-17349976D01*
X7897976Y-17359500D01*
X7907500Y-17369024D01*
X7917024Y-17388071D01*
X7926548Y-17426167D01*
X7926548Y-17473786D01*
X7917024Y-17511881D01*
X7907500Y-17530929D01*
X7897976Y-17540452D01*
X7878928Y-17549976D01*
X7859881Y-17549976D01*
X7840833Y-17540452D01*
X7831309Y-17530929D01*
X7821786Y-17511881D01*
X7812262Y-17473786D01*
X7812262Y-17426167D01*
X7821786Y-17388071D01*
X7831309Y-17369024D01*
X7840833Y-17359500D01*
X7859881Y-17349976D01*
X8012262Y-17549976D02*
X8012262Y-17416643D01*
X8012262Y-17435690D02*
X8021786Y-17426167D01*
X8040833Y-17416643D01*
X8069405Y-17416643D01*
X8088452Y-17426167D01*
X8097976Y-17445214D01*
X8097976Y-17549976D01*
X8097976Y-17445214D02*
X8107500Y-17426167D01*
X8126548Y-17416643D01*
X8155119Y-17416643D01*
X8174167Y-17426167D01*
X8183690Y-17445214D01*
X8183690Y-17549976D01*
X8278928Y-17549976D02*
X8278928Y-17416643D01*
X8278928Y-17435690D02*
X8288452Y-17426167D01*
X8307500Y-17416643D01*
X8336071Y-17416643D01*
X8355119Y-17426167D01*
X8364643Y-17445214D01*
X8364643Y-17549976D01*
X8364643Y-17445214D02*
X8374167Y-17426167D01*
X8393214Y-17416643D01*
X8421786Y-17416643D01*
X8440833Y-17426167D01*
X8450357Y-17445214D01*
X8450357Y-17549976D01*
X8840833Y-17340452D02*
X8669405Y-17597595D01*
X9097976Y-17349976D02*
X9117024Y-17349976D01*
X9136071Y-17359500D01*
X9145595Y-17369024D01*
X9155119Y-17388071D01*
X9164643Y-17426167D01*
X9164643Y-17473786D01*
X9155119Y-17511881D01*
X9145595Y-17530929D01*
X9136071Y-17540452D01*
X9117024Y-17549976D01*
X9097976Y-17549976D01*
X9078929Y-17540452D01*
X9069405Y-17530929D01*
X9059881Y-17511881D01*
X9050357Y-17473786D01*
X9050357Y-17426167D01*
X9059881Y-17388071D01*
X9069405Y-17369024D01*
X9078929Y-17359500D01*
X9097976Y-17349976D01*
X9250357Y-17530929D02*
X9259881Y-17540452D01*
X9250357Y-17549976D01*
X9240833Y-17540452D01*
X9250357Y-17530929D01*
X9250357Y-17549976D01*
X9383690Y-17349976D02*
X9402738Y-17349976D01*
X9421786Y-17359500D01*
X9431310Y-17369024D01*
X9440833Y-17388071D01*
X9450357Y-17426167D01*
X9450357Y-17473786D01*
X9440833Y-17511881D01*
X9431310Y-17530929D01*
X9421786Y-17540452D01*
X9402738Y-17549976D01*
X9383690Y-17549976D01*
X9364643Y-17540452D01*
X9355119Y-17530929D01*
X9345595Y-17511881D01*
X9336071Y-17473786D01*
X9336071Y-17426167D01*
X9345595Y-17388071D01*
X9355119Y-17369024D01*
X9364643Y-17359500D01*
X9383690Y-17349976D01*
X9517024Y-17349976D02*
X9640833Y-17349976D01*
X9574167Y-17426167D01*
X9602738Y-17426167D01*
X9621786Y-17435690D01*
X9631310Y-17445214D01*
X9640833Y-17464262D01*
X9640833Y-17511881D01*
X9631310Y-17530929D01*
X9621786Y-17540452D01*
X9602738Y-17549976D01*
X9545595Y-17549976D01*
X9526548Y-17540452D01*
X9517024Y-17530929D01*
X9736071Y-17549976D02*
X9774167Y-17549976D01*
X9793214Y-17540452D01*
X9802738Y-17530929D01*
X9821786Y-17502357D01*
X9831310Y-17464262D01*
X9831310Y-17388071D01*
X9821786Y-17369024D01*
X9812262Y-17359500D01*
X9793214Y-17349976D01*
X9755119Y-17349976D01*
X9736071Y-17359500D01*
X9726548Y-17369024D01*
X9717024Y-17388071D01*
X9717024Y-17435690D01*
X9726548Y-17454738D01*
X9736071Y-17464262D01*
X9755119Y-17473786D01*
X9793214Y-17473786D01*
X9812262Y-17464262D01*
X9821786Y-17454738D01*
X9831310Y-17435690D01*
X10002738Y-17416643D02*
X10002738Y-17549976D01*
X9955119Y-17340452D02*
X9907500Y-17483310D01*
X10031310Y-17483310D01*
X10097976Y-17349976D02*
X10097976Y-17388071D01*
X10174167Y-17349976D02*
X10174167Y-17388071D01*
X10469405Y-17626167D02*
X10459881Y-17616643D01*
X10440833Y-17588071D01*
X10431310Y-17569024D01*
X10421786Y-17540452D01*
X10412262Y-17492833D01*
X10412262Y-17454738D01*
X10421786Y-17407119D01*
X10431310Y-17378548D01*
X10440833Y-17359500D01*
X10459881Y-17330929D01*
X10469405Y-17321405D01*
X10536071Y-17369024D02*
X10545595Y-17359500D01*
X10564643Y-17349976D01*
X10612262Y-17349976D01*
X10631310Y-17359500D01*
X10640833Y-17369024D01*
X10650357Y-17388071D01*
X10650357Y-17407119D01*
X10640833Y-17435690D01*
X10526548Y-17549976D01*
X10650357Y-17549976D01*
X10774167Y-17349976D02*
X10793214Y-17349976D01*
X10812262Y-17359500D01*
X10821786Y-17369024D01*
X10831310Y-17388071D01*
X10840833Y-17426167D01*
X10840833Y-17473786D01*
X10831310Y-17511881D01*
X10821786Y-17530929D01*
X10812262Y-17540452D01*
X10793214Y-17549976D01*
X10774167Y-17549976D01*
X10755119Y-17540452D01*
X10745595Y-17530929D01*
X10736071Y-17511881D01*
X10726548Y-17473786D01*
X10726548Y-17426167D01*
X10736071Y-17388071D01*
X10745595Y-17369024D01*
X10755119Y-17359500D01*
X10774167Y-17349976D01*
X11078929Y-17549976D02*
X11078929Y-17349976D01*
X11164643Y-17549976D02*
X11164643Y-17445214D01*
X11155119Y-17426167D01*
X11136071Y-17416643D01*
X11107500Y-17416643D01*
X11088452Y-17426167D01*
X11078929Y-17435690D01*
X11288452Y-17549976D02*
X11269405Y-17540452D01*
X11259881Y-17530929D01*
X11250357Y-17511881D01*
X11250357Y-17454738D01*
X11259881Y-17435690D01*
X11269405Y-17426167D01*
X11288452Y-17416643D01*
X11317024Y-17416643D01*
X11336071Y-17426167D01*
X11345595Y-17435690D01*
X11355119Y-17454738D01*
X11355119Y-17511881D01*
X11345595Y-17530929D01*
X11336071Y-17540452D01*
X11317024Y-17549976D01*
X11288452Y-17549976D01*
X11469405Y-17549976D02*
X11450357Y-17540452D01*
X11440833Y-17521405D01*
X11440833Y-17349976D01*
X11621786Y-17540452D02*
X11602738Y-17549976D01*
X11564643Y-17549976D01*
X11545595Y-17540452D01*
X11536071Y-17521405D01*
X11536071Y-17445214D01*
X11545595Y-17426167D01*
X11564643Y-17416643D01*
X11602738Y-17416643D01*
X11621786Y-17426167D01*
X11631309Y-17445214D01*
X11631309Y-17464262D01*
X11536071Y-17483310D01*
X11707500Y-17540452D02*
X11726548Y-17549976D01*
X11764643Y-17549976D01*
X11783690Y-17540452D01*
X11793214Y-17521405D01*
X11793214Y-17511881D01*
X11783690Y-17492833D01*
X11764643Y-17483310D01*
X11736071Y-17483310D01*
X11717024Y-17473786D01*
X11707500Y-17454738D01*
X11707500Y-17445214D01*
X11717024Y-17426167D01*
X11736071Y-17416643D01*
X11764643Y-17416643D01*
X11783690Y-17426167D01*
X11859881Y-17626167D02*
X11869405Y-17616643D01*
X11888452Y-17588071D01*
X11897976Y-17569024D01*
X11907500Y-17540452D01*
X11917024Y-17492833D01*
X11917024Y-17454738D01*
X11907500Y-17407119D01*
X11897976Y-17378548D01*
X11888452Y-17359500D01*
X11869405Y-17330929D01*
X11859881Y-17321405D01*
D16*
X6846500Y-17774500D02*
X6897500Y-17723500D01*
X6846500Y-17672500D01*
X6795500Y-17723500D01*
X6846500Y-17774500D01*
D11*
X7259881Y-17813976D02*
X7145595Y-17813976D01*
X7202738Y-17813976D02*
X7202738Y-17613976D01*
X7183690Y-17642548D01*
X7164643Y-17661595D01*
X7145595Y-17671119D01*
X7345595Y-17794929D02*
X7355119Y-17804452D01*
X7345595Y-17813976D01*
X7336071Y-17804452D01*
X7345595Y-17794929D01*
X7345595Y-17813976D01*
X7478928Y-17613976D02*
X7497976Y-17613976D01*
X7517024Y-17623500D01*
X7526548Y-17633024D01*
X7536071Y-17652071D01*
X7545595Y-17690167D01*
X7545595Y-17737786D01*
X7536071Y-17775881D01*
X7526548Y-17794929D01*
X7517024Y-17804452D01*
X7497976Y-17813976D01*
X7478928Y-17813976D01*
X7459881Y-17804452D01*
X7450357Y-17794929D01*
X7440833Y-17775881D01*
X7431309Y-17737786D01*
X7431309Y-17690167D01*
X7440833Y-17652071D01*
X7450357Y-17633024D01*
X7459881Y-17623500D01*
X7478928Y-17613976D01*
X7621786Y-17633024D02*
X7631309Y-17623500D01*
X7650357Y-17613976D01*
X7697976Y-17613976D01*
X7717024Y-17623500D01*
X7726548Y-17633024D01*
X7736071Y-17652071D01*
X7736071Y-17671119D01*
X7726548Y-17699690D01*
X7612262Y-17813976D01*
X7736071Y-17813976D01*
X7859881Y-17613976D02*
X7878928Y-17613976D01*
X7897976Y-17623500D01*
X7907500Y-17633024D01*
X7917024Y-17652071D01*
X7926548Y-17690167D01*
X7926548Y-17737786D01*
X7917024Y-17775881D01*
X7907500Y-17794929D01*
X7897976Y-17804452D01*
X7878928Y-17813976D01*
X7859881Y-17813976D01*
X7840833Y-17804452D01*
X7831309Y-17794929D01*
X7821786Y-17775881D01*
X7812262Y-17737786D01*
X7812262Y-17690167D01*
X7821786Y-17652071D01*
X7831309Y-17633024D01*
X7840833Y-17623500D01*
X7859881Y-17613976D01*
X8012262Y-17813976D02*
X8012262Y-17680643D01*
X8012262Y-17699690D02*
X8021786Y-17690167D01*
X8040833Y-17680643D01*
X8069405Y-17680643D01*
X8088452Y-17690167D01*
X8097976Y-17709214D01*
X8097976Y-17813976D01*
X8097976Y-17709214D02*
X8107500Y-17690167D01*
X8126548Y-17680643D01*
X8155119Y-17680643D01*
X8174167Y-17690167D01*
X8183690Y-17709214D01*
X8183690Y-17813976D01*
X8278928Y-17813976D02*
X8278928Y-17680643D01*
X8278928Y-17699690D02*
X8288452Y-17690167D01*
X8307500Y-17680643D01*
X8336071Y-17680643D01*
X8355119Y-17690167D01*
X8364643Y-17709214D01*
X8364643Y-17813976D01*
X8364643Y-17709214D02*
X8374167Y-17690167D01*
X8393214Y-17680643D01*
X8421786Y-17680643D01*
X8440833Y-17690167D01*
X8450357Y-17709214D01*
X8450357Y-17813976D01*
X8840833Y-17604452D02*
X8669405Y-17861595D01*
X9097976Y-17613976D02*
X9117024Y-17613976D01*
X9136071Y-17623500D01*
X9145595Y-17633024D01*
X9155119Y-17652071D01*
X9164643Y-17690167D01*
X9164643Y-17737786D01*
X9155119Y-17775881D01*
X9145595Y-17794929D01*
X9136071Y-17804452D01*
X9117024Y-17813976D01*
X9097976Y-17813976D01*
X9078929Y-17804452D01*
X9069405Y-17794929D01*
X9059881Y-17775881D01*
X9050357Y-17737786D01*
X9050357Y-17690167D01*
X9059881Y-17652071D01*
X9069405Y-17633024D01*
X9078929Y-17623500D01*
X9097976Y-17613976D01*
X9250357Y-17794929D02*
X9259881Y-17804452D01*
X9250357Y-17813976D01*
X9240833Y-17804452D01*
X9250357Y-17794929D01*
X9250357Y-17813976D01*
X9383690Y-17613976D02*
X9402738Y-17613976D01*
X9421786Y-17623500D01*
X9431310Y-17633024D01*
X9440833Y-17652071D01*
X9450357Y-17690167D01*
X9450357Y-17737786D01*
X9440833Y-17775881D01*
X9431310Y-17794929D01*
X9421786Y-17804452D01*
X9402738Y-17813976D01*
X9383690Y-17813976D01*
X9364643Y-17804452D01*
X9355119Y-17794929D01*
X9345595Y-17775881D01*
X9336071Y-17737786D01*
X9336071Y-17690167D01*
X9345595Y-17652071D01*
X9355119Y-17633024D01*
X9364643Y-17623500D01*
X9383690Y-17613976D01*
X9621786Y-17680643D02*
X9621786Y-17813976D01*
X9574167Y-17604452D02*
X9526548Y-17747310D01*
X9650357Y-17747310D01*
X9764643Y-17613976D02*
X9783690Y-17613976D01*
X9802738Y-17623500D01*
X9812262Y-17633024D01*
X9821786Y-17652071D01*
X9831310Y-17690167D01*
X9831310Y-17737786D01*
X9821786Y-17775881D01*
X9812262Y-17794929D01*
X9802738Y-17804452D01*
X9783690Y-17813976D01*
X9764643Y-17813976D01*
X9745595Y-17804452D01*
X9736071Y-17794929D01*
X9726548Y-17775881D01*
X9717024Y-17737786D01*
X9717024Y-17690167D01*
X9726548Y-17652071D01*
X9736071Y-17633024D01*
X9745595Y-17623500D01*
X9764643Y-17613976D01*
X9907500Y-17633024D02*
X9917024Y-17623500D01*
X9936071Y-17613976D01*
X9983690Y-17613976D01*
X10002738Y-17623500D01*
X10012262Y-17633024D01*
X10021786Y-17652071D01*
X10021786Y-17671119D01*
X10012262Y-17699690D01*
X9897976Y-17813976D01*
X10021786Y-17813976D01*
X10097976Y-17613976D02*
X10097976Y-17652071D01*
X10174167Y-17613976D02*
X10174167Y-17652071D01*
X10469405Y-17890167D02*
X10459881Y-17880643D01*
X10440833Y-17852071D01*
X10431310Y-17833024D01*
X10421786Y-17804452D01*
X10412262Y-17756833D01*
X10412262Y-17718738D01*
X10421786Y-17671119D01*
X10431310Y-17642548D01*
X10440833Y-17623500D01*
X10459881Y-17594929D01*
X10469405Y-17585405D01*
X10631310Y-17680643D02*
X10631310Y-17813976D01*
X10583690Y-17604452D02*
X10536071Y-17747310D01*
X10659881Y-17747310D01*
X10717024Y-17613976D02*
X10840833Y-17613976D01*
X10774167Y-17690167D01*
X10802738Y-17690167D01*
X10821786Y-17699690D01*
X10831310Y-17709214D01*
X10840833Y-17728262D01*
X10840833Y-17775881D01*
X10831310Y-17794929D01*
X10821786Y-17804452D01*
X10802738Y-17813976D01*
X10745595Y-17813976D01*
X10726548Y-17804452D01*
X10717024Y-17794929D01*
X11078929Y-17813976D02*
X11078929Y-17613976D01*
X11164643Y-17813976D02*
X11164643Y-17709214D01*
X11155119Y-17690167D01*
X11136071Y-17680643D01*
X11107500Y-17680643D01*
X11088452Y-17690167D01*
X11078929Y-17699690D01*
X11288452Y-17813976D02*
X11269405Y-17804452D01*
X11259881Y-17794929D01*
X11250357Y-17775881D01*
X11250357Y-17718738D01*
X11259881Y-17699690D01*
X11269405Y-17690167D01*
X11288452Y-17680643D01*
X11317024Y-17680643D01*
X11336071Y-17690167D01*
X11345595Y-17699690D01*
X11355119Y-17718738D01*
X11355119Y-17775881D01*
X11345595Y-17794929D01*
X11336071Y-17804452D01*
X11317024Y-17813976D01*
X11288452Y-17813976D01*
X11469405Y-17813976D02*
X11450357Y-17804452D01*
X11440833Y-17785405D01*
X11440833Y-17613976D01*
X11621786Y-17804452D02*
X11602738Y-17813976D01*
X11564643Y-17813976D01*
X11545595Y-17804452D01*
X11536071Y-17785405D01*
X11536071Y-17709214D01*
X11545595Y-17690167D01*
X11564643Y-17680643D01*
X11602738Y-17680643D01*
X11621786Y-17690167D01*
X11631309Y-17709214D01*
X11631309Y-17728262D01*
X11536071Y-17747310D01*
X11707500Y-17804452D02*
X11726548Y-17813976D01*
X11764643Y-17813976D01*
X11783690Y-17804452D01*
X11793214Y-17785405D01*
X11793214Y-17775881D01*
X11783690Y-17756833D01*
X11764643Y-17747310D01*
X11736071Y-17747310D01*
X11717024Y-17737786D01*
X11707500Y-17718738D01*
X11707500Y-17709214D01*
X11717024Y-17690167D01*
X11736071Y-17680643D01*
X11764643Y-17680643D01*
X11783690Y-17690167D01*
X11859881Y-17890167D02*
X11869405Y-17880643D01*
X11888452Y-17852071D01*
X11897976Y-17833024D01*
X11907500Y-17804452D01*
X11917024Y-17756833D01*
X11917024Y-17718738D01*
X11907500Y-17671119D01*
X11897976Y-17642548D01*
X11888452Y-17623500D01*
X11869405Y-17594929D01*
X11859881Y-17585405D01*
X6697500Y-17887500D02*
X6897500Y-18087500D01*
X6897500Y-17887500D02*
X6697500Y-18087500D01*
X6897500Y-17987500D02*
G75*
G03*
X6897500Y-17987500I-100000J0D01*
G01*
X7145595Y-17897024D02*
X7155119Y-17887500D01*
X7174167Y-17877976D01*
X7221786Y-17877976D01*
X7240833Y-17887500D01*
X7250357Y-17897024D01*
X7259881Y-17916071D01*
X7259881Y-17935119D01*
X7250357Y-17963690D01*
X7136071Y-18077976D01*
X7259881Y-18077976D01*
X7345595Y-18058929D02*
X7355119Y-18068452D01*
X7345595Y-18077976D01*
X7336071Y-18068452D01*
X7345595Y-18058929D01*
X7345595Y-18077976D01*
X7421786Y-17877976D02*
X7555119Y-17877976D01*
X7469405Y-18077976D01*
X7669405Y-17877976D02*
X7688452Y-17877976D01*
X7707500Y-17887500D01*
X7717024Y-17897024D01*
X7726548Y-17916071D01*
X7736071Y-17954167D01*
X7736071Y-18001786D01*
X7726548Y-18039881D01*
X7717024Y-18058929D01*
X7707500Y-18068452D01*
X7688452Y-18077976D01*
X7669405Y-18077976D01*
X7650357Y-18068452D01*
X7640833Y-18058929D01*
X7631309Y-18039881D01*
X7621786Y-18001786D01*
X7621786Y-17954167D01*
X7631309Y-17916071D01*
X7640833Y-17897024D01*
X7650357Y-17887500D01*
X7669405Y-17877976D01*
X7859881Y-17877976D02*
X7878928Y-17877976D01*
X7897976Y-17887500D01*
X7907500Y-17897024D01*
X7917024Y-17916071D01*
X7926548Y-17954167D01*
X7926548Y-18001786D01*
X7917024Y-18039881D01*
X7907500Y-18058929D01*
X7897976Y-18068452D01*
X7878928Y-18077976D01*
X7859881Y-18077976D01*
X7840833Y-18068452D01*
X7831309Y-18058929D01*
X7821786Y-18039881D01*
X7812262Y-18001786D01*
X7812262Y-17954167D01*
X7821786Y-17916071D01*
X7831309Y-17897024D01*
X7840833Y-17887500D01*
X7859881Y-17877976D01*
X8012262Y-18077976D02*
X8012262Y-17944643D01*
X8012262Y-17963690D02*
X8021786Y-17954167D01*
X8040833Y-17944643D01*
X8069405Y-17944643D01*
X8088452Y-17954167D01*
X8097976Y-17973214D01*
X8097976Y-18077976D01*
X8097976Y-17973214D02*
X8107500Y-17954167D01*
X8126548Y-17944643D01*
X8155119Y-17944643D01*
X8174167Y-17954167D01*
X8183690Y-17973214D01*
X8183690Y-18077976D01*
X8278928Y-18077976D02*
X8278928Y-17944643D01*
X8278928Y-17963690D02*
X8288452Y-17954167D01*
X8307500Y-17944643D01*
X8336071Y-17944643D01*
X8355119Y-17954167D01*
X8364643Y-17973214D01*
X8364643Y-18077976D01*
X8364643Y-17973214D02*
X8374167Y-17954167D01*
X8393214Y-17944643D01*
X8421786Y-17944643D01*
X8440833Y-17954167D01*
X8450357Y-17973214D01*
X8450357Y-18077976D01*
X8840833Y-17868452D02*
X8669405Y-18125595D01*
X9097976Y-17877976D02*
X9117024Y-17877976D01*
X9136071Y-17887500D01*
X9145595Y-17897024D01*
X9155119Y-17916071D01*
X9164643Y-17954167D01*
X9164643Y-18001786D01*
X9155119Y-18039881D01*
X9145595Y-18058929D01*
X9136071Y-18068452D01*
X9117024Y-18077976D01*
X9097976Y-18077976D01*
X9078929Y-18068452D01*
X9069405Y-18058929D01*
X9059881Y-18039881D01*
X9050357Y-18001786D01*
X9050357Y-17954167D01*
X9059881Y-17916071D01*
X9069405Y-17897024D01*
X9078929Y-17887500D01*
X9097976Y-17877976D01*
X9250357Y-18058929D02*
X9259881Y-18068452D01*
X9250357Y-18077976D01*
X9240833Y-18068452D01*
X9250357Y-18058929D01*
X9250357Y-18077976D01*
X9450357Y-18077976D02*
X9336071Y-18077976D01*
X9393214Y-18077976D02*
X9393214Y-17877976D01*
X9374167Y-17906548D01*
X9355119Y-17925595D01*
X9336071Y-17935119D01*
X9574167Y-17877976D02*
X9593214Y-17877976D01*
X9612262Y-17887500D01*
X9621786Y-17897024D01*
X9631310Y-17916071D01*
X9640833Y-17954167D01*
X9640833Y-18001786D01*
X9631310Y-18039881D01*
X9621786Y-18058929D01*
X9612262Y-18068452D01*
X9593214Y-18077976D01*
X9574167Y-18077976D01*
X9555119Y-18068452D01*
X9545595Y-18058929D01*
X9536071Y-18039881D01*
X9526548Y-18001786D01*
X9526548Y-17954167D01*
X9536071Y-17916071D01*
X9545595Y-17897024D01*
X9555119Y-17887500D01*
X9574167Y-17877976D01*
X9812262Y-17877976D02*
X9774167Y-17877976D01*
X9755119Y-17887500D01*
X9745595Y-17897024D01*
X9726548Y-17925595D01*
X9717024Y-17963690D01*
X9717024Y-18039881D01*
X9726548Y-18058929D01*
X9736071Y-18068452D01*
X9755119Y-18077976D01*
X9793214Y-18077976D01*
X9812262Y-18068452D01*
X9821786Y-18058929D01*
X9831310Y-18039881D01*
X9831310Y-17992262D01*
X9821786Y-17973214D01*
X9812262Y-17963690D01*
X9793214Y-17954167D01*
X9755119Y-17954167D01*
X9736071Y-17963690D01*
X9726548Y-17973214D01*
X9717024Y-17992262D01*
X9897976Y-17877976D02*
X10021786Y-17877976D01*
X9955119Y-17954167D01*
X9983690Y-17954167D01*
X10002738Y-17963690D01*
X10012262Y-17973214D01*
X10021786Y-17992262D01*
X10021786Y-18039881D01*
X10012262Y-18058929D01*
X10002738Y-18068452D01*
X9983690Y-18077976D01*
X9926548Y-18077976D01*
X9907500Y-18068452D01*
X9897976Y-18058929D01*
X10097976Y-17877976D02*
X10097976Y-17916071D01*
X10174167Y-17877976D02*
X10174167Y-17916071D01*
X10469405Y-18154167D02*
X10459881Y-18144643D01*
X10440833Y-18116071D01*
X10431310Y-18097024D01*
X10421786Y-18068452D01*
X10412262Y-18020833D01*
X10412262Y-17982738D01*
X10421786Y-17935119D01*
X10431310Y-17906548D01*
X10440833Y-17887500D01*
X10459881Y-17858929D01*
X10469405Y-17849405D01*
X10650357Y-18077976D02*
X10536071Y-18077976D01*
X10593214Y-18077976D02*
X10593214Y-17877976D01*
X10574167Y-17906548D01*
X10555119Y-17925595D01*
X10536071Y-17935119D01*
X10774167Y-17877976D02*
X10793214Y-17877976D01*
X10812262Y-17887500D01*
X10821786Y-17897024D01*
X10831310Y-17916071D01*
X10840833Y-17954167D01*
X10840833Y-18001786D01*
X10831310Y-18039881D01*
X10821786Y-18058929D01*
X10812262Y-18068452D01*
X10793214Y-18077976D01*
X10774167Y-18077976D01*
X10755119Y-18068452D01*
X10745595Y-18058929D01*
X10736071Y-18039881D01*
X10726548Y-18001786D01*
X10726548Y-17954167D01*
X10736071Y-17916071D01*
X10745595Y-17897024D01*
X10755119Y-17887500D01*
X10774167Y-17877976D01*
X11078929Y-18077976D02*
X11078929Y-17877976D01*
X11164643Y-18077976D02*
X11164643Y-17973214D01*
X11155119Y-17954167D01*
X11136071Y-17944643D01*
X11107500Y-17944643D01*
X11088452Y-17954167D01*
X11078929Y-17963690D01*
X11288452Y-18077976D02*
X11269405Y-18068452D01*
X11259881Y-18058929D01*
X11250357Y-18039881D01*
X11250357Y-17982738D01*
X11259881Y-17963690D01*
X11269405Y-17954167D01*
X11288452Y-17944643D01*
X11317024Y-17944643D01*
X11336071Y-17954167D01*
X11345595Y-17963690D01*
X11355119Y-17982738D01*
X11355119Y-18039881D01*
X11345595Y-18058929D01*
X11336071Y-18068452D01*
X11317024Y-18077976D01*
X11288452Y-18077976D01*
X11469405Y-18077976D02*
X11450357Y-18068452D01*
X11440833Y-18049405D01*
X11440833Y-17877976D01*
X11621786Y-18068452D02*
X11602738Y-18077976D01*
X11564643Y-18077976D01*
X11545595Y-18068452D01*
X11536071Y-18049405D01*
X11536071Y-17973214D01*
X11545595Y-17954167D01*
X11564643Y-17944643D01*
X11602738Y-17944643D01*
X11621786Y-17954167D01*
X11631309Y-17973214D01*
X11631309Y-17992262D01*
X11536071Y-18011310D01*
X11707500Y-18068452D02*
X11726548Y-18077976D01*
X11764643Y-18077976D01*
X11783690Y-18068452D01*
X11793214Y-18049405D01*
X11793214Y-18039881D01*
X11783690Y-18020833D01*
X11764643Y-18011310D01*
X11736071Y-18011310D01*
X11717024Y-18001786D01*
X11707500Y-17982738D01*
X11707500Y-17973214D01*
X11717024Y-17954167D01*
X11736071Y-17944643D01*
X11764643Y-17944643D01*
X11783690Y-17954167D01*
X11859881Y-18154167D02*
X11869405Y-18144643D01*
X11888452Y-18116071D01*
X11897976Y-18097024D01*
X11907500Y-18068452D01*
X11917024Y-18020833D01*
X11917024Y-17982738D01*
X11907500Y-17935119D01*
X11897976Y-17906548D01*
X11888452Y-17887500D01*
X11869405Y-17858929D01*
X11859881Y-17849405D01*
M02*
