%TF.GenerationSoftware,KiCad,Pcbnew,(6.0.0)*%
%TF.CreationDate,2022-01-01T23:53:49+00:00*%
%TF.ProjectId,main_distro,6d61696e-5f64-4697-9374-726f2e6b6963,rev?*%
%TF.SameCoordinates,Original*%
%TF.FileFunction,Soldermask,Top*%
%TF.FilePolarity,Negative*%
%FSLAX46Y46*%
G04 Gerber Fmt 4.6, Leading zero omitted, Abs format (unit mm)*
G04 Created by KiCad (PCBNEW (6.0.0)) date 2022-01-01 23:53:49*
%MOMM*%
%LPD*%
G01*
G04 APERTURE LIST*
G04 Aperture macros list*
%AMRoundRect*
0 Rectangle with rounded corners*
0 $1 Rounding radius*
0 $2 $3 $4 $5 $6 $7 $8 $9 X,Y pos of 4 corners*
0 Add a 4 corners polygon primitive as box body*
4,1,4,$2,$3,$4,$5,$6,$7,$8,$9,$2,$3,0*
0 Add four circle primitives for the rounded corners*
1,1,$1+$1,$2,$3*
1,1,$1+$1,$4,$5*
1,1,$1+$1,$6,$7*
1,1,$1+$1,$8,$9*
0 Add four rect primitives between the rounded corners*
20,1,$1+$1,$2,$3,$4,$5,0*
20,1,$1+$1,$4,$5,$6,$7,0*
20,1,$1+$1,$6,$7,$8,$9,0*
20,1,$1+$1,$8,$9,$2,$3,0*%
G04 Aperture macros list end*
%ADD10RoundRect,0.250000X-0.600000X-0.750000X0.600000X-0.750000X0.600000X0.750000X-0.600000X0.750000X0*%
%ADD11O,1.700000X2.000000*%
%ADD12R,1.700000X1.700000*%
%ADD13O,1.700000X1.700000*%
%ADD14R,3.800000X3.800000*%
%ADD15C,3.800000*%
%ADD16O,1.500000X1.500000*%
%ADD17O,1.800000X1.800000*%
%ADD18R,3.500000X1.700000*%
%ADD19R,1.700000X3.500000*%
%ADD20RoundRect,0.250000X0.325000X0.450000X-0.325000X0.450000X-0.325000X-0.450000X0.325000X-0.450000X0*%
%ADD21O,2.000000X1.700000*%
%ADD22RoundRect,0.250000X-0.750000X0.600000X-0.750000X-0.600000X0.750000X-0.600000X0.750000X0.600000X0*%
%ADD23RoundRect,0.250000X-0.725000X0.600000X-0.725000X-0.600000X0.725000X-0.600000X0.725000X0.600000X0*%
%ADD24O,1.950000X1.700000*%
%ADD25R,4.600000X1.100000*%
%ADD26R,9.400000X10.800000*%
%ADD27C,4.000000*%
%ADD28R,3.500000X2.300000*%
G04 APERTURE END LIST*
D10*
%TO.C,J12*%
X74500000Y-127000000D03*
D11*
X77000000Y-127000000D03*
%TD*%
D12*
%TO.C,J16*%
X79500000Y-117000000D03*
D13*
X82040000Y-117000000D03*
X84580000Y-117000000D03*
%TD*%
D12*
%TO.C,J15*%
X79500000Y-107000000D03*
D13*
X82040000Y-107000000D03*
X84580000Y-107000000D03*
%TD*%
D12*
%TO.C,J14*%
X79500000Y-112000000D03*
D13*
X82040000Y-112000000D03*
X84580000Y-112000000D03*
%TD*%
D12*
%TO.C,J13*%
X79500000Y-102000000D03*
D13*
X82040000Y-102000000D03*
X84580000Y-102000000D03*
%TD*%
D14*
%TO.C,J7*%
X111000000Y-152500000D03*
D15*
X106000000Y-152500000D03*
%TD*%
D16*
%TO.C,U1*%
X104425000Y-65030000D03*
X99575000Y-65030000D03*
D17*
X104725000Y-62000000D03*
X99275000Y-62000000D03*
D13*
X93110000Y-61870000D03*
D18*
X92210000Y-61870000D03*
D13*
X93110000Y-64410000D03*
D18*
X92210000Y-64410000D03*
X92210000Y-66950000D03*
D12*
X93110000Y-66950000D03*
D13*
X93110000Y-69490000D03*
D18*
X92210000Y-69490000D03*
D13*
X93110000Y-72030000D03*
D18*
X92210000Y-72030000D03*
X92210000Y-74570000D03*
D13*
X93110000Y-74570000D03*
D18*
X92210000Y-77110000D03*
D13*
X93110000Y-77110000D03*
D18*
X92210000Y-79650000D03*
D12*
X93110000Y-79650000D03*
D13*
X93110000Y-82190000D03*
D18*
X92210000Y-82190000D03*
X92210000Y-84730000D03*
D13*
X93110000Y-84730000D03*
D18*
X92210000Y-87270000D03*
D13*
X93110000Y-87270000D03*
D18*
X92210000Y-89810000D03*
D13*
X93110000Y-89810000D03*
D18*
X92210000Y-92350000D03*
D12*
X93110000Y-92350000D03*
D18*
X92210000Y-94890000D03*
D13*
X93110000Y-94890000D03*
D18*
X92210000Y-97430000D03*
D13*
X93110000Y-97430000D03*
X93110000Y-99970000D03*
D18*
X92210000Y-99970000D03*
X92210000Y-102510000D03*
D13*
X93110000Y-102510000D03*
D12*
X93110000Y-105050000D03*
D18*
X92210000Y-105050000D03*
X92210000Y-107590000D03*
D13*
X93110000Y-107590000D03*
X93110000Y-110130000D03*
D18*
X92210000Y-110130000D03*
X111790000Y-110130000D03*
D13*
X110890000Y-110130000D03*
D18*
X111790000Y-107590000D03*
D13*
X110890000Y-107590000D03*
D12*
X110890000Y-105050000D03*
D18*
X111790000Y-105050000D03*
X111790000Y-102510000D03*
D13*
X110890000Y-102510000D03*
D18*
X111790000Y-99970000D03*
D13*
X110890000Y-99970000D03*
D18*
X111790000Y-97430000D03*
D13*
X110890000Y-97430000D03*
D18*
X111790000Y-94890000D03*
D13*
X110890000Y-94890000D03*
D18*
X111790000Y-92350000D03*
D12*
X110890000Y-92350000D03*
D18*
X111790000Y-89810000D03*
D13*
X110890000Y-89810000D03*
X110890000Y-87270000D03*
D18*
X111790000Y-87270000D03*
X111790000Y-84730000D03*
D13*
X110890000Y-84730000D03*
D18*
X111790000Y-82190000D03*
D13*
X110890000Y-82190000D03*
D12*
X110890000Y-79650000D03*
D18*
X111790000Y-79650000D03*
X111790000Y-77110000D03*
D13*
X110890000Y-77110000D03*
X110890000Y-74570000D03*
D18*
X111790000Y-74570000D03*
X111790000Y-72030000D03*
D13*
X110890000Y-72030000D03*
X110890000Y-69490000D03*
D18*
X111790000Y-69490000D03*
D12*
X110890000Y-66950000D03*
D18*
X111790000Y-66950000D03*
D13*
X110890000Y-64410000D03*
D18*
X111790000Y-64410000D03*
D13*
X110890000Y-61870000D03*
D18*
X111790000Y-61870000D03*
D13*
X99460000Y-109900000D03*
D19*
X99460000Y-110800000D03*
D12*
X102000000Y-109900000D03*
D19*
X102000000Y-110800000D03*
X104540000Y-110800000D03*
D13*
X104540000Y-109900000D03*
%TD*%
D20*
%TO.C,D1*%
X79025000Y-153000000D03*
X76975000Y-153000000D03*
%TD*%
%TO.C,D2*%
X76975000Y-146500000D03*
X79025000Y-146500000D03*
%TD*%
%TO.C,D3*%
X79025000Y-140000000D03*
X76975000Y-140000000D03*
%TD*%
D21*
%TO.C,J1*%
X76000000Y-65500000D03*
D22*
X76000000Y-63000000D03*
%TD*%
%TO.C,J2*%
X83750000Y-77500000D03*
D21*
X83750000Y-80000000D03*
%TD*%
%TO.C,J3*%
X76000000Y-95000000D03*
D22*
X76000000Y-92500000D03*
%TD*%
D23*
%TO.C,J4*%
X83500000Y-63000000D03*
D24*
X83500000Y-65500000D03*
X83500000Y-68000000D03*
X83500000Y-70500000D03*
%TD*%
D23*
%TO.C,J5*%
X76000000Y-75000000D03*
D24*
X76000000Y-77500000D03*
X76000000Y-80000000D03*
X76000000Y-82500000D03*
%TD*%
D23*
%TO.C,J6*%
X83500000Y-87500000D03*
D24*
X83500000Y-90000000D03*
X83500000Y-92500000D03*
X83500000Y-95000000D03*
%TD*%
D25*
%TO.C,U3*%
X85225000Y-124460000D03*
D26*
X94375000Y-127000000D03*
D25*
X85225000Y-129540000D03*
%TD*%
D14*
%TO.C,J9*%
X111000000Y-119000000D03*
D27*
X106000000Y-119000000D03*
%TD*%
D14*
%TO.C,J11*%
X111000000Y-127000000D03*
D27*
X106000000Y-127000000D03*
%TD*%
D14*
%TO.C,J8*%
X111000000Y-135000000D03*
D27*
X106000000Y-135000000D03*
%TD*%
D28*
%TO.C,D6*%
X93300000Y-118000000D03*
X98700000Y-118000000D03*
%TD*%
D14*
%TO.C,J10*%
X111000000Y-142750000D03*
D27*
X106000000Y-142750000D03*
%TD*%
D25*
%TO.C,U2*%
X85225000Y-141735000D03*
D26*
X94375000Y-144275000D03*
D25*
X85225000Y-146815000D03*
%TD*%
D28*
%TO.C,D5*%
X82600000Y-135500000D03*
X88000000Y-135500000D03*
%TD*%
%TO.C,D4*%
X96750000Y-152750000D03*
X91350000Y-152750000D03*
%TD*%
M02*
